<?xml version="1.0" encoding="UTF-8"?><svg id="uuid-7973e271-a741-44b9-afee-6d23f20368e2" xmlns="http://www.w3.org/2000/svg" viewBox="0 0 249.83 250"><ellipse cx="45.67" cy="211.98" rx="6.77" ry="6.6" style="fill:#f5af32; stroke-width:0px;"/><ellipse cx="12.51" cy="179.17" rx="6.77" ry="6.6" style="fill:#f5af32; stroke-width:0px;"/><ellipse cx="12.51" cy="45.84" rx="6.77" ry="6.6" style="fill:#f5af32; stroke-width:0px;"/><ellipse cx="45.84" cy="12.51" rx="6.77" ry="6.6" style="fill:#f5af32; stroke-width:0px;"/><ellipse cx="179.17" cy="12.51" rx="6.77" ry="6.6" style="fill:#f5af32; stroke-width:0px;"/><ellipse cx="212.5" cy="45.84" rx="6.77" ry="6.6" style="fill:#f5af32; stroke-width:0px;"/><path d="M134.9,90.29h-43.57s-17.19-.35-15.45,18.58v49.48s-1.04,9.03,13.19,9.2h47.22v-37.32s.52-11.98,14.06-11.11v-16.84c-.35-.17,0-10.59-15.45-11.98ZM112.33,131.6c-3.99,0-7.12-3.12-7.12-6.77s3.12-6.77,7.12-6.77,7.12,3.12,7.12,6.77-3.12,6.77-7.12,6.77Z" style="fill:#f5af32; stroke-width:0px;"/><path d="M154,135.6c.87,0,37.67-10.59,37.67-10.59l37.67,10.59v46.7s-10.59,42.53-37.67,44.62c0,0-38.54-15.28-37.67-49.82v-41.49Z" style="fill:#f5af32; stroke-width:0px;"/><path d="M188.54,122.4c-9.9,3.12-19.79,5.38-30.03,6.77-4.86.87-8.51,5.03-8.51,10.07v34.72c0,25,14.76,47.39,37.67,57.29,2.6,1.04,5.56,1.04,8.16,0,22.92-9.9,37.67-32.46,37.67-57.29v-34.72c0-5.03-3.65-9.2-8.51-10.07-10.07-1.56-20.14-3.82-30.03-6.77-2.08-.69-4.34-.69-6.42,0h0ZM223.61,137.33c.87.17,1.56.87,1.56,1.74v34.72c0,21.53-12.85,41.14-32.64,49.65-.52.17-1.04.17-1.56,0-19.79-8.68-32.64-28.12-32.46-49.65v-34.55c0-.87.69-1.56,1.56-1.74,10.59-1.56,21.01-3.99,31.25-7.12.35-.17.69-.17,1.04,0,10.07,3.12,20.66,5.56,31.25,6.94h0Z" style="fill:#000; stroke-width:0px;"/><path d="M108.34,136.81v4.86c0,2.26,1.91,4.17,4.17,4.17s4.17-1.91,4.17-4.17v-4.86c6.6-2.26,9.9-9.37,7.64-15.97-2.26-6.6-9.37-9.9-15.97-7.64-6.6,2.26-9.9,9.37-7.64,15.97,1.39,3.65,4.17,6.42,7.64,7.64h0ZM112.51,120.84c2.26,0,4.17,1.91,4.17,4.17s-1.91,4.17-4.17,4.17-4.17-1.91-4.17-4.17,1.91-4.17,4.17-4.17Z" style="fill:#000; stroke-width:0px;"/><path d="M182.12,180.39c-1.56-1.56-4.34-1.56-5.9.17-1.56,1.56-1.56,4.17,0,5.73l4.17,4.17c.69.69,1.91,1.22,2.95,1.22h.17c1.22,0,2.26-.52,2.95-1.56l20.83-25c1.39-1.74,1.22-4.34-.52-5.9-1.74-1.39-4.34-1.22-5.9.52l-17.88,21.53-.87-.87h0Z" style="fill:#000; stroke-width:0px;"/><path d="M20.85,137.51c-6.94,0-12.5,5.56-12.5,12.5v17.36c-6.6,2.26-9.9,9.37-7.64,15.97,2.26,6.6,9.37,9.9,15.97,7.64,6.6-2.26,9.9-9.37,7.64-15.97-1.22-3.65-3.99-6.42-7.64-7.64v-17.36c0-2.26,1.91-4.17,4.17-4.17h10.76c8.85,21.53,26.04,38.54,47.57,47.57v10.76c0,2.26-1.91,4.17-4.17,4.17h-17.36c-2.26-6.6-9.37-9.9-15.97-7.64-6.6,2.26-9.9,9.37-7.64,15.97,2.26,6.6,9.37,9.9,15.97,7.64,3.65-1.22,6.42-3.99,7.64-7.64h17.36c6.94,0,12.5-5.56,12.5-12.5v-7.81c6.77,2.08,13.71,3.12,20.83,3.47v21.01c0,2.26,1.91,4.17,4.17,4.17s4.17-1.91,4.17-4.17v-21.01c6.77-.35,13.54-1.39,19.96-3.3,6.6,22.39,22.92,40.62,44.27,50l5.73,2.43c3.12,1.39,6.77,1.39,9.9,0l5.73-2.43c28.99-12.5,47.57-41.14,47.57-72.57v-47.22c0-6.25-4.69-11.63-10.94-12.33-13.37-1.56-26.56-4.17-39.41-7.99-.52-6.42-1.56-12.67-3.3-18.75h7.81c6.94,0,12.5-5.56,12.5-12.5v-17.53c6.6-2.26,9.9-9.37,7.64-15.97-2.26-6.6-9.37-9.9-15.97-7.64-6.6,2.26-9.9,9.37-7.64,15.97,1.22,3.65,3.99,6.42,7.64,7.64v17.36c0,2.26-1.91,4.17-4.17,4.17h-10.76c-8.68-21.53-25.69-38.71-47.39-47.57v-10.76c0-2.26,1.91-4.17,4.17-4.17h17.36c2.26,6.6,9.37,9.9,15.97,7.64,6.6-2.26,9.9-9.37,7.64-15.97-2.26-6.6-9.37-9.9-15.97-7.64-3.65,1.22-6.42,3.99-7.64,7.64h-17.36c-6.94,0-12.5,5.56-12.5,12.5v7.81c-6.77-1.91-13.71-3.12-20.83-3.47V4.18C116.67,1.92,114.76.01,112.51.01s-4.17,1.91-4.17,4.17v21.01c-7.12.35-14.06,1.39-20.83,3.47v-7.81c0-6.94-5.56-12.5-12.5-12.5h-17.36c-2.26-6.6-9.37-9.9-15.97-7.64-6.6,2.26-9.9,9.37-7.64,15.97,2.26,6.6,9.37,9.9,15.97,7.64,3.65-1.22,6.42-3.99,7.64-7.64h17.36c2.26,0,4.17,1.91,4.17,4.17v10.76c-21.53,8.85-38.54,26.04-47.57,47.57h-10.76c-2.26,0-4.17-1.91-4.17-4.17v-17.36c6.6-2.26,9.9-9.37,7.64-15.97-2.26-6.6-9.37-9.9-15.97-7.64-6.6,2.26-9.9,9.37-7.64,15.97,1.22,3.65,3.99,6.42,7.64,7.64v17.36c0,6.94,5.56,12.5,12.5,12.5h7.81c-2.08,6.77-3.12,13.71-3.47,20.83H4.18C1.92,108.34.01,110.25.01,112.51s1.91,4.17,4.17,4.17h21.01c.35,7.12,1.39,14.06,3.47,20.83h-7.81ZM12.51,183.34c-2.26,0-4.17-1.91-4.17-4.17s1.91-4.17,4.17-4.17,4.17,1.91,4.17,4.17-1.91,4.17-4.17,4.17ZM45.84,216.67c-2.26,0-4.17-1.91-4.17-4.17s1.91-4.17,4.17-4.17,4.17,1.91,4.17,4.17c0,2.43-1.91,4.17-4.17,4.17ZM212.5,41.68c2.26,0,4.17,1.91,4.17,4.17s-1.91,4.17-4.17,4.17-4.17-1.91-4.17-4.17,1.91-4.17,4.17-4.17ZM179.17,8.35c2.26,0,4.17,1.91,4.17,4.17s-1.91,4.17-4.17,4.17-4.17-1.91-4.17-4.17,1.91-4.17,4.17-4.17ZM45.84,16.68c-2.26,0-4.17-1.91-4.17-4.17s1.91-4.17,4.17-4.17,4.17,1.91,4.17,4.17-1.91,4.17-4.17,4.17ZM12.51,41.68c2.26,0,4.17,1.91,4.17,4.17s-1.91,4.17-4.17,4.17-4.17-1.91-4.17-4.17,1.91-4.17,4.17-4.17ZM129.17,87.51h-33.33v-16.67c0-9.2,7.46-16.67,16.67-16.67s16.67,7.46,16.67,16.67v16.67ZM137.51,95.84c4.69,0,8.33,3.82,8.33,8.33v9.9c-.52,0-1.22.17-1.56.17-6.25.87-10.94,6.08-10.94,12.33v35.76h-45.83c-4.69,0-8.33-3.82-8.33-8.33v-49.65c0-4.69,3.82-8.33,8.33-8.33h50v-.17ZM241.67,126.74v47.22c0,28.12-16.67,53.64-42.53,64.93l-5.73,2.43c-1.04.52-2.26.52-3.3,0l-5.73-2.43c-25.87-11.28-42.53-36.8-42.53-64.93v-47.22c0-2.08,1.56-3.82,3.65-4.17,11.28-1.39,32.29-4.69,44.96-9.9,1.04-.35,2.08-.35,2.95,0,12.67,5.03,33.51,8.33,44.96,9.9,1.74.35,3.3,2.26,3.3,4.17h0ZM112.51,33.34c40.62-.17,74.65,30.55,78.64,70.83-1.39,0-2.78.35-4.17.87-10.59,3.65-21.7,6.42-32.81,7.81v-8.68c0-9.2-7.46-16.67-16.67-16.67v-16.67c0-13.89-11.11-25-25-25s-25,11.11-25,25v16.67c-9.2,0-16.67,7.46-16.67,16.67v50c0,9.2,7.46,16.67,16.67,16.67h45.83v2.95c0,4.86.52,9.72,1.39,14.58-42.01,12.33-85.93-11.63-98.26-53.64-12.33-41.84,11.63-85.76,53.64-98.09,7.29-2.08,14.93-3.3,22.39-3.3h0Z" style="fill:#000; stroke-width:0px;"/></svg>