<?xml version="1.0" encoding="UTF-8"?>
<svg id="Layer_1" data-name="Layer 1" xmlns="http://www.w3.org/2000/svg" viewBox="0 0 156.31 167.07">
  <path d="m72.78,0c46.14,0,83.54,37.4,83.54,83.54s-37.4,83.54-83.54,83.54V0Z" style="fill: #c79026; stroke-width: 0px;"/>
  <circle cx="78.16" cy="83.54" r="72.78" style="fill: #f5af32; stroke-width: 0px;"/>
  <g>
    <path d="m63.3,49.38h5.98l-.72,6.22c-.06.52.16,1.03.59,1.33s.98.36,1.45.14l7.09-3.24,7.09,3.24c.19.09.4.13.6.13.3,0,.6-.09.85-.28.42-.31.65-.82.59-1.33l-.72-6.22h15.12c1.33,0,2.41,1.08,2.41,2.41v10.26c0,.8.65,1.44,1.44,1.44s1.44-.65,1.44-1.44v-10.26c0-2.92-2.37-5.29-5.29-5.29h-14.04l4.02-4.37c.35-.38.47-.93.31-1.42s-.58-.87-1.09-.97l-7.64-1.54-3.83-6.79c-.26-.45-.74-.73-1.26-.73s-1,.28-1.26.73l-3.83,6.79-7.64,1.54c-.51.1-.93.47-1.09.97s-.04,1.04.31,1.42l4.02,4.37h-4.9c-.8,0-1.44.65-1.44,1.44s.65,1.44,1.44,1.44h0Zm10.52-8.49c.41-.08.77-.34.97-.71l2.89-5.13,2.89,5.13c.21.37.56.62.97.71l5.78,1.17-3.99,4.34c-.28.31-.42.73-.37,1.14l.68,5.85-5.36-2.45c-.19-.09-.4-.13-.6-.13s-.41.04-.6.13l-5.36,2.45.68-5.85c.05-.42-.09-.83-.37-1.14l-3.99-4.34,5.78-1.17Z" style="stroke-width: 0px;"/>
    <path d="m50.31,63.49c.8,0,1.44-.65,1.44-1.44v-10.26c0-1.33,1.08-2.41,2.41-2.41h2.4c.8,0,1.44-.65,1.44-1.44s-.65-1.44-1.44-1.44h-2.4c-2.92,0-5.29,2.37-5.29,5.29v10.26c0,.8.65,1.44,1.44,1.44Z" style="stroke-width: 0px;"/>
    <path d="m41.45,103.04c0-.8-.65-1.44-1.44-1.44s-1.44.65-1.44,1.44v19.78c0,.51-.2,1-.56,1.36-.36.36-.84.57-1.36.57-.52,0-1.01-.19-1.38-.56-.37-.37-.57-.85-.57-1.37v-7.13c0-.8-.65-1.44-1.44-1.44s-1.44.65-1.44,1.44v7.13c0,1.29.51,2.51,1.43,3.42.91.9,2.11,1.4,3.39,1.4h.04c.66,0,1.31-.14,1.9-.4v.5c0,.8.65,1.44,1.44,1.44s1.44-.65,1.44-1.44v-24.7Z" style="stroke-width: 0px;"/>
    <path d="m50.31,121.87c-.8,0-1.44.65-1.44,1.44v4.42c0,.8.65,1.44,1.44,1.44s1.44-.65,1.44-1.44v-4.42c0-.8-.65-1.44-1.44-1.44Z" style="stroke-width: 0px;"/>
    <path d="m122.12,117.61c-.8,0-1.44.65-1.44,1.44v3.77c0,.52-.2,1.01-.57,1.37-.37.37-.86.57-1.38.56-.51,0-.99-.21-1.35-.57-.36-.36-.56-.85-.56-1.36v-19.78c0-.8-.65-1.44-1.44-1.44s-1.44.65-1.44,1.44v24.7c0,.8.65,1.44,1.44,1.44s1.44-.65,1.44-1.44v-.5c.59.26,1.23.4,1.89.4,1.29.01,2.51-.49,3.43-1.4.92-.91,1.43-2.13,1.43-3.42v-3.77c0-.8-.65-1.44-1.44-1.44h0Z" style="stroke-width: 0px;"/>
    <path d="m116.04,90.51l-5.43-.98-.37-3.01c2.04-1.81,3.35-4.33,3.63-7.14l.21-2.06c.26-2.55-.58-5.1-2.3-7-1.72-1.89-4.16-2.98-6.72-2.98h0c-2.56,0-5.01,1.09-6.73,2.99-1.72,1.9-2.56,4.45-2.31,7l.2,2.06c.28,2.81,1.59,5.34,3.63,7.15l-.37,3-3.39.61c-.54-3.87-3.5-7.03-7.43-7.74l-5.43-.98-.37-3c2.04-1.81,3.35-4.34,3.63-7.15l.2-2.06c.25-2.55-.59-5.1-2.31-7-1.72-1.9-4.17-2.99-6.73-2.99h0c-2.56,0-5,1.09-6.72,2.98-1.72,1.9-2.56,4.45-2.3,7l.21,2.06c.28,2.81,1.59,5.33,3.63,7.14l-.37,3.01-5.43.98c-3.94.71-6.9,3.87-7.43,7.74l-3.4-.61-.37-3c2.04-1.81,3.36-4.34,3.63-7.15l.2-2.06c.25-2.55-.59-5.1-2.31-7-1.72-1.9-4.17-2.99-6.73-2.99h0c-2.56,0-5,1.09-6.72,2.98-1.72,1.9-2.56,4.45-2.3,7l.21,2.06c.28,2.81,1.59,5.33,3.63,7.14l-.37,3.01-5.43.98c-4.36.79-7.52,4.57-7.52,9v9.44c0,.8.65,1.44,1.44,1.44s1.44-.65,1.44-1.44v-9.44c0-3.03,2.17-5.62,5.15-6.16l6.47-1.17c.62-.11,1.12-.64,1.18-1.27l.32-2.64c.79.35,1.65.53,2.51.53s1.7-.18,2.49-.52l.32,2.65c.07.62.57,1.15,1.18,1.25l4.87.88v34.67c0,.8.65,1.44,1.44,1.44s1.44-.65,1.44-1.44v-8.6c.6.26,1.26.4,1.93.4.68,0,1.34-.15,1.93-.41v8.61c0,.8.65,1.44,1.44,1.44s1.44-.65,1.44-1.44v-32.8c0-.8-.65-1.44-1.44-1.44s-1.44.65-1.44,1.44v19.78c0,1.06-.87,1.93-1.93,1.93-.51,0-1-.2-1.36-.56-.37-.37-.57-.85-.57-1.37v-23.3c0-3.03,2.17-5.62,5.15-6.16l6.47-1.17c.61-.1,1.11-.63,1.18-1.25l.32-2.65c.79.35,1.65.53,2.51.53s1.7-.18,2.49-.52l.32,2.63c.06.62.56,1.16,1.18,1.26l6.47,1.17c2.98.54,5.15,3.13,5.15,6.16v6.09c0,.8.65,1.44,1.44,1.44s1.44-.65,1.44-1.44v-4.44l4.86-.88c.61-.1,1.11-.63,1.18-1.25l.32-2.65c.79.35,1.64.52,2.49.52s1.71-.18,2.51-.53l.32,2.64c.06.62.56,1.16,1.18,1.27l6.47,1.17c2.98.54,5.15,3.13,5.15,6.16v12.8c0,.8.65,1.44,1.44,1.44s1.44-.65,1.44-1.44v-12.8c0-4.43-3.16-8.21-7.52-9h0Zm-67.16-4.92c-2.54-1.25-4.23-3.68-4.51-6.5l-.21-2.06c-.17-1.74.4-3.48,1.57-4.78,1.19-1.31,2.81-2.03,4.58-2.03h0c1.77,0,3.4.72,4.59,2.04,1.17,1.3,1.75,3.04,1.58,4.78l-.2,2.06c-.28,2.82-1.96,5.25-4.5,6.5-.91.45-1.99.44-2.89,0h0Zm27.37-8.1c-2.54-1.25-4.23-3.68-4.51-6.5l-.21-2.06c-.17-1.74.4-3.48,1.57-4.78,1.19-1.31,2.81-2.03,4.58-2.03h0c1.77,0,3.4.72,4.59,2.04,1.17,1.3,1.75,3.04,1.58,4.78l-.2,2.06c-.28,2.82-1.96,5.25-4.5,6.5-.91.45-1.99.44-2.89,0h0Zm30.25,8.1c-.91.45-1.99.45-2.89,0-2.54-1.25-4.22-3.68-4.5-6.5l-.2-2.06c-.17-1.74.4-3.48,1.58-4.78,1.19-1.31,2.82-2.04,4.59-2.04h0c1.77,0,3.39.72,4.58,2.03,1.17,1.3,1.74,3.04,1.57,4.78l-.21,2.06c-.28,2.82-1.97,5.25-4.51,6.5h0Z" style="stroke-width: 0px;"/>
    <path d="m105.05,121.87c-.8,0-1.44.65-1.44,1.44v4.42c0,.8.65,1.44,1.44,1.44s1.44-.65,1.44-1.44v-4.42c0-.8-.65-1.44-1.44-1.44Z" style="stroke-width: 0px;"/>
    <path d="m94.75,102.79c-.8,0-1.44.65-1.44,1.44v10.34c.07,1.11-.82,2.09-1.95,2.07-1.06,0-1.92-.87-1.92-1.93v-19.78c0-.8-.65-1.44-1.44-1.44s-1.44.65-1.44,1.44v32.8c0,.8.65,1.44,1.44,1.44s1.44-.65,1.44-1.44v-8.61c.58.26,1.23.4,1.91.41.69,0,1.35-.14,1.95-.4v8.6c0,.8.65,1.44,1.44,1.44s1.44-.65,1.44-1.44v-23.5c0-.8-.64-1.44-1.44-1.44h0Z" style="stroke-width: 0px;"/>
    <path d="m77.69,113.77c-.8,0-1.44.65-1.44,1.44v12.52c0,.8.65,1.44,1.44,1.44s1.44-.65,1.44-1.44v-12.52c0-.8-.65-1.44-1.44-1.44Z" style="stroke-width: 0px;"/>
  </g>
</svg>