<?xml version="1.0" encoding="UTF-8"?><svg id="a" xmlns="http://www.w3.org/2000/svg" viewBox="0 0 250 220.49"><polygon points="5.14 95.67 45.25 93.12 61.38 107.35 66.29 122.46 66.29 154.68 63.85 169.92 53.24 175.67 10.52 173.36 2.2 169.62 5.14 95.67" style="fill:#fdba33;"/><polygon points="186.79 93.92 226.9 91.37 243.03 105.6 247.94 120.7 247.94 152.93 245.49 168.17 234.89 173.92 192.17 171.6 183.85 167.87 186.79 93.92" style="fill:#fdba33;"/><circle cx="124.87" cy="163.78" r="24.68" style="fill:#fdba33;"/><path d="M13.3,122.74c0-1.89,1.53-3.42,3.42-3.42h34.77c1.89,0,3.42,1.53,3.42,3.42s-1.53,3.42-3.42,3.42H16.72c-1.89,0-3.42-1.53-3.42-3.42ZM16.72,140.42h34.77c1.89,0,3.42-1.53,3.42-3.42s-1.53-3.42-3.42-3.42H16.72c-1.89,0-3.42,1.53-3.42,3.42s1.53,3.42,3.42,3.42ZM54.91,151.26c0-1.89-1.53-3.42-3.42-3.42H16.72c-1.89,0-3.42,1.53-3.42,3.42s1.53,3.42,3.42,3.42h34.77c1.89,0,3.42-1.53,3.42-3.42h0ZM250,110.48v57.05c0,4.92-4.01,8.93-8.93,8.93h-21.76v31.3c0,1.89-1.53,3.42-3.42,3.42h-57.47c-1.89,0-3.42-1.53-3.42-3.42s1.53-3.42,3.42-3.42h54.05v-27.88h-21.75c-4.93,0-8.94-4.01-8.94-8.93v-69.77c0-4.92,4.01-8.93,8.94-8.93h37.59c.91,0,1.78.36,2.42,1l18.26,18.23c.64.64,1,1.51,1,2.42h0ZM231.74,104.97c0,1.14.96,2.09,2.1,2.09h4.47l-6.58-6.57v4.48h0ZM243.16,167.53v-53.64h-9.32c-4.93,0-8.94-4.01-8.94-8.93v-9.3h-34.17c-1.16,0-2.1.94-2.1,2.09v69.77c0,1.15.94,2.09,2.1,2.09h50.34c1.15,0,2.09-.94,2.09-2.09h0ZM233.28,119.04h-34.77c-1.89,0-3.42,1.53-3.42,3.42s1.53,3.42,3.42,3.42h34.77c1.89,0,3.42-1.53,3.42-3.42s-1.53-3.42-3.42-3.42ZM233.28,133.29h-34.77c-1.89,0-3.42,1.53-3.42,3.42s1.53,3.42,3.42,3.42h34.77c1.89,0,3.42-1.53,3.42-3.42s-1.53-3.42-3.42-3.42ZM233.28,147.55h-34.77c-1.89,0-3.42,1.53-3.42,3.42s1.53,3.42,3.42,3.42h34.77c1.89,0,3.42-1.53,3.42-3.42s-1.53-3.42-3.42-3.42ZM168.35,178.52c-5.94,19.82-19.74,33.48-42.16,41.76-.38.14-.78.21-1.18.21s-.8-.07-1.18-.21c-22.43-8.28-36.22-21.94-42.16-41.76-.1-.32-.14-.65-.14-.98v-47.82c0-1.42.88-2.69,2.2-3.19l40.07-15.32c.79-.3,1.65-.3,2.44,0l40.07,15.32c1.32.51,2.2,1.78,2.2,3.19v47.82c0,.33-.05.67-.15.98h0ZM161.65,132.07l-36.65-14.02-36.65,14.02v44.96c5.32,17.25,16.99,28.85,36.65,36.38,19.66-7.53,31.33-19.13,36.65-36.38v-44.96h0ZM90.9,78.7V8.93c0-4.92,4.01-8.93,8.94-8.93h37.59c.91,0,1.78.36,2.42,1l18.27,18.23c.64.64,1,1.51,1,2.42v57.05c0,4.92-4.01,8.93-8.94,8.93h-21.76v16.31c0,1.89-1.53,3.42-3.42,3.42s-3.42-1.53-3.42-3.42v-16.31h-21.75c-4.93,0-8.94-4.01-8.94-8.93h0ZM140.85,16.14c0,1.14.96,2.09,2.1,2.09h4.48l-6.59-6.57v4.48h0ZM97.73,78.7c0,1.15.94,2.09,2.1,2.09h50.34c1.14,0,2.1-.96,2.1-2.09V25.07h-9.33c-4.93,0-8.94-4.01-8.94-8.93V6.84h-34.17c-1.16,0-2.1.94-2.1,2.09v69.77h0ZM107.62,37.05h34.77c1.89,0,3.42-1.53,3.42-3.42s-1.53-3.42-3.42-3.42h-34.77c-1.89,0-3.42,1.53-3.42,3.42s1.53,3.42,3.42,3.42h0ZM107.62,51.3h34.77c1.89,0,3.42-1.53,3.42-3.42s-1.53-3.42-3.42-3.42h-34.77c-1.89,0-3.42,1.53-3.42,3.42s1.53,3.42,3.42,3.42h0ZM107.62,65.55h34.77c1.89,0,3.42-1.53,3.42-3.42s-1.53-3.42-3.42-3.42h-34.77c-1.89,0-3.42,1.53-3.42,3.42s1.53,3.42,3.42,3.42h0ZM95.75,207.76c0,1.89-1.53,3.42-3.42,3.42h-58.23c-1.89,0-3.42-1.53-3.42-3.42v-31H8.94c-4.93,0-8.94-4.01-8.94-8.93v-69.77c0-4.92,4.01-8.93,8.94-8.93h37.59c.91,0,1.78.36,2.42,1l18.27,18.23c.64.64,1,1.51,1,2.42v57.05c0,4.92-4.01,8.93-8.94,8.93h-21.76v27.58h54.81c1.89,0,3.42,1.53,3.42,3.42h0ZM49.95,105.26c0,1.14.96,2.09,2.1,2.09h4.48l-6.59-6.57v4.48ZM8.94,169.92h50.34c1.14,0,2.1-.96,2.1-2.09v-53.64h-9.33c-4.93,0-8.94-4.01-8.94-8.93v-9.3H8.94c-1.16,0-2.1.94-2.1,2.09v69.77c0,1.15.94,2.09,2.1,2.09h0ZM125,135.82c15.06,0,27.31,12.25,27.31,27.29s-12.25,27.29-27.31,27.29-27.29-12.25-27.29-27.29,12.25-27.29,27.29-27.29ZM125,142.66c-11.28,0-20.45,9.18-20.45,20.45s9.18,20.46,20.45,20.46,20.47-9.18,20.47-20.46-9.18-20.45-20.47-20.45h0ZM114.57,161.79c-1.26-1.4-3.42-1.52-4.83-.25-1.4,1.26-1.52,3.42-.25,4.83l7.36,8.18c.65.72,1.58,1.13,2.54,1.13h.1c1-.03,1.94-.5,2.57-1.28l15.38-19.2c1.18-1.47.94-3.63-.53-4.8-1.47-1.18-3.63-.94-4.8.53l-12.86,16.06-4.67-5.19h0Z"/></svg>