<?xml version="1.0" encoding="UTF-8"?><svg xmlns="http://www.w3.org/2000/svg" viewBox="0 0 245.65 253"><g id="a" image-rendering="optimizeQuality" shape-rendering="geometricPrecision" text-rendering="geometricPrecision"><rect x="169.47" y="72.69" width="12.8" height="51.28" style="fill:#fdba33;"/><rect x="221.64" y="74.65" width="12.8" height="51.28" style="fill:#fdba33;"/><rect x="164.88" y="171.71" width="12.8" height="51.28" style="fill:#fdba33;"/><rect x="164.88" y="171.71" width="12.8" height="51.28" transform="translate(-26.08 368.63) rotate(-90)" style="fill:#fdba33;"/><polygon points="201.95 16.01 213.97 2.76 228.04 6.96 236.43 17.93 231.25 38.26 218.18 56.71 201.95 71.69 185.72 53.45 171.28 37.23 167.47 18.89 175.86 6.96 188.05 2.76 197.65 10.73 201.95 16.01" style="fill:#fdba33; fill-rule:evenodd;"/><path id="b" d="M170.47,148.67c-.66,0-1.32-.24-1.84-.72-7.77-7.11-17.81-11.02-28.27-11.02h-20.82c-1.51,0-2.73-1.22-2.73-2.73,0-1.51,1.22-2.73,2.73-2.73h20.82c11.83,0,23.17,4.42,31.95,12.45,1.11,1.02,1.19,2.75.17,3.86-.53.59-1.27.89-2.01.89h0ZM4.23,190.43c-1.51,0-2.73-1.22-2.73-2.73v-8.8c0-26.15,21.28-47.43,47.43-47.43h20.83c1.51,0,2.73,1.22,2.73,2.73,0,1.51-1.22,2.73-2.73,2.73h-20.83c-23.14,0-41.97,18.83-41.97,41.97v8.8c0,1.51-1.22,2.73-2.73,2.73h0Z" style="fill-rule:evenodd; stroke:#000; stroke-linecap:round; stroke-linejoin:round; stroke-width:3px;"/><path id="c" d="M94.64,122.97c-23.49,0-42.6-19.11-42.6-42.6v-26.42c0-1.51,1.22-2.73,2.73-2.73s2.73,1.22,2.73,2.73v26.42c0,20.48,16.66,37.14,37.14,37.14,20.48,0,37.14-16.66,37.14-37.14v-26.42c0-1.51,1.22-2.73,2.73-2.73s2.73,1.22,2.73,2.73v26.42c0,23.49-19.11,42.6-42.6,42.6h0Z" style="fill-rule:evenodd; stroke:#000; stroke-linecap:round; stroke-linejoin:round; stroke-width:3px;"/><path id="d" d="M54.77,77.89h-4.63c-7.35,0-13.33-5.98-13.33-13.33,0-7.35,5.98-13.33,13.33-13.33h4.63c1.51,0,2.73,1.22,2.73,2.73,0,1.51-1.22,2.73-2.73,2.73h-4.63c-4.34,0-7.88,3.53-7.88,7.87s3.54,7.87,7.87,7.87h4.63c1.51,0,2.73,1.22,2.73,2.73,0,1.51-1.22,2.73-2.73,2.73h0Z" style="fill-rule:evenodd; stroke:#000; stroke-linecap:round; stroke-linejoin:round; stroke-width:3px;"/><path id="e" d="M139.15,77.89h-4.63c-1.51,0-2.73-1.22-2.73-2.73,0-1.51,1.22-2.73,2.73-2.73h4.63c4.34,0,7.87-3.53,7.87-7.87,0-4.34-3.53-7.87-7.87-7.87h-4.63c-1.51,0-2.73-1.22-2.73-2.73,0-1.51,1.22-2.73,2.73-2.73h4.63c7.35,0,13.33,5.98,13.33,13.33,0,7.35-5.98,13.33-13.33,13.33h0Z" style="fill-rule:evenodd; stroke:#000; stroke-linecap:round; stroke-linejoin:round; stroke-width:3px;"/><path id="f" d="M142.14,57.11c-1.51,0-2.73-1.22-2.73-2.73v-8.25c0-20.9-17.01-37.91-37.91-37.91h-13.71c-20.9,0-37.91,17.01-37.91,37.91v8.25c0,1.51-1.22,2.73-2.73,2.73-1.51,0-2.73-1.22-2.73-2.73v-8.25c0-23.91,19.46-43.36,43.37-43.36h13.71c23.91,0,43.36,19.46,43.36,43.36v8.25c0,1.51-1.22,2.73-2.73,2.73h0Z" style="fill-rule:evenodd; stroke:#000; stroke-linecap:round; stroke-linejoin:round; stroke-width:3px;"/><path id="g" d="M56.23,56.71c-.51,0-1.04-.01-1.58-.03-1.51-.07-2.67-1.34-2.6-2.85.07-1.51,1.33-2.68,2.85-2.6,11.41.52,13.28-5.37,15.08-11.06.67-2.1,1.29-4.08,2.43-5.57.5-.66,1.27-1.05,2.1-1.07.85-.02,1.62.33,2.15.96.47.56,11.85,13.58,28.06,9.17,19.59-5.35,31.37,7.95,31.86,8.53.99,1.14.86,2.86-.28,3.85-1.14.98-2.87.86-3.85-.28-.4-.46-10.1-11.25-26.3-6.83-14.49,3.95-25.63-3.53-30.69-7.97-.09.28-.18.57-.28.87-1.78,5.62-4.72,14.9-18.96,14.9h0Z" style="fill-rule:evenodd; stroke:#000; stroke-linecap:round; stroke-linejoin:round; stroke-width:3px;"/><path id="h" d="M69.76,136.93c-1.51,0-2.73-1.22-2.73-2.73v-22.74c0-1.51,1.22-2.73,2.73-2.73,1.51,0,2.73,1.22,2.73,2.73v22.74c0,1.51-1.22,2.73-2.73,2.73h0Z" style="fill-rule:evenodd; stroke:#000; stroke-linecap:round; stroke-linejoin:round; stroke-width:3px;"/><path id="i" d="M119.54,136.93c-1.51,0-2.73-1.22-2.73-2.73v-22.74c0-1.51,1.22-2.73,2.73-2.73,1.51,0,2.73,1.22,2.73,2.73v22.74c0,1.51-1.22,2.73-2.73,2.73h0Z" style="fill-rule:evenodd; stroke:#000; stroke-linecap:round; stroke-linejoin:round; stroke-width:3px;"/><path id="j" d="M94.64,146.5c-8.87,0-17.74-3.38-26.55-10.13-1.2-.92-1.43-2.63-.51-3.83.92-1.19,2.63-1.42,3.83-.51,15.63,11.98,30.83,11.98,46.46,0,1.19-.92,2.91-.69,3.83.51.92,1.19.69,2.91-.51,3.83-8.81,6.75-17.68,10.13-26.55,10.13h0Z" style="fill-rule:evenodd; stroke:#000; stroke-linecap:round; stroke-linejoin:round; stroke-width:3px;"/><path id="k" d="M41.6,244.35c-1.51,0-2.73-1.22-2.73-2.73v-74.19c0-1.51,1.22-2.73,2.73-2.73,1.51,0,2.73,1.22,2.73,2.73v74.19c0,1.51-1.22,2.73-2.73,2.73h0Z" style="fill-rule:evenodd; stroke:#000; stroke-linecap:round; stroke-linejoin:round; stroke-width:3px;"/><path id="l" d="M41.6,190.43H4.23c-1.51,0-2.73-1.22-2.73-2.73,0-1.51,1.22-2.73,2.73-2.73h37.37c1.51,0,2.73,1.22,2.73,2.73,0,1.51-1.22,2.73-2.73,2.73h0Z" style="fill-rule:evenodd; stroke:#000; stroke-linecap:round; stroke-linejoin:round; stroke-width:3px;"/><path id="m" d="M145.1,244.35H6.73c-1.51,0-2.73-1.22-2.73-2.73v-53.92c0-1.51,1.22-2.73,2.73-2.73,1.51,0,2.73,1.22,2.73,2.73v51.19h135.64c1.51,0,2.73,1.22,2.73,2.73,0,1.51-1.22,2.73-2.73,2.73h0Z" style="fill-rule:evenodd; stroke:#000; stroke-linecap:round; stroke-linejoin:round; stroke-width:3px;"/><path id="n" d="M171.27,148.66c-26.85,0-48.69,21.84-48.69,48.69,0,26.85,21.84,48.69,48.69,48.69,26.85,0,48.69-21.84,48.69-48.69,0-26.84-21.84-48.69-48.69-48.69h0ZM171.27,251.5c-29.85,0-54.15-24.29-54.15-54.15,0-29.86,24.3-54.14,54.15-54.14,29.86,0,54.15,24.29,54.15,54.14,0,29.86-24.29,54.15-54.15,54.15Z" style="fill-rule:evenodd; stroke:#000; stroke-linecap:round; stroke-linejoin:round; stroke-width:3px;"/><path id="o" d="M164.35,221.65h13.85v-14.65c0-1.51,1.22-2.73,2.73-2.73h14.65v-13.85h-14.65c-1.51,0-2.73-1.22-2.73-2.73v-14.65s-13.85,0-13.85,0v14.65c0,1.51-1.22,2.73-2.73,2.73h-14.65s0,13.84,0,13.84h14.65c1.51,0,2.73,1.22,2.73,2.73v14.65ZM180.93,227.11h-19.31c-1.51,0-2.73-1.22-2.73-2.73v-14.65h-14.65c-1.51,0-2.73-1.22-2.73-2.73v-19.3c0-1.51,1.22-2.73,2.73-2.73h14.65v-14.65c0-1.51,1.22-2.73,2.73-2.73h19.31c1.51,0,2.73,1.22,2.73,2.73v14.65h14.65c1.51,0,2.73,1.22,2.73,2.73v19.3c0,1.51-1.22,2.73-2.73,2.73h-14.65s0,14.65,0,14.65c0,1.51-1.22,2.73-2.73,2.73Z" style="fill-rule:evenodd; stroke:#000; stroke-linecap:round; stroke-linejoin:round; stroke-width:3px;"/><path id="p" d="M184.93,6.96c-7.88,0-14.29,6.41-14.29,14.29,0,15.26,15.6,31.45,31.31,47.19,15.72-15.74,31.31-31.93,31.31-47.19,0-7.88-6.41-14.29-14.29-14.29-6.69,0-10.36,2.84-14.57,11.25-.47.93-1.41,1.51-2.44,1.51h0c-1.03,0-1.98-.59-2.44-1.51-4.21-8.42-7.89-11.25-14.58-11.25h0ZM201.95,75.03c-.7,0-1.39-.27-1.93-.8-17.12-17.13-34.84-34.84-34.84-52.99,0-10.89,8.86-19.75,19.75-19.75,8.36,0,13.2,3.81,17.02,9.88,3.83-6.07,8.66-9.88,17.02-9.88,10.89,0,19.75,8.86,19.75,19.75,0,18.15-17.71,35.86-34.83,52.99-.53.53-1.23.8-1.93.8h0Z" style="fill-rule:evenodd; stroke:#000; stroke-linecap:round; stroke-linejoin:round; stroke-width:3px;"/><path id="q" d="M240.69,50.79h-30.23c-.98,0-1.88-.52-2.37-1.36l-6.15-10.65-6.15,10.65c-.49.85-1.39,1.36-2.37,1.36h-30.22c-1.51,0-2.73-1.22-2.73-2.73,0-1.51,1.22-2.73,2.73-2.73h28.65s7.73-13.38,7.73-13.38c.48-.85,1.39-1.36,2.36-1.36.98,0,1.88.52,2.37,1.36l7.73,13.38h28.65c1.51,0,2.73,1.22,2.73,2.73,0,1.51-1.22,2.73-2.73,2.73h0Z" style="fill-rule:evenodd; stroke:#000; stroke-linecap:round; stroke-linejoin:round; stroke-width:3px;"/><path id="r" d="M219.64,113.31l8.4,13.14,8.4-13.14h-16.8ZM228.04,134.25c-.93,0-1.8-.47-2.3-1.26l-13.38-20.94c-.53-.84-.58-1.9-.09-2.78.48-.88,1.39-1.42,2.39-1.42h26.76c1,0,1.91.54,2.39,1.42.48.88.44,1.94-.1,2.78l-13.38,20.94c-.51.78-1.37,1.26-2.3,1.26h0Z" style="fill-rule:evenodd; stroke:#000; stroke-linecap:round; stroke-linejoin:round; stroke-width:3px;"/><path id="s" d="M235.16,113.31c-1.51,0-2.72-1.22-2.72-2.73v-36.87s-8.79,0-8.79,0v36.87c0,1.51-1.22,2.73-2.73,2.73-1.51,0-2.73-1.22-2.73-2.73v-39.6c0-1.51,1.22-2.73,2.73-2.73h14.25c1.51,0,2.73,1.22,2.73,2.73v39.6c0,1.51-1.22,2.73-2.73,2.73h0Z" style="fill-rule:evenodd; stroke:#000; stroke-linecap:round; stroke-linejoin:round; stroke-width:3px;"/><path id="t" d="M167.47,113.31l8.4,13.14,8.4-13.14h-16.79ZM175.86,134.25c-.93,0-1.8-.47-2.3-1.26l-13.38-20.94c-.54-.84-.58-1.9-.1-2.78.48-.88,1.4-1.42,2.39-1.42h26.76c1,0,1.92.54,2.39,1.42.48.88.44,1.94-.1,2.78l-13.38,20.94c-.5.78-1.37,1.26-2.3,1.26h0Z" style="fill-rule:evenodd; stroke:#000; stroke-linecap:round; stroke-linejoin:round; stroke-width:3px;"/><path id="u" d="M182.99,113.31c-1.51,0-2.73-1.22-2.73-2.73v-36.87s-8.8,0-8.8,0v36.87c0,1.51-1.22,2.73-2.73,2.73-1.51,0-2.73-1.22-2.73-2.73v-39.6c0-1.51,1.22-2.73,2.73-2.73h14.25c1.51,0,2.73,1.22,2.73,2.73v39.6c0,1.51-1.22,2.73-2.73,2.73Z" style="fill-rule:evenodd; stroke:#000; stroke-linecap:round; stroke-linejoin:round; stroke-width:3px;"/></g></svg>