<?xml version="1.0" encoding="UTF-8"?>
<svg id="Layer_1" data-name="Layer 1" xmlns="http://www.w3.org/2000/svg" viewBox="0 0 156.31 167.07">
  <path d="m72.78,0c46.14,0,83.54,37.4,83.54,83.54s-37.4,83.54-83.54,83.54V0Z" style="fill: #c79026; stroke-width: 0px;"/>
  <circle cx="78.16" cy="83.54" r="72.78" style="fill: #f5af32; stroke-width: 0px;"/>
  <g>
    <path d="m84.72,90.68v-5.92l1.01-.5c7.48-3.74,12.13-11.26,12.13-19.62,0-.27-.02-.53-.03-.79l10.3-6.87-11.7-3.9,1.79-10.73-10.73,1.79-3.9-11.7-6.87,10.3c-.26-.01-.52-.03-.79-.03h-5.98c-6.33,0-11.49,5.15-11.49,11.49,0,2.27,1.55,4.17,3.64,4.73-.23.57-.36,1.18-.36,1.83v1.3c0,.98-.29,1.92-.83,2.73l-1.58,2.37c-.57.86-.87,1.86-.87,2.89,0,1.98,1.1,3.77,2.88,4.66l.41.2v3.91c0,4.53,3.68,8.21,8.21,8.21h1.64v3.65c-12.63,3.5-21.34,14.88-21.34,28.1v15.85h55.81v-15.85c0-13.22-8.71-24.6-21.34-28.1h0Zm-6.57,13.26l4.79,3.99c-1.27,4.44-2.87,8.79-4.79,13.02-1.93-4.23-3.52-8.57-4.79-13.02l4.79-3.99Zm-7.39,6.78l-4.29-.54-1.81-12.67c.89-.61,1.81-1.19,2.78-1.69.72,5.06,1.82,10.04,3.32,14.9h0Zm1.13,3.45c.83,2.38,1.76,4.73,2.79,7.04l-4.86-2.43-.71-4.96,2.78.35Zm12.53,0l2.79-.35-.71,4.96-4.86,2.43c1.02-2.31,1.94-4.66,2.77-7.04Zm5.42-3.99l-4.29.54c1.5-4.86,2.61-9.83,3.32-14.9.97.5,1.89,1.08,2.78,1.69l-1.81,12.67Zm-4.1-15.71c-.44,3.36-1.06,6.69-1.86,9.96l-3.67-3.06,3.74-7.48c.61.17,1.21.36,1.8.58Zm-3.16-54.63l2.66,8,8.97-1.49-1.49,8.96,8,2.67-5.94,3.96-16.15-16.15,3.96-5.94Zm-12.64,6.15h5.41c.05.78.36,1.53.95,2.11l16.15,16.16c.57.57,1.31.87,2.07.93-.2,6.71-3.9,12.69-9.81,15.86v-4.69l3.72-2.79c1.78-1.34,2.84-3.46,2.84-5.69,0-3.81-3.01-6.93-6.77-7.11-.73-2.83-3.3-4.93-6.36-4.93h-14.77c-.91,0-1.64-.74-1.64-1.64,0-4.53,3.68-8.21,8.21-8.21h0Zm0,37.76c-2.14,0-3.94-1.38-4.62-3.28h4.23c2.89,0,5.49-1.61,6.78-4.19l-2.94-1.47c-.73,1.47-2.2,2.38-3.84,2.38h-4.54v-4.3l-2.22-1.11c-.65-.33-1.06-.99-1.06-1.72,0-.38.11-.75.32-1.07l1.58-2.37c.9-1.35,1.38-2.93,1.38-4.56v-1.3c0-.9.74-1.64,1.64-1.64h11.49c1.81,0,3.28,1.47,3.28,3.28v1.64h2.74c2.11,0,3.83,1.72,3.83,3.83,0,1.2-.57,2.34-1.53,3.06l-5.03,3.78v16.85l-3.28,6.56-3.28-6.56v-4.54h3.28v-3.28h-8.21Zm2.42,10.15l3.74,7.48-3.67,3.06c-.8-3.27-1.42-6.6-1.86-9.96.59-.21,1.19-.4,1.8-.58Zm-18.83,24.89c0-7.39,3.08-14.13,8.15-18.88l1.89,13.23,2.15.27,1.08,7.55,9.71,4.85v5.55h-13.13v-13.13h-3.28v13.13h-6.57v-12.57Zm49.25,12.57h-6.57v-13.13h-3.28v13.13h-13.13v-5.55l9.71-4.86,1.08-7.55,2.15-.27,1.89-13.23c5.07,4.76,8.15,11.49,8.15,18.88v12.57Z" style="stroke-width: 0px;"/>
    <path d="m27.27,134.63h19.7v-29.55h-19.7v29.55Zm3.28-26.26h13.13v22.98h-13.13v-22.98Z" style="stroke-width: 0px;"/>
    <path d="m115.91,59.12c7.24,0,13.13-5.89,13.13-13.13s-5.89-13.13-13.13-13.13-13.13,5.89-13.13,13.13,5.89,13.13,13.13,13.13Zm0-22.98c5.43,0,9.85,4.42,9.85,9.85s-4.42,9.85-9.85,9.85-9.85-4.42-9.85-9.85,4.42-9.85,9.85-9.85Z" style="stroke-width: 0px;"/>
    <path d="m123.64,43.87l-2.32-2.32-7.05,7.05-2.12-2.12-2.32,2.32,4.44,4.44,9.37-9.37Z" style="stroke-width: 0px;"/>
    <path d="m28.46,54.94l6.27,6.27,2.09-.98.79,2.17h8.87l.79-2.17,2.09.98,6.27-6.27-.98-2.09,2.17-.79v-8.87l-2.17-.79.98-2.09-6.27-6.27-2.09.98-.79-2.17h-8.87l-.79,2.17-2.09-.98-6.27,6.27.98,2.09-2.17.79v8.87l2.17.79-.98,2.09Zm2.09-9.44l1.35-.49.73-.33.7-1.69-.92-1.97,3.02-3.02,1.97.92,1.77-.73.74-2.05h4.26l.49,1.35.35.73,1.67.69,1.97-.92,3.02,3.02-.92,1.97.73,1.77,2.05.75v4.27l-1.35.49-.73.33-.7,1.69.92,1.97-3.02,3.02-1.97-.92-1.77.73-.75,2.05h-4.26l-.49-1.35-.35-.73-1.67-.69-1.97.92-3.02-3.02.92-1.97-.73-1.77-2.05-.75v-4.26Z" style="stroke-width: 0px;"/>
    <path d="m42.04,55.84c4.53,0,8.21-3.68,8.21-8.21s-3.68-8.21-8.21-8.21-8.21,3.68-8.21,8.21,3.68,8.21,8.21,8.21Zm0-13.13c2.72,0,4.92,2.21,4.92,4.92s-2.21,4.92-4.92,4.92-4.92-2.21-4.92-4.92,2.21-4.92,4.92-4.92Z" style="stroke-width: 0px;"/>
    <path d="m117.55,103.44c-2.72,0-4.92,2.21-4.92,4.92s2.21,4.92,4.92,4.92,4.92-2.21,4.92-4.92-2.21-4.92-4.92-4.92Zm0,6.57c-.91,0-1.64-.74-1.64-1.64s.74-1.64,1.64-1.64,1.64.74,1.64,1.64-.74,1.64-1.64,1.64Z" style="stroke-width: 0px;"/>
    <path d="m117.55,96.88c-6.33,0-11.49,5.15-11.49,11.49,0,3.89,1.95,7.34,4.92,9.42v14.99l6.57-4.38,6.57,4.38v-14.99c2.97-2.08,4.92-5.52,4.92-9.42,0-6.34-5.16-11.49-11.49-11.49Zm3.28,29.76l-3.28-2.19-3.28,2.19v-7.27c1.04.31,2.14.48,3.28.48s2.24-.17,3.28-.48v7.27Zm-3.28-10.06c-4.53,0-8.21-3.68-8.21-8.21s3.68-8.21,8.21-8.21,8.21,3.68,8.21,8.21-3.68,8.21-8.21,8.21Z" style="stroke-width: 0px;"/>
    <path d="m119.19,93.59v-6.57c0-2.72-2.21-4.92-4.92-4.92h-18.06v3.28h18.06c.91,0,1.64.74,1.64,1.64v6.57h3.28Z" style="stroke-width: 0px;"/>
    <path d="m117.55,73.9v-11.49h-3.28v11.49c0,.9-.74,1.64-1.64,1.64h-16.42v3.28h16.42c2.72,0,4.92-2.21,4.92-4.92Z" style="stroke-width: 0px;"/>
    <path d="m35.48,87.03v14.77h3.28v-14.77c0-.9.74-1.64,1.64-1.64h18.06v-3.28h-18.06c-2.72,0-4.92,2.21-4.92,4.92Z" style="stroke-width: 0px;"/>
    <path d="m58.46,75.54h-13.13c-.91,0-1.64-.74-1.64-1.64v-8.21h-3.28v8.21c0,2.72,2.21,4.92,4.92,4.92h13.13v-3.28Z" style="stroke-width: 0px;"/>
    <path d="m33.83,111.65h6.57v3.28h-6.57v-3.28Z" style="stroke-width: 0px;"/>
    <path d="m33.83,118.22h6.57v3.28h-6.57v-3.28Z" style="stroke-width: 0px;"/>
    <path d="m33.83,124.78h6.57v3.28h-6.57v-3.28Z" style="stroke-width: 0px;"/>
  </g>
</svg>