<?xml version="1.0" encoding="UTF-8"?><svg id="a" xmlns="http://www.w3.org/2000/svg" viewBox="0 0 250 250"><rect x="153.42" y="5.25" width="68.16" height="98.88" style="fill:#fdba33;"/><rect x="27.76" y="5.16" width="68.16" height="98.88" style="fill:#fdba33;"/><circle cx="62.5" cy="160.16" r="21.77" style="fill:#fdba33;"/><circle cx="187.5" cy="160.16" r="21.77" style="fill:#fdba33;"/><circle cx="125" cy="222.66" r="21.77" style="fill:#fdba33;"/><path d="M42.97,35.16h39.06c2.16,0,3.91-1.75,3.91-3.91s-1.75-3.91-3.91-3.91h-39.06c-2.16,0-3.91,1.75-3.91,3.91s1.75,3.91,3.91,3.91Z"/><path d="M42.97,50.78h39.06c2.16,0,3.91-1.75,3.91-3.91s-1.75-3.91-3.91-3.91h-39.06c-2.16,0-3.91,1.75-3.91,3.91s1.75,3.91,3.91,3.91Z"/><path d="M42.97,66.41h39.06c2.16,0,3.91-1.75,3.91-3.91s-1.75-3.91-3.91-3.91h-39.06c-2.16,0-3.91,1.75-3.91,3.91s1.75,3.91,3.91,3.91Z"/><path d="M85.94,78.12c0-2.16-1.75-3.91-3.91-3.91h-39.06c-2.16,0-3.91,1.75-3.91,3.91s1.75,3.91,3.91,3.91h39.06c2.16,0,3.91-1.75,3.91-3.91Z"/><path d="M167.97,35.16h39.06c2.16,0,3.91-1.75,3.91-3.91s-1.75-3.91-3.91-3.91h-39.06c-2.16,0-3.91,1.75-3.91,3.91s1.75,3.91,3.91,3.91Z"/><path d="M167.97,50.78h39.06c2.16,0,3.91-1.75,3.91-3.91s-1.75-3.91-3.91-3.91h-39.06c-2.16,0-3.91,1.75-3.91,3.91s1.75,3.91,3.91,3.91Z"/><path d="M167.97,66.41h39.06c2.16,0,3.91-1.75,3.91-3.91s-1.75-3.91-3.91-3.91h-39.06c-2.16,0-3.91,1.75-3.91,3.91s1.75,3.91,3.91,3.91Z"/><path d="M167.97,82.03h39.06c2.16,0,3.91-1.75,3.91-3.91s-1.75-3.91-3.91-3.91h-39.06c-2.16,0-3.91,1.75-3.91,3.91s1.75,3.91,3.91,3.91Z"/><path d="M246.09,156.25h-31.53c-1.72-11.96-11.2-21.44-23.15-23.15v-23.72h31.25c2.16,0,3.91-1.75,3.91-3.91V3.91c0-2.16-1.75-3.91-3.91-3.91h-70.31c-2.16,0-3.91,1.75-3.91,3.91v46.88h-46.88V3.91c0-2.16-1.75-3.91-3.91-3.91H27.34c-2.16,0-3.91,1.75-3.91,3.91v101.56c0,2.16,1.75,3.91,3.91,3.91h31.25v23.72c-11.96,1.72-21.44,11.2-23.15,23.15H3.91c-2.16,0-3.91,1.75-3.91,3.91s1.75,3.91,3.91,3.91h31.53c1.72,11.96,11.2,21.44,23.15,23.15v35.44c0,2.16,1.75,3.91,3.91,3.91h35.44c1.9,13.23,13.31,23.44,27.06,23.44s25.16-10.2,27.06-23.44h35.44c2.16,0,3.91-1.75,3.91-3.91v-35.44c11.96-1.72,21.44-11.2,23.15-23.15h31.53c2.16,0,3.91-1.75,3.91-3.91s-1.75-3.91-3.91-3.91ZM156.25,7.81h62.5v93.75h-62.5V7.81ZM152.34,109.38h31.25v23.72c-11.96,1.72-21.44,11.2-23.15,23.15h-31.53V58.59h19.53v46.88c0,2.16,1.75,3.91,3.91,3.91ZM31.25,7.81h62.5v93.75H31.25V7.81ZM97.66,109.38c2.16,0,3.91-1.75,3.91-3.91v-46.88h19.53v97.66h-31.53c-1.72-11.96-11.2-21.44-23.15-23.15v-23.72h31.25ZM42.97,160.16c0-10.77,8.76-19.53,19.53-19.53s19.53,8.76,19.53,19.53-8.76,19.53-19.53,19.53-19.53-8.76-19.53-19.53ZM125,242.19c-10.77,0-19.53-8.76-19.53-19.53s8.76-19.53,19.53-19.53,19.53,8.76,19.53,19.53-8.76,19.53-19.53,19.53ZM152.06,218.75c-1.9-13.23-13.31-23.44-27.06-23.44s-25.16,10.2-27.06,23.44h-31.53v-31.53c11.96-1.72,21.44-11.2,23.15-23.15h70.88c1.72,11.96,11.2,21.44,23.15,23.15v31.53h-31.53ZM187.5,179.69c-10.77,0-19.53-8.76-19.53-19.53s8.76-19.53,19.53-19.53,19.53,8.76,19.53,19.53-8.76,19.53-19.53,19.53Z"/><path d="M74.22,160.16c0-2.16-1.75-3.91-3.91-3.91h-15.62c-2.16,0-3.91,1.75-3.91,3.91s1.75,3.91,3.91,3.91h15.62c2.16,0,3.91-1.75,3.91-3.91Z"/><path d="M195.31,156.25h-15.62c-2.16,0-3.91,1.75-3.91,3.91s1.75,3.91,3.91,3.91h15.62c2.16,0,3.91-1.75,3.91-3.91s-1.75-3.91-3.91-3.91Z"/><path d="M132.81,218.75h-15.62c-2.16,0-3.91,1.75-3.91,3.91s1.75,3.91,3.91,3.91h15.62c2.16,0,3.91-1.75,3.91-3.91s-1.75-3.91-3.91-3.91Z"/></svg>