<?xml version="1.0" encoding="UTF-8"?><svg id="uuid-90bd9eed-a1a1-4f44-85d8-f0d00e2221da" xmlns="http://www.w3.org/2000/svg" viewBox="0 0 250 250"><ellipse cx="22.4" cy="218.49" rx="17.97" ry="16.67" style="fill:#f5af32; stroke-width:0px;"/><ellipse cx="227.6" cy="22.4" rx="17.97" ry="16.67" style="fill:#f5af32; stroke-width:0px;"/><path d="M157.29,156.51v28.65s-21.88,1.04-18.23,15.62c3.65,14.84,18.23,12.76,18.23,12.76v32.03h73.44s15.89-.26,16.15-24.22v-64.84h-32.55s2.86,17.19-13.8,15.62c-16.67-1.82-14.58-10.94-14.58-15.62h-28.65Z" style="fill:#f5af32; stroke-width:0px;"/><path d="M93.75,93.75h-31.25s4.43-17.45-15.36-17.45-11.46,17.45-11.46,17.45H4.43V20.31S.78,2.86,25,3.65h68.49v30.21s19.79-2.34,17.97,19.01c0,0-1.82,10.68-17.97,9.9v30.99h.26Z" style="fill:#f5af32; stroke-width:0px;"/><path d="M0,19.01v149.48c0,10.42,8.59,19.01,19.01,19.01h74.74c2.6,0,4.43-2.08,4.43-4.43v-31.25c0-2.34-2.08-4.43-4.43-4.43h-4.43c-4.95,0-8.85-3.91-8.85-8.85s3.91-8.85,8.85-8.85h4.43c2.6,0,4.43-2.08,4.43-4.43v-27.08h22.4c0,9.9,8.07,17.71,17.71,17.71s17.71-8.07,17.71-17.71h26.82c2.34,0,4.43-2.08,4.43-4.43V19.01c0-10.42-8.59-19.01-19.01-19.01H19.01C8.59,0,0,8.59,0,19.01ZM89.32,120.57c-9.9,0-17.71,8.07-17.71,17.71s7.81,17.97,17.71,17.97v22.4H19.01c-5.47,0-10.16-4.43-10.16-9.9v-70.31h26.82c2.6,0,4.43-2.08,4.43-4.43v-4.43c0-4.95,3.91-8.85,8.85-8.85s8.85,3.91,8.85,8.85v4.17c0,2.34,2.08,4.43,4.43,4.43h26.82l.26,22.4h0ZM98.18,8.85h70.31c5.47,0,9.9,4.43,9.9,9.9v70.31h-26.56c-2.34,0-4.43,2.08-4.43,4.43v4.43c0,4.95-3.91,8.85-8.85,8.85s-8.85-3.91-8.85-8.85v-4.17c0-2.34-2.08-4.43-4.43-4.43h-27.08v-22.4c9.9,0,17.71-8.07,17.71-17.97s-7.81-17.71-17.71-17.71V8.85h0ZM93.75,40.1h4.43c4.95,0,8.85,3.91,8.85,8.85s-3.91,8.85-8.85,8.85h-4.43c-2.6,0-4.43,2.08-4.43,4.43v26.82h-22.4c0-9.9-8.07-17.71-17.71-17.71s-17.71,8.07-17.71,17.71H9.11V18.75c0-5.47,4.43-9.9,9.9-9.9h70.31v26.82c0,2.6,2.08,4.43,4.43,4.43h0Z" style="fill:#000; stroke-width:0px;"/><path d="M156.25,250h74.74c10.42,0,19.01-8.59,19.01-19.01v-74.74c0-2.34-2.08-4.43-4.43-4.43h-31.25c-2.34,0-4.43,2.08-4.43,4.43v4.43c0,4.95-3.91,8.85-8.85,8.85s-8.85-3.91-8.85-8.85v-4.43c0-2.34-2.08-4.43-4.43-4.43h-31.25c-2.34,0-4.43,2.08-4.43,4.43v26.82c-9.9,0-17.71,8.07-17.71,17.71s7.55,17.97,17.45,17.97v26.82c0,2.34,2.08,4.17,4.43,4.43h0ZM142.97,200.78c0-4.95,3.91-8.85,8.85-8.85h4.43c2.34,0,4.43-2.08,4.43-4.43v-26.82h22.4c0,9.9,8.07,17.71,17.71,17.71s17.71-8.07,17.71-17.71h22.4v70.31c0,5.47-4.43,10.16-9.9,10.16h-70.31v-27.08c0-2.34-2.08-4.43-4.43-4.43h-4.43c-4.95,0-8.85-3.91-8.85-8.85h0Z" style="fill:#000; stroke-width:0px;"/><path d="M22.4,240.89c10.68,0,19.79-7.55,21.87-17.97h20.31l7.55,11.46c.78,1.3,2.08,2.08,3.65,2.08h66.93v-8.85h-64.32l-7.55-11.46c-.78-1.3-2.08-2.08-3.65-2.08h-22.66c-2.6-11.98-14.32-19.79-26.3-17.45-11.98,2.34-20.05,14.32-17.71,26.56,2.08,10.42,11.2,17.71,21.88,17.71h0ZM22.4,205.21c7.29,0,13.28,5.99,13.28,13.28s-5.99,13.28-13.28,13.28-13.28-5.73-13.28-13.02,5.99-13.54,13.28-13.54Z" style="fill:#000; stroke-width:0px;"/><path d="M205.21,227.6h8.85v8.85h-8.85v-8.85Z" style="fill:#000; stroke-width:0px;"/><path d="M223.18,227.6h8.85v8.85h-8.85v-8.85Z" style="fill:#000; stroke-width:0px;"/><path d="M227.6,0c-12.24,0-22.4,9.9-22.4,22.4,0,10.68,7.55,19.79,17.97,21.87v20.31l-11.46,7.55c-1.3.78-2.08,2.08-2.08,3.65v66.93h8.85v-64.32l11.46-7.55c1.3-.78,2.08-2.08,2.08-3.65v-22.92c11.98-2.34,19.79-14.32,17.45-26.3-2.08-10.42-11.2-17.97-21.88-17.97h0ZM227.6,35.68c-7.29,0-13.28-5.99-13.28-13.28s5.99-13.28,13.28-13.28,13.28,5.99,13.28,13.28-5.73,13.28-13.28,13.28Z" style="fill:#000; stroke-width:0px;"/><path d="M169.53,227.6h8.85v8.85h-8.85v-8.85Z" style="fill:#000; stroke-width:0px;"/><path d="M187.5,227.6h8.85v8.85h-8.85v-8.85Z" style="fill:#000; stroke-width:0px;"/><path d="M53.65,165.1h8.85v8.85h-8.85v-8.85Z" style="fill:#000; stroke-width:0px;"/><path d="M71.35,165.1h8.85v8.85h-8.85v-8.85Z" style="fill:#000; stroke-width:0px;"/><path d="M17.97,165.1h8.85v8.85h-8.85v-8.85Z" style="fill:#000; stroke-width:0px;"/><path d="M35.68,165.1h8.85v8.85h-8.85v-8.85Z" style="fill:#000; stroke-width:0px;"/><path d="M35.68,13.28h8.85v8.85h-8.85v-8.85Z" style="fill:#000; stroke-width:0px;"/><path d="M17.97,13.28h8.85v8.85h-8.85c0,.26,0-8.85,0-8.85Z" style="fill:#000; stroke-width:0px;"/><path d="M71.35,13.28h8.85v8.85h-8.85v-8.85Z" style="fill:#000; stroke-width:0px;"/><path d="M53.65,13.28h8.85v8.85h-8.85v-8.85Z" style="fill:#000; stroke-width:0px;"/><path d="M125,13.28h8.85v8.85h-8.85v-8.85Z" style="fill:#000; stroke-width:0px;"/><path d="M107.29,13.28h8.85v8.85h-8.85v-8.85Z" style="fill:#000; stroke-width:0px;"/><path d="M160.68,13.28h8.85v8.85h-8.85v-8.85Z" style="fill:#000; stroke-width:0px;"/><path d="M142.97,13.28h8.85v8.85h-8.85v-8.85Z" style="fill:#000; stroke-width:0px;"/></svg>