<?xml version="1.0" encoding="UTF-8"?>
<svg id="Layer_1" data-name="Layer 1" xmlns="http://www.w3.org/2000/svg" version="1.1" viewBox="0 0 512 512">
  <defs>
    <style>
      .cls-1 {
        fill: #000;
      }

      .cls-1, .cls-2 {
        stroke-width: 0px;
      }

      .cls-2 {
        fill: #fdba33;
      }
    </style>
  </defs>
  <path class="cls-1" d="M343.6,64.1l-55.8-55.8c-1.5-1.5-3.5-2.3-5.5-2.3h-108.3c-4.3,0-7.8,3.5-7.8,7.8v208.2c0,4.3,3.5,7.8,7.8,7.8h164.1c4.3,0,7.8-3.5,7.8-7.8V69.6c0-2.1-.8-4.1-2.3-5.5ZM289.6,32.3l30,30h-30v-30ZM330.3,214.2h-148.5V21.6h92.2v48.4c0,4.3,3.5,7.8,7.8,7.8h48.4v136.4Z"/>
  <path class="cls-1" d="M193.3,49.9c0-4.3,3.5-7.8,7.8-7.8h57.3c4.3,0,7.8,3.5,7.8,7.8s-3.5,7.8-7.8,7.8h-57.3c-4.3,0-7.8-3.5-7.8-7.8h0Z"/>
  <path class="cls-2" d="M193.3,77.1c0-4.3,3.5-7.8,7.8-7.8h57.3c4.3,0,7.8,3.5,7.8,7.8s-3.5,7.8-7.8,7.8h-57.3c-4.3,0-7.8-3.5-7.8-7.8h0Z"/>
  <path class="cls-1" d="M318.7,104.3c0,4.3-3.5,7.8-7.8,7.8h-109.8c-4.3,0-7.8-3.5-7.8-7.8s3.5-7.8,7.8-7.8h109.8c4.3,0,7.8,3.5,7.8,7.8Z"/>
  <path class="cls-2" d="M318.7,131.5c0,4.3-3.5,7.8-7.8,7.8h-109.8c-4.3,0-7.8-3.5-7.8-7.8s3.5-7.8,7.8-7.8h109.8c4.3,0,7.8,3.5,7.8,7.8Z"/>
  <path class="cls-1" d="M318.7,158.7c0,4.3-3.5,7.8-7.8,7.8h-109.8c-4.3,0-7.8-3.5-7.8-7.8s3.5-7.8,7.8-7.8h109.8c4.3,0,7.8,3.5,7.8,7.8Z"/>
  <path class="cls-2" d="M318.7,186c0,4.3-3.5,7.8-7.8,7.8h-109.8c-4.3,0-7.8-3.5-7.8-7.8s3.5-7.8,7.8-7.8h109.8c4.3,0,7.8,3.5,7.8,7.8Z"/>
  <path class="cls-1" d="M364.5,363.6l-25-3.2c-.9-2.5-1.9-4.9-3-7.3l15.4-19.9c2.4-3.1,2.1-7.5-.7-10.3l-27.4-27.4c-2.8-2.8-7.2-3.1-10.3-.7l-19.9,15.4c-2.4-1.1-4.8-2.1-7.3-3l-3.2-25c-.5-3.9-3.8-6.8-7.8-6.8h-38.7c-3.9,0-7.2,2.9-7.8,6.8l-3.2,25c-2.5.9-4.9,1.9-7.3,3l-19.9-15.4c-3.1-2.4-7.5-2.1-10.3.7l-27.4,27.4c-2.8,2.8-3.1,7.2-.7,10.3l15.4,19.9c-1.1,2.4-2.1,4.8-3,7.3l-25,3.2c-3.9.5-6.8,3.8-6.8,7.8v38.7c0,3.9,2.9,7.2,6.8,7.8l25,3.2c.9,2.5,1.9,4.9,3,7.3l-15.4,19.9c-2.4,3.1-2.1,7.5.7,10.3l27.4,27.4c2.8,2.8,7.2,3.1,10.3.7l19.9-15.4c2.4,1.1,4.8,2.1,7.3,3l3.2,25c.5,3.9,3.8,6.8,7.8,6.8h38.7c3.9,0,7.2-2.9,7.8-6.8l3.2-25c2.5-.9,4.9-1.9,7.3-3l19.9,15.4c3.1,2.4,7.5,2.1,10.3-.7l27.4-27.4c2.8-2.8,3.1-7.2.7-10.3l-15.4-19.9c1.1-2.4,2.1-4.8,3-7.3l25-3.2c3.9-.5,6.8-3.8,6.8-7.8v-38.7c0-3.9-2.9-7.2-6.8-7.8ZM355.7,403.2l-23.1,3c-3.1.4-5.6,2.6-6.5,5.5-1.4,4.8-3.4,9.5-5.7,13.8-1.5,2.7-1.2,6.1.7,8.5l14.2,18.4-17.6,17.6-18.4-14.2c-2.4-1.9-5.8-2.2-8.5-.7-4.4,2.4-9,4.3-13.8,5.7-3,.9-5.1,3.4-5.5,6.5l-2.9,23.1h-25l-3-23.1c-.4-3.1-2.6-5.6-5.5-6.5-4.8-1.4-9.5-3.4-13.8-5.7-2.7-1.5-6.1-1.2-8.5.7l-18.4,14.2-17.6-17.6,14.2-18.4c1.9-2.4,2.2-5.8.7-8.5-2.4-4.4-4.3-9-5.7-13.8-.9-3-3.4-5.1-6.5-5.5l-23.1-3v-25l23.1-3c3.1-.4,5.6-2.6,6.5-5.5,1.4-4.8,3.4-9.5,5.7-13.8,1.5-2.7,1.2-6.1-.7-8.5h0s-14.2-18.4-14.2-18.4l17.6-17.6,18.4,14.2c2.4,1.9,5.8,2.2,8.5.7,4.4-2.4,9-4.3,13.8-5.7,3-.9,5.1-3.4,5.5-6.5l3-23.1h25l3,23.1c.4,3.1,2.6,5.6,5.5,6.5,4.8,1.4,9.5,3.4,13.8,5.7,2.7,1.5,6,1.2,8.5-.7l18.4-14.2,17.6,17.6-14.2,18.4c-1.9,2.4-2.2,5.8-.7,8.5,2.4,4.4,4.3,9,5.7,13.8.9,3,3.4,5.1,6.5,5.5l23.1,3v25Z"/>
  <path class="cls-2" d="M256,336.2c-30.1,0-54.5,24.5-54.5,54.5s24.5,54.5,54.5,54.5,54.5-24.5,54.5-54.5-24.5-54.5-54.5-54.5ZM256,429.6c-21.4,0-38.9-17.4-38.9-38.9s17.4-38.9,38.9-38.9,38.9,17.4,38.9,38.9-17.4,38.9-38.9,38.9Z"/>
  <path class="cls-1" d="M56.9,112h64.6l-20.2-15.3c-3.4-2.6-4.1-7.5-1.5-10.9,2.6-3.4,7.5-4.1,10.9-1.5l38.7,29.3c1.9,1.4,3,3.6,3.1,6s-1,4.6-2.8,6.2l-37,31.4c-1.5,1.2-3.3,1.9-5,1.9s-4.4-.9-6-2.8c-2.8-3.3-2.4-8.2.9-11l20.8-17.6h-58.7v55.5c0,4.3-3.5,7.8-7.8,7.8s-7.8-3.5-7.8-7.8v-63.3c0-4.3,3.5-7.8,7.8-7.8Z"/>
  <path class="cls-1" d="M49.1,391.2v-40.1l-15.3,20.2c-1.5,2-3.9,3.1-6.2,3.1s-3.3-.5-4.7-1.6c-3.4-2.6-4.1-7.5-1.5-10.9l29.3-38.6c1.4-1.9,3.6-3,6-3.1,2.4,0,4.6,1,6.2,2.8l31.4,37c2.8,3.3,2.4,8.2-.9,11-3.3,2.8-8.2,2.4-11-.9l-17.6-20.8v34.2h54.5c4.3,0,7.8,3.5,7.8,7.8s-3.5,7.8-7.8,7.8h-62.3c-4.3,0-7.8-3.5-7.8-7.8Z"/>
  <path class="cls-1" d="M462.9,119.9v40.8l16.6-19.6c2.8-3.3,7.7-3.7,11-.9s3.7,7.7.9,11l-31.4,37c-1.5,1.8-3.7,2.8-6,2.8s-.1,0-.2,0c-2.4,0-4.6-1.2-6-3.1l-29.3-38.7c-2.6-3.4-1.9-8.3,1.5-10.9,3.4-2.6,8.3-1.9,10.9,1.5l16.3,21.5v-33.6h-80c-4.3,0-7.8-3.5-7.8-7.8s3.5-7.8,7.8-7.8h87.8c4.3,0,7.8,3.5,7.8,7.8h0Z"/>
  <path class="cls-2" d="M498.2,247.7h-6.9c-1-4.4-2.7-8.5-5.1-12.2l4.9-4.9c3.1-3.1,3.1-8,0-11s-8-3.1-11,0l-4.9,4.9c-3.7-2.4-7.8-4.1-12.2-5.1v-6.9c0-4.3-3.5-7.8-7.8-7.8s-7.8,3.5-7.8,7.8v6.9c-4.4,1-8.5,2.7-12.2,5.1l-4.9-4.9c-3.1-3.1-8-3.1-11,0-3.1,3.1-3.1,8,0,11l4.9,4.9c-2.4,3.7-4.1,7.8-5.1,12.2h-6.9c-4.3,0-7.8,3.5-7.8,7.8s3.5,7.8,7.8,7.8h6.9c1,4.4,2.7,8.5,5.1,12.2l-4.9,4.9c-3.1,3.1-3.1,8,0,11,3.1,3,8,3.1,11,0l4.9-4.9c3.7,2.4,7.8,4.1,12.2,5.1v6.9c0,4.3,3.5,7.8,7.8,7.8s7.8-3.5,7.8-7.8v-6.9c4.4-1,8.5-2.7,12.2-5.1l4.9,4.9c3.1,3,8,3,11,0,3.1-3.1,3.1-8,0-11l-4.9-4.9c2.4-3.7,4.1-7.8,5.1-12.2h6.9c4.3,0,7.8-3.5,7.8-7.8s-3.5-7.8-7.8-7.8ZM455.1,276.8c-11.8,0-21.3-9.6-21.3-21.3s9.6-21.3,21.3-21.3,21.3,9.6,21.3,21.3-9.6,21.3-21.3,21.3Z"/>
  <path class="cls-2" d="M99.9,247.7h-6.9c-1-4.4-2.7-8.5-5.1-12.2l4.9-4.9c3.1-3.1,3.1-8,0-11-3.1-3.1-8-3.1-11,0l-4.9,4.9c-3.7-2.4-7.8-4.1-12.2-5.1v-6.9c0-4.3-3.5-7.8-7.8-7.8s-7.8,3.5-7.8,7.8v6.9c-4.4,1-8.5,2.7-12.2,5.1l-4.9-4.9c-3-3.1-8-3.1-11,0-3.1,3.1-3.1,8,0,11l4.9,4.9c-2.4,3.7-4.1,7.8-5.1,12.2h-6.9c-4.3,0-7.8,3.5-7.8,7.8s3.5,7.8,7.8,7.8h6.9c1,4.4,2.7,8.5,5.1,12.2l-4.9,4.9c-3.1,3.1-3.1,8,0,11,3.1,3,8,3,11,0l4.9-4.9c3.7,2.4,7.8,4.1,12.2,5.1v6.9c0,4.3,3.5,7.8,7.8,7.8s7.8-3.5,7.8-7.8v-6.9c4.4-1,8.5-2.7,12.2-5.1l4.9,4.9c3.1,3.1,8,3.1,11,0,3.1-3.1,3.1-8,0-11l-4.9-4.9c2.4-3.7,4.1-7.8,5.1-12.2h6.9c4.3,0,7.8-3.5,7.8-7.8s-3.5-7.8-7.8-7.8ZM56.9,276.8c-11.8,0-21.3-9.6-21.3-21.3s9.6-21.3,21.3-21.3,21.3,9.6,21.3,21.3-9.6,21.3-21.3,21.3Z"/>
  <path class="cls-1" d="M436.2,368l-20.2,15.3h31.3v-55.5c0-4.3,3.5-7.8,7.8-7.8s7.8,3.5,7.8,7.8v63.3c0,4.3-3.5,7.8-7.8,7.8h-41l20.8,17.6c3.3,2.8,3.7,7.7.9,11-1.5,1.8-3.7,2.8-6,2.8s-3.6-.6-5-1.9l-37-31.4c-1.8-1.5-2.8-3.8-2.8-6.2s1.2-4.6,3.1-6l38.6-29.3c3.4-2.6,8.3-1.9,10.9,1.5,2.6,3.4,1.9,8.3-1.5,10.9h0Z"/>
</svg>