<?xml version="1.0" encoding="UTF-8"?><svg id="a" xmlns="http://www.w3.org/2000/svg" viewBox="0 0 248 244.37"><rect x="151.91" y="45.4" width="57.73" height="21.69" style="fill:#fdba33;"/><rect x="151.41" y="45.4" width="57.73" height="21.69" transform="translate(124.03 236.53) rotate(-90)" style="fill:#fdba33;"/><polygon points="148.8 169.86 162.6 175.93 169.43 187.62 169.43 198.75 165.68 207.7 158.79 213.31 148.8 215.94 148.8 169.86" style="fill:#fdba33; fill-rule:evenodd;"/><polygon points="67.56 134.64 80.47 130.24 96.36 130.24 106.44 132.44 110.07 139.15 112.8 146.34 94.92 146.34 60.39 146.34 62.71 138.29 67.56 134.64" style="fill:#fdba33; fill-rule:evenodd;"/><circle cx="86.39" cy="103.87" r="8.67" style="fill:#fdba33;"/><polygon points="24.52 170.34 10.72 176.41 3.88 188.1 3.88 199.22 7.64 208.18 14.53 213.79 24.52 216.42 24.52 170.34" style="fill:#fdba33; fill-rule:evenodd;"/><rect x="40.77" y="181.55" width="93.51" height="26.16" style="fill:#fdba33;"/><path d="M62.99,192.48c-1.43-1.43-3.76-1.43-5.19,0-1.43,1.43-1.43,3.76,0,5.19,1.43,1.43,3.76,1.43,5.19,0,0,0,0,0,0,0,1.43-1.43,1.43-3.76,0-5.19ZM60.39,185.8c8.24,0,12.4,10.01,6.56,15.84s-15.84,1.68-15.84-6.56c0-5.12,4.15-9.28,9.28-9.28h0ZM115.4,192.48c-1.43-1.43-3.76-1.43-5.19,0-1.43,1.43-1.43,3.76,0,5.19s3.76,1.43,5.19,0c0,0,0,0,0,0,1.43-1.43,1.43-3.76,0-5.19ZM112.8,185.8c8.24,0,12.4,10.01,6.56,15.84s-15.84,1.68-15.84-6.56c0-5.13,4.16-9.28,9.28-9.28ZM90.93,99.54c-2.39-2.39-6.27-2.39-8.67,0s-2.39,6.27,0,8.67,6.27,2.39,8.67,0h0c2.39-2.4,2.39-6.27,0-8.67ZM118.24,149.26c15.62.05,28.26,12.7,28.31,28.31v31.37c-.05,15.62-12.7,28.26-28.31,28.31h-63.3c-15.62-.05-28.26-12.7-28.31-28.31v-31.37c.05-15.62,12.7-28.26,28.31-28.31h63.3ZM21.27,173.54c-8.2,1.6-14.13,8.77-14.15,17.12v5.42c.03,8.36,5.97,15.54,14.18,17.13-.18-1.41-.27-2.84-.27-4.26v-31.37c0-1.35.08-2.69.24-4.03h0ZM151.91,213.13c8.02-1.76,13.74-8.85,13.77-17.05v-5.42c-.02-8.2-5.73-15.28-13.74-17.05.15,1.31.23,2.63.23,3.96v31.37c0,1.4-.09,2.8-.26,4.19h0ZM126.42,181.55c3.31.01,5.99,2.69,6.01,6.01v14.15c-.01,3.31-2.69,5.99-6.01,6.01H46.77c-3.31-.01-5.99-2.7-6-6.01v-14.15c.01-3.31,2.69-5.99,6-6.01h79.64ZM46.77,175.93h79.64c6.41.01,11.6,5.21,11.62,11.62v14.15c-.01,6.41-5.21,11.6-11.62,11.62H46.77c-6.41-.01-11.6-5.21-11.62-11.62v-14.15c.02-6.41,5.21-11.6,11.62-11.62ZM110.07,143.65c-.96-4.12-3.84-9.01-8.1-9.01h-31.15c-4.26,0-7.15,4.89-8.1,9.01h47.36ZM57,143.65c1.31-7.3,6.29-14.62,13.82-14.62h12.97v-13.76c-6.3-1.56-10.14-7.94-8.58-14.24.51-2.07,1.58-3.96,3.08-5.46,7.38-7.38,20.04-2.12,20.04,8.3,0,5.4-3.69,10.11-8.93,11.4v13.76h12.57c7.53,0,12.51,7.32,13.82,14.62h2.46c14.94.04,28.11,9.82,32.47,24.11,11.68,1.29,20.54,11.15,20.57,22.9v5.42c-.04,11.78-8.93,21.65-20.64,22.9-4.44,14.17-17.55,23.84-32.4,23.88h-63.3c-14.83-.04-27.93-9.68-32.38-23.83-11.9-1.06-21.03-11.01-21.07-22.96v-5.42c.03-11.92,9.13-21.86,21-22.95,4.38-14.26,17.53-24.02,32.45-24.06h2.05ZM232.02,7.11h-103.48c-4.89.02-8.85,3.98-8.87,8.87v80.53c.02,4.89,3.98,8.85,8.87,8.87h26.32c1.55,0,2.81,1.26,2.81,2.81v14.42l18.35-10.6,10.64-6.14c.46-.31,1.01-.48,1.57-.48h43.79c4.89-.02,8.85-3.98,8.87-8.87V15.98c-.02-4.89-3.98-8.85-8.87-8.87h0ZM128.54,1.5c-7.99.02-14.46,6.49-14.48,14.48v80.53c.02,7.99,6.49,14.46,14.48,14.48h23.52v16.46h.01c0,1.54,1.26,2.79,2.8,2.79.49,0,.96-.13,1.38-.37l32.71-18.88h43.05c7.99-.02,14.46-6.49,14.48-14.48V15.98c-.02-7.99-6.49-14.46-14.48-14.48h-103.48ZM186.98,30.38v16.37c0,1.55,1.26,2.81,2.81,2.81h16.37v13.39h-16.37c-1.55,0-2.81,1.26-2.81,2.81v16.36h-13.39v-16.37c0-1.55-1.26-2.81-2.81-2.81h-16.37v-13.39h16.37c1.55,0,2.81-1.26,2.81-2.81v-16.37h13.39ZM170.78,24.77h19c1.55,0,2.81,1.26,2.81,2.81v16.37h16.37c1.55,0,2.81,1.26,2.81,2.81v19c0,1.55-1.26,2.81-2.81,2.81h-16.37v16.37c0,1.55-1.26,2.81-2.81,2.81h-19c-1.55,0-2.81-1.26-2.81-2.81h0v-16.37h-16.37c-1.55,0-2.81-1.26-2.81-2.81h0v-19c0-1.55,1.26-2.81,2.81-2.81h16.37v-16.37c0-1.55,1.26-2.8,2.81-2.81Z" style="fill-rule:evenodd; stroke:#000; stroke-miterlimit:10; stroke-width:3px;"/></svg>