<?xml version="1.0" encoding="UTF-8"?><svg id="uuid-3b8fa9ec-5d8c-42ff-bd7b-317200ec0779" xmlns="http://www.w3.org/2000/svg" viewBox="0 0 250 250"><polygon points="116.67 228.13 167.97 228.13 166.67 245.31 118.23 245.31 114.06 235.68 116.67 228.13" style="fill:#f5af32; stroke-width:0px;"/><polygon points="218.23 229.17 170.83 229.17 185.42 178.39 231.25 178.39 218.23 229.17" style="fill:#f5af32; stroke-width:0px;"/><rect x="2.86" y="178.39" width="43.23" height="66.93" style="fill:#f5af32; stroke-width:0px;"/><polygon points="142.97 103.13 108.33 138.8 108.33 103.91 86.2 103.91 86.2 2.34 247.4 2.34 245.31 103.91 142.97 103.13" style="fill:#f5af32; stroke-width:0px;"/><path d="M45.83,250H4.17c-2.34,0-4.17-1.82-4.17-4.17h0v-66.67c0-2.34,1.82-4.17,4.17-4.17h41.67c2.34,0,4.17,1.82,4.17,4.17h0v66.67c0,2.34-1.82,4.17-4.17,4.17h0ZM8.33,241.67h33.33v-58.33H8.33v58.33Z" style="fill:#000; stroke-width:0px;"/><path d="M16.67,187.5h16.67v8.33h-16.67s0-8.33,0-8.33Z" style="fill:#000; stroke-width:0px;"/><circle cx="25" cy="233.33" r="4.17" style="fill:#000; stroke-width:0px;"/><circle cx="66.67" cy="233.33" r="4.17" style="fill:#000; stroke-width:0px;"/><path d="M162.5,200v8.33h-37.5v8.33h-8.33v-8.33h-4.17v-8.33h50Z" style="fill:#000; stroke-width:0px;"/><path d="M187.5,116.67h8.33v50h-8.33v-50Z" style="fill:#000; stroke-width:0px;"/><path d="M20.83,166.67h-8.33v-66.67c0-11.46,9.37-20.83,20.83-20.83h41.67v8.33h-41.67c-7.03,0-12.5,5.73-12.5,12.5,0,0,0,66.67,0,66.67Z" style="fill:#000; stroke-width:0px;"/><path d="M112.5,183.33h54.17v8.33h-54.17v-8.33Z" style="fill:#000; stroke-width:0px;"/><path d="M248.7,185.42c1.04-4.43-1.56-8.85-5.99-10.16-.52-.26-1.3-.26-2.08-.26h-54.17c-3.91,0-7.29,2.6-8.07,6.25l-10.42,41.67c-.26.52-.26,1.3-.26,2.08h-46.87c-7.03,0-12.5,5.73-12.5,12.5s5.73,12.5,12.5,12.5h108.33c7.03,0,12.5-5.47,12.5-12.5,0-3.39-1.56-6.77-3.91-9.11.26-.52.26-.78.52-1.3l10.42-41.67h0ZM163.28,241.67h-42.45c-2.34,0-4.17-1.82-4.17-4.17s1.82-4.17,4.17-4.17h42.45c-1.04,2.6-1.04,5.73,0,8.33ZM186.46,183.33h37.24l-10.42,41.67h-37.24l10.42-41.67ZM229.17,241.67h-54.17c-2.34,0-4.17-1.82-4.17-4.17s1.82-4.17,4.17-4.17h54.17c2.34,0,4.17,1.82,4.17,4.17s-1.82,4.17-4.17,4.17ZM229.95,225h-8.07l9.9-39.58c.26-.52.26-1.3.26-2.08h8.33l-10.42,41.67h0Z" style="fill:#000; stroke-width:0px;"/><path d="M108.33,141.67c-2.34,0-4.17-1.82-4.17-4.17v-29.17h-16.67c-2.34,0-4.17-1.82-4.17-4.17h0V4.17c0-2.34,1.82-4.17,4.17-4.17h158.33c2.34,0,4.17,1.82,4.17,4.17h0v100c0,2.34-1.82,4.17-4.17,4.17h-102.34l-32.29,32.03c-.78.78-1.82,1.3-2.86,1.3h0ZM91.67,100h16.67c2.34,0,4.17,1.82,4.17,4.17h0v23.18l26.3-26.3c.78-.78,1.82-1.3,2.86-1.3h100V8.33H91.67v91.67Z" style="fill:#000; stroke-width:0px;"/><path d="M116.67,16.67h16.67v8.33h-16.67v-8.33Z" style="fill:#000; stroke-width:0px;"/><path d="M141.67,16.67h25v8.33h-25s0-8.33,0-8.33Z" style="fill:#000; stroke-width:0px;"/><path d="M175,16.67h58.33v8.33h-58.33v-8.33Z" style="fill:#000; stroke-width:0px;"/><path d="M100,33.33h50v8.33h-50v-8.33Z" style="fill:#000; stroke-width:0px;"/><path d="M158.33,33.33h41.67v8.33h-41.67v-8.33Z" style="fill:#000; stroke-width:0px;"/><path d="M208.33,33.33h25v8.33h-25v-8.33Z" style="fill:#000; stroke-width:0px;"/><path d="M175,50h58.33v8.33h-58.33v-8.33Z" style="fill:#000; stroke-width:0px;"/><path d="M125,50h41.67v8.33h-41.67v-8.33Z" style="fill:#000; stroke-width:0px;"/><path d="M100,50h16.67v8.33h-16.67v-8.33Z" style="fill:#000; stroke-width:0px;"/><path d="M100,66.67h33.33v8.33h-33.33v-8.33Z" style="fill:#000; stroke-width:0px;"/><path d="M141.67,66.67h16.67v8.33h-16.67s0-8.33,0-8.33Z" style="fill:#000; stroke-width:0px;"/><path d="M166.67,66.67h66.67v8.33h-66.67v-8.33Z" style="fill:#000; stroke-width:0px;"/><path d="M100,83.33h25v8.33h-25s0-8.33,0-8.33Z" style="fill:#000; stroke-width:0px;"/><path d="M133.33,83.33h50v8.33h-50v-8.33Z" style="fill:#000; stroke-width:0px;"/><path d="M100,250h-41.67v-8.33h37.5v-87.5h-58.33v12.5h-8.33v-16.67c0-2.34,1.82-4.17,4.17-4.17h66.67c2.34,0,4.17,1.82,4.17,4.17h0v95.83c0,2.34-1.82,4.17-4.17,4.17h0Z" style="fill:#000; stroke-width:0px;"/><path d="M58.33,158.33h16.67v8.33h-16.67s0-8.33,0-8.33Z" style="fill:#000; stroke-width:0px;"/></svg>