<?xml version="1.0" encoding="UTF-8"?><svg id="uuid-e3dd045c-7537-489d-8652-835b9b52eeb3" xmlns="http://www.w3.org/2000/svg" viewBox="0 0 249.03 250"><polygon points="85.42 158.3 92.99 192.73 98.13 192.73 102.32 216.54 122.27 225.23 111.16 195.79 100.55 151.38 85.42 158.3" style="fill:#f5af32; stroke-width:0px;"/><polygon points="146.56 148.97 136.74 196.27 127.57 225.23 148.01 216.54 151.38 195.79 157.5 190.96 162.48 156.21 146.56 148.97" style="fill:#f5af32; stroke-width:0px;"/><path d="M208.82,207.05l-.64,31.37,13.84-8.53,12.23,9.81-.16-33.94c-.16.16-10.62,7.72-25.26,1.29Z" style="fill:#f5af32; stroke-width:0px;"/><path d="M220.24,160.23c-13.67,0-24.61,11.1-24.61,24.94s11.1,24.94,24.61,24.94,24.61-11.1,24.61-24.94-10.94-24.94-24.61-24.94ZM221.04,194.34c-4.5,0-8.2-3.54-8.2-8.04s3.7-8.04,8.2-8.04,8.2,3.54,8.2,8.04-3.7,8.04-8.2,8.04Z" style="fill:#f5af32; stroke-width:0px;"/><rect x="5.79" y="182.92" width="36.84" height="62.58" style="fill:#f5af32; stroke-width:0px;"/><path d="M68.37,30.08l-6.76-3.54,2.09-8.2-8.85-9.97-9.01,1.93-2.25-4.99h-16.89l-2.09,6.11-6.27-3.06-10.46,11.26,2.41,6.76-6.44,3.38-.64,14.16,4.67,3.06-1.61,4.83,12.39,13.35,6.44-2.9,2.73,7.08,16.57,1.13,2.41-8.04,6.27,2.73,11.1-12.23-2.73-5.63,6.27-1.61.64-15.6ZM36.36,52.77c-8.37,0-15.12-7.08-15.12-15.77s6.76-15.77,15.12-15.77,15.12,7.08,15.12,15.77-6.92,15.77-15.12,15.77Z" style="fill:#f5af32; stroke-width:0px;"/><polygon points="119.21 32.18 165.38 76.74 187.26 62.1 164.41 54.38 168.6 28.96 144.63 32.01 136.1 8.37 119.21 32.18" style="fill:#f5af32; stroke-width:0px;"/><ellipse cx="217.34" cy="33.46" rx="28.8" ry="28.64" style="fill:#f5af32; stroke-width:0px;"/><path d="M140.44,142.54v-14.48l2.41-1.29c18.34-9.17,29.6-27.51,29.6-47.94v-1.93l25.26-16.73-28.64-9.49,4.34-26.22-26.22,4.34L137.71,0l-16.73,25.26h-16.57c-15.44,0-28.15,12.55-28.15,28.15,0,5.63,3.86,10.14,8.85,11.58-.48,1.45-.8,2.9-.8,4.5v3.22c0,2.41-.64,4.67-2.09,6.76l-3.86,5.79c-1.45,2.09-2.09,4.5-2.09,7.08,0,4.83,2.73,9.17,7.08,11.42l.97.48v9.49c0,11.1,9.01,20.11,20.11,20.11h4.02v9.01c-30.89,8.2-52.28,36.04-52.28,68.37v38.77h136.58v-38.77c0-32.34-21.24-60.17-52.28-68.69h0ZM124.36,175.03l11.74,9.81c-3.06,10.94-7.08,21.56-11.74,31.85-4.67-10.3-8.69-20.91-11.74-31.85.16-.16,11.74-9.81,11.74-9.81ZM106.34,191.6l-10.46-1.29-4.5-31.05c2.25-1.45,4.5-2.9,6.76-4.18,1.93,12.39,4.5,24.61,8.2,36.52h0ZM109.07,199.97c2.09,5.79,4.34,11.58,6.76,17.21l-11.9-5.95-1.77-12.07,6.92.8ZM139.8,199.97l6.76-.8-1.77,12.07-11.9,5.95c2.57-5.63,4.83-11.42,6.92-17.21h0ZM152.99,190.32l-10.46,1.29c3.7-11.9,6.44-23.97,8.04-36.52,2.41,1.29,4.67,2.57,6.76,4.18l-4.34,31.05ZM143.02,151.87c-1.13,8.2-2.57,16.41-4.5,24.29l-9.01-7.56,9.17-18.18c1.45.32,2.9.8,4.34,1.45h0ZM135.3,18.18l6.44,19.63,21.88-3.7-3.7,21.88,19.63,6.6-14.48,9.65-39.41-39.58,9.65-14.48h0ZM104.41,33.14h13.19c.16,1.93.8,3.7,2.25,5.15l39.58,39.58c1.45,1.45,3.22,2.09,4.99,2.25-.48,16.41-9.49,31.05-23.97,38.77v-11.42l9.17-6.76c4.34-3.22,6.92-8.53,6.92-14,0-9.33-7.4-16.89-16.57-17.37-1.77-6.92-8.04-12.07-15.6-12.07h-36.04c-2.25,0-4.02-1.77-4.02-4.02,0-11.1,9.01-20.11,20.11-20.11h0ZM104.41,125.64c-5.31,0-9.65-3.38-11.26-8.04h10.3c7.08,0,13.35-3.86,16.57-10.3l-7.24-3.54c-1.77,3.54-5.31,5.79-9.33,5.79h-11.1v-10.46l-5.47-2.73c-1.61-.8-2.57-2.41-2.57-4.18,0-.97.32-1.77.8-2.57l3.86-5.79c2.25-3.38,3.38-7.24,3.38-11.1v-3.22c0-2.25,1.77-4.02,4.02-4.02h28.15c4.5,0,8.04,3.54,8.04,8.04v4.02h6.76c5.15,0,9.33,4.18,9.33,9.33,0,2.9-1.45,5.79-3.7,7.56l-12.23,9.17v41.18l-8.04,16.09-8.04-16.09v-11.1h8.04v-8.04h-20.27ZM110.2,150.42l9.17,18.34-9.01,7.56c-1.93-8.04-3.54-16.09-4.5-24.29,1.45-.64,2.9-1.13,4.34-1.61h0ZM64.19,211.23c0-18.02,7.56-34.59,19.95-46.17l4.67,32.34,5.31.64,2.57,18.5,23.81,11.9v13.51h-32.18v-32.18h-8.04v32.18h-16.09c0,.16,0-30.73,0-30.73ZM184.68,242.12h-16.09v-32.18h-8.04v32.18h-32.18v-13.51l23.81-11.9,2.57-18.5,5.31-.64,4.67-32.34c12.39,11.58,19.95,28.15,19.95,46.17v30.73h0Z" style="fill:#000; stroke-width:0px;"/><path d="M0,250h48.26v-72.23H0s0,72.23,0,72.23ZM8.04,185.81h32.18v56.15H8.04s0-56.15,0-56.15Z" style="fill:#000; stroke-width:0px;"/><path d="M216.86,65.32c17.7,0,32.18-14.48,32.18-32.18S234.56.97,216.86.97s-32.18,14.48-32.18,32.18,14.48,32.18,32.18,32.18ZM216.86,9.17c13.35,0,24.13,10.78,24.13,24.13s-10.78,24.13-24.13,24.13-24.13-10.78-24.13-24.13,10.78-24.13,24.13-24.13Z" style="fill:#000; stroke-width:0px;"/><path d="M235.68,27.99l-5.63-5.63-17.21,17.21-5.15-5.15-5.63,5.63,10.94,10.94,22.68-23.01Z" style="fill:#000; stroke-width:0px;"/><path d="M2.9,55.18l15.28,15.28,5.15-2.41,1.93,5.31h21.72l1.93-5.31,5.15,2.41,15.28-15.28-2.41-5.15,5.31-1.93v-21.72l-5.31-1.93,2.41-5.15-15.28-15.28-5.15,2.41-1.93-5.31h-21.72l-1.93,5.31-5.15-2.41L2.9,19.31l2.41,5.15L0,26.38v21.72l5.31,1.93-2.41,5.15ZM8.04,32.01l3.22-1.13,1.77-.8,1.77-4.18-2.25-4.83,7.4-7.4,4.83,2.25,4.34-1.77,1.77-4.99h10.46l1.13,3.38.8,1.77,4.02,1.61,4.83-2.25,7.4,7.4-2.25,4.83,1.77,4.34,4.99,1.77v10.46l-3.38,1.13-1.77.8-1.45,4.18,2.25,4.83-7.4,7.4-4.83-2.25-4.34,1.77-1.77,4.99h-10.46l-1.13-3.38-.8-1.77-4.02-1.61-4.83,2.25-7.56-7.4,2.25-4.83-1.77-4.34-4.99-1.77v-10.46h0Z" style="fill:#000; stroke-width:0px;"/><path d="M36.04,57.27c11.1,0,20.11-9.01,20.11-20.11s-9.01-20.11-20.11-20.11-20.11,9.01-20.11,20.11,9.17,20.11,20.11,20.11ZM36.04,25.26c6.6,0,12.07,5.47,12.07,12.07s-5.47,12.07-12.07,12.07-12.07-5.47-12.07-12.07,5.47-12.07,12.07-12.07Z" style="fill:#000; stroke-width:0px;"/><path d="M220.88,173.75c-6.6,0-12.07,5.47-12.07,12.07s5.47,12.07,12.07,12.07,12.07-5.47,12.07-12.07-5.47-12.07-12.07-12.07ZM220.88,189.83c-2.25,0-4.02-1.77-4.02-4.02s1.77-4.02,4.02-4.02,4.02,1.77,4.02,4.02-1.93,4.02-4.02,4.02Z" style="fill:#000; stroke-width:0px;"/><path d="M220.88,157.66c-15.44,0-28.15,12.55-28.15,28.15,0,9.49,4.83,18.02,12.07,23.01v36.68l16.09-10.78,16.09,10.78v-36.68c7.24-5.15,12.07-13.51,12.07-23.01-.16-15.44-12.71-28.15-28.15-28.15ZM228.76,230.53l-8.04-5.31-8.04,5.31v-17.86c2.57.8,5.31,1.13,8.04,1.13s5.47-.48,8.04-1.13v17.86ZM220.88,205.92c-11.1,0-20.11-9.01-20.11-20.11s9.01-20.11,20.11-20.11,20.11,9.01,20.11,20.11c-.16,11.1-9.17,20.11-20.11,20.11Z" style="fill:#000; stroke-width:0px;"/><path d="M224.9,149.61v-16.09c0-6.6-5.47-12.07-12.07-12.07h-44.24v8.04h44.24c2.25,0,4.02,1.77,4.02,4.02v16.09h8.04Z" style="fill:#000; stroke-width:0px;"/><path d="M220.88,101.51v-28.15h-8.04v28.15c0,2.25-1.77,4.02-4.02,4.02h-40.22v8.04h40.22c6.6,0,12.07-5.47,12.07-12.07Z" style="fill:#000; stroke-width:0px;"/><path d="M20.11,133.53v36.2h8.04v-36.2c0-2.25,1.77-4.02,4.02-4.02h44.24v-8.04h-44.4c-6.6.16-11.9,5.47-11.9,12.07Z" style="fill:#000; stroke-width:0px;"/><path d="M76.25,105.53h-32.18c-2.25,0-4.02-1.77-4.02-4.02v-20.11h-8.04v20.11c0,6.6,5.47,12.07,12.07,12.07h32.18v-8.04Z" style="fill:#000; stroke-width:0px;"/><path d="M16.09,193.85h16.09v8.04h-16.09s0-8.04,0-8.04Z" style="fill:#000; stroke-width:0px;"/><path d="M16.09,209.94h16.09v8.04h-16.09s0-8.04,0-8.04Z" style="fill:#000; stroke-width:0px;"/><path d="M16.09,226.03h16.09v8.04h-16.09s0-8.04,0-8.04Z" style="fill:#000; stroke-width:0px;"/></svg>