<?xml version="1.0" encoding="UTF-8"?><svg id="uuid-b8e10a14-f4ea-4e5e-81a4-7f6ddd2d08e4" xmlns="http://www.w3.org/2000/svg" viewBox="0 0 228.7 250"><polygon points="28.04 183.41 28.04 245.8 91.03 245.8 91.03 183.41 84.73 182.66 61.04 198.71 37.64 182.66 28.04 183.41" style="fill:#f5af32; stroke-width:0px;"/><path d="M137.67,183.41v59.24h-23.25v-37.64s7.65-21,23.25-21.6Z" style="fill:#f5af32; stroke-width:0px;"/><path d="M200.66,183.41v62.39h24v-40.64s-8.25-21.15-24-21.75Z" style="fill:#f5af32; stroke-width:0px;"/><path d="M76.78,24.6h76.33s-6.6-19.5-30.74-19.5h-23.85s-16.95,2.85-21.75,19.5Z" style="fill:#f5af32; stroke-width:0px;"/><path d="M21.3,124.03h76.33s-6.6-19.5-30.74-19.5h-23.7s-17.1,2.85-21.9,19.5Z" style="fill:#f5af32; stroke-width:0px;"/><path d="M130.92,124.03h76.33s-6.6-19.5-30.74-19.5h-23.85c.15,0-16.95,2.85-21.75,19.5Z" style="fill:#f5af32; stroke-width:0px;"/><path d="M101.23,193.01c-2.7,0-4.8-2.1-4.8-4.8h0c0-2.7,2.1-4.8,4.8-4.8s4.8,2.1,4.8,4.8-2.1,4.8-4.8,4.8Z" style="fill:#000; stroke-width:0px;"/><path d="M17.85,193.01c-2.7,0-4.8-2.1-4.8-4.8h0c0-2.7,2.1-4.8,4.8-4.8s4.8,2.1,4.8,4.8-2.25,4.8-4.8,4.8Z" style="fill:#000; stroke-width:0px;"/><path d="M210.86,193.01c-2.7,0-4.8-2.1-4.8-4.8h0c0-2.7,2.1-4.8,4.8-4.8s4.8,2.1,4.8,4.8-2.1,4.8-4.8,4.8Z" style="fill:#000; stroke-width:0px;"/><path d="M127.32,193.01c-2.7,0-4.8-2.1-4.8-4.8h0c0-2.7,2.1-4.8,4.8-4.8s4.8,2.1,4.8,4.8-2.1,4.8-4.8,4.8Z" style="fill:#000; stroke-width:0px;"/><path d="M91.33,169.47H27.74c-5.85,0-10.5-4.65-10.5-10.5v-19.2c-2.4-.3-4.35-2.25-4.35-4.8v-10.2c0-2.7,2.1-4.8,4.8-4.8h83.68c2.7,0,4.8,2.1,4.8,4.8v10.2c0,2.4-1.8,4.5-4.35,4.8v19.2c0,5.85-4.65,10.5-10.5,10.5h0ZM22.5,130.32c2.4.3,4.35,2.25,4.35,4.8v23.85c0,.45.45.9.9.9h63.74c.45,0,.9-.45.9-.9h0v-24c0-2.4,1.8-4.5,4.35-4.8v-.6H22.5v.75Z" style="fill:#000; stroke-width:0px;"/><path d="M98.38,129.57c-2.4,0-4.35-1.8-4.8-4.05-1.5-9.75-10.2-17.25-20.1-17.25h-27.89c-9.9,0-18.6,7.35-20.1,17.25-.45,2.55-2.85,4.5-5.4,4.05s-4.5-2.85-4.05-5.4c2.25-14.55,14.85-25.34,29.54-25.34h27.89c14.85,0,27.29,10.8,29.54,25.34.45,2.55-1.35,5.1-4.05,5.4h-.6Z" style="fill:#000; stroke-width:0px;"/><path d="M114.28,250H4.8c-2.7,0-4.8-2.1-4.8-4.8v-34.04c0-18.3,16.5-33.14,36.74-33.14h2.4c2.7,0,4.8,2.1,4.8,4.8s-2.1,4.8-4.8,4.8h-2.4c-15,0-27.14,10.65-27.14,23.55v29.24h100.03v-29.24c0-13.05-12.15-23.55-27.14-23.55h-2.4c-2.7,0-4.8-2.1-4.8-4.8s2.1-4.8,4.8-4.8h2.4c20.25,0,36.74,14.85,36.74,33.14v34.04c0,2.55-2.25,4.8-4.95,4.8h0Z" style="fill:#000; stroke-width:0px;"/><path d="M59.54,202.61h0c-5.7,0-13.8-5.7-24-16.65-1.2-1.2-2.1-2.25-2.85-18.15-.15-2.7,1.95-4.95,4.65-4.95,2.7-.15,4.95,1.95,4.95,4.65.15,4.8.6,10.65.9,12.75,8.7,9.15,14.55,12.75,16.2,12.9,1.8-.15,7.5-3.6,16.2-12.9.3-2.25.75-7.95.9-12.75.15-2.7,2.4-4.65,4.95-4.65s4.65,2.4,4.65,4.95c-.6,15.9-1.65,16.95-2.85,18.15-9.9,11.1-18,16.65-23.7,16.65h0Z" style="fill:#000; stroke-width:0px;"/><path d="M37.49,172.47c-1.2,0-2.4-.45-3.3-1.35-1.05-1.05-2.1-2.1-3-3.15-1.8-1.95-1.5-4.95.45-6.75s4.95-1.5,6.75.45c.75.9,1.65,1.8,2.55,2.55,1.95,1.8,1.95,4.95.15,6.75-1.05.9-2.25,1.5-3.6,1.5Z" style="fill:#000; stroke-width:0px;"/><path d="M81.58,172.47c-2.7,0-4.8-2.1-4.8-4.8,0-1.35.6-2.55,1.5-3.45.9-.9,1.65-1.65,2.55-2.55,1.8-1.95,4.8-2.25,6.75-.45s2.25,4.8.45,6.75c-1.05,1.05-1.95,2.25-3,3.15-1.05.75-2.25,1.35-3.45,1.35h0Z" style="fill:#000; stroke-width:0px;"/><path d="M91.03,250c-2.7,0-4.8-2.1-4.8-4.8v-61.34c0-2.7,2.1-4.8,4.8-4.8s4.8,2.1,4.8,4.8v61.34c0,2.55-2.1,4.8-4.8,4.8Z" style="fill:#000; stroke-width:0px;"/><path d="M28.04,250c-2.7,0-4.8-2.1-4.8-4.8v-61.34c0-2.7,2.1-4.8,4.8-4.8s4.8,2.1,4.8,4.8v61.34c0,2.55-2.25,4.8-4.8,4.8Z" style="fill:#000; stroke-width:0px;"/><path d="M200.96,169.47h-63.74c-5.85,0-10.5-4.65-10.5-10.5v-19.2c-2.4-.3-4.35-2.25-4.35-4.8v-10.2c0-2.7,2.1-4.8,4.8-4.8h83.68c2.7,0,4.8,2.1,4.8,4.8v10.2c0,2.4-1.8,4.5-4.35,4.8v19.2c.15,5.85-4.5,10.5-10.35,10.5h0ZM132.12,130.32c2.4.3,4.35,2.25,4.35,4.8v23.85c0,.45.45.9.9.9h63.74c.45,0,.9-.45.9-.9v-24c0-2.4,1.8-4.5,4.35-4.8v-.6h-74.24v.75h0Z" style="fill:#000; stroke-width:0px;"/><path d="M207.86,129.57c-2.4,0-4.35-1.8-4.8-4.05-1.5-9.75-10.2-17.25-20.1-17.25h-27.89c-9.9,0-18.6,7.35-20.1,17.25-.3,2.7-2.7,4.5-5.25,4.35-2.7-.3-4.5-2.7-4.35-5.25v-.45c2.25-14.55,14.85-25.34,29.54-25.34h28.19c14.85,0,27.29,10.8,29.54,25.34.45,2.55-1.35,5.1-4.05,5.4h-.75Z" style="fill:#000; stroke-width:0px;"/><path d="M223.91,250h-109.63c-2.7,0-4.8-2.1-4.8-4.8v-34.04c0-18.3,16.5-33.14,36.74-33.14h2.4c2.7,0,4.8,2.1,4.8,4.8s-2.1,4.8-4.8,4.8h-2.4c-15,0-27.14,10.65-27.14,23.55v29.24h100.03v-29.24c0-13.05-12.15-23.55-27.14-23.55h-2.4c-2.7,0-4.8-2.1-4.8-4.8s2.1-4.8,4.8-4.8h2.4c20.25,0,36.74,14.85,36.74,33.14v34.04c0,2.55-2.1,4.8-4.8,4.8h0Z" style="fill:#000; stroke-width:0px;"/><path d="M169.17,202.61h0c-5.7,0-13.8-5.7-24-16.65-1.2-1.2-2.1-2.25-2.85-18.15-.15-2.7,1.95-4.95,4.65-4.95,2.7-.15,4.95,1.95,4.95,4.65.15,4.8.6,10.65.9,12.75,8.7,9.15,14.55,12.75,16.2,12.9,1.8-.15,7.5-3.6,16.2-12.9.3-2.25.75-7.95.9-12.75.15-2.7,2.4-4.65,4.95-4.65s4.65,2.4,4.65,4.95c-.6,15.9-1.65,16.95-2.85,18.15-9.9,11.1-18,16.65-23.7,16.65h0Z" style="fill:#000; stroke-width:0px;"/><path d="M147.12,172.47c-1.2,0-2.4-.45-3.3-1.35-1.05-1.05-2.1-2.1-3-3.15-1.65-2.1-1.5-5.1.6-6.75,1.95-1.65,4.95-1.5,6.6.45.75.9,1.65,1.8,2.55,2.55,1.95,1.8,1.95,4.95.15,6.75-1.05.9-2.25,1.5-3.6,1.5h0Z" style="fill:#000; stroke-width:0px;"/><path d="M191.06,172.47c-2.7,0-4.8-2.1-4.8-4.8,0-1.35.6-2.55,1.5-3.45.9-.9,1.65-1.65,2.55-2.55,1.8-1.95,4.8-2.25,6.75-.45s2.25,4.8.45,6.75c-1.05,1.05-1.95,2.25-3,3.15-.9.75-2.1,1.35-3.45,1.35h0Z" style="fill:#000; stroke-width:0px;"/><path d="M200.66,250c-2.7,0-4.8-2.1-4.8-4.8v-61.34c0-2.7,2.1-4.8,4.8-4.8s4.8,2.1,4.8,4.8v61.34c0,2.55-2.25,4.8-4.8,4.8Z" style="fill:#000; stroke-width:0px;"/><path d="M137.67,250c-2.7,0-4.8-2.1-4.8-4.8v-61.34c0-2.7,2.1-4.8,4.8-4.8s4.8,2.1,4.8,4.8v61.34c0,2.55-2.25,4.8-4.8,4.8Z" style="fill:#000; stroke-width:0px;"/><path d="M146.22,70.79h-63.74c-5.85,0-10.5-4.65-10.5-10.5v-19.2c-2.4-.3-4.35-2.25-4.35-4.8v-10.2c0-2.7,2.1-4.8,4.8-4.8h83.68c2.7,0,4.8,2.1,4.8,4.8v10.2c0,2.4-1.8,4.5-4.35,4.8v19.2c.15,5.85-4.65,10.5-10.35,10.5h0ZM77.23,31.64c2.4.3,4.35,2.25,4.35,4.8v23.85c0,.45.45.9.9.9h63.74c.45,0,.9-.45.9-.9v-24c0-2.4,1.8-4.5,4.35-4.8v-.6h-74.24v.75Z" style="fill:#000; stroke-width:0px;"/><path d="M153.12,30.89c-2.4,0-4.35-1.8-4.8-4.05-1.5-9.75-10.2-17.25-20.1-17.25h-27.74c-9.9,0-18.6,7.35-20.1,17.25-.45,2.55-2.85,4.5-5.4,4.05-2.55-.45-4.5-2.85-4.05-5.4,2.1-14.7,14.7-25.49,29.54-25.49h27.89c14.85,0,27.29,10.8,29.54,25.34.45,2.55-1.35,5.1-4.05,5.4h0c-.3.15-.45.15-.75.15h0Z" style="fill:#000; stroke-width:0px;"/><path d="M136.32,58.34h-43.94c-2.7,0-4.8-2.1-4.8-4.8v-15.6c0-2.7,2.1-4.8,4.8-4.8h44.09c2.7,0,4.8,2.1,4.8,4.8v15.75c-.15,2.55-2.25,4.65-4.95,4.65h0ZM97.18,48.74h34.49v-6h-34.49c0-.15,0,6,0,6Z" style="fill:#000; stroke-width:0px;"/><path d="M81.58,157.47h-44.09c-2.7,0-4.8-2.1-4.8-4.8v-15.75c0-2.7,2.1-4.8,4.8-4.8h44.09c2.7,0,4.8,2.1,4.8,4.8v15.75c0,2.7-2.25,4.8-4.8,4.8ZM42.29,147.87h34.49v-6.15h-34.49s0,6.15,0,6.15Z" style="fill:#000; stroke-width:0px;"/><path d="M191.06,157.47h-43.94c-2.7,0-4.8-2.1-4.8-4.8v-15.75c0-2.7,2.1-4.8,4.8-4.8h44.09c2.7,0,4.8,2.1,4.8,4.8v15.75c-.15,2.7-2.25,4.8-4.95,4.8ZM151.92,147.87h34.49v-6.15h-34.49v6.15Z" style="fill:#000; stroke-width:0px;"/><path d="M167.52,108.28c-1.95,0-3.75-1.2-4.5-3.15-1.8-4.65-5.1-8.7-9.6-11.7-2.7-1.8-5.7-3-8.7-3.75-2.4-.6-4.95-.9-7.5-.9h-2.4c-2.7,0-4.8-2.1-4.8-4.8s2.1-4.8,4.8-4.8h2.4c3.3,0,6.6.45,9.75,1.2,4.2,1.05,8.1,2.7,11.7,5.1,6.3,4.05,10.95,9.75,13.35,16.35.9,2.55-.3,5.25-2.85,6.15-.45.3-1.05.3-1.65.3h0Z" style="fill:#000; stroke-width:0px;"/><path d="M61.19,108.28c-2.7,0-4.8-2.1-4.8-4.8,0-.6.15-1.2.3-1.65,2.4-6.6,7.05-12.3,13.35-16.35,3.6-2.25,7.5-4.05,11.7-5.1,3.15-.75,6.45-1.2,9.75-1.2h2.4c2.7,0,4.8,2.1,4.8,4.8s-2.1,4.8-4.8,4.8h-2.4c-2.55,0-4.95.3-7.5.9-3.15.75-6,2.1-8.7,3.75-4.5,3-7.8,7.05-9.6,11.7-.75,1.95-2.55,3.15-4.5,3.15h0Z" style="fill:#000; stroke-width:0px;"/><path d="M114.28,103.93h0c-5.7,0-13.8-5.7-24-16.65-1.2-1.2-2.1-2.25-2.85-18.15-.15-2.7,1.95-4.95,4.65-4.95,2.7-.15,4.95,1.95,4.95,4.65.15,4.8.6,10.65.9,12.75,8.7,9.15,14.55,12.75,16.2,12.9,1.8-.15,7.5-3.6,16.2-12.9.3-2.25.75-7.95.9-12.75.15-2.7,2.4-4.65,4.95-4.65s4.65,2.4,4.65,4.95c-.6,15.9-1.65,16.95-2.85,18.15-9.9,11.1-18,16.65-23.7,16.65h0Z" style="fill:#000; stroke-width:0px;"/><path d="M92.38,73.79c-1.2,0-2.4-.45-3.3-1.35-1.05-1.05-2.1-2.1-3-3.15-1.8-1.95-1.5-4.95.45-6.75s4.95-1.5,6.75.45c.75.9,1.65,1.8,2.55,2.55,1.95,1.8,1.95,4.95.15,6.75-1.05.9-2.4,1.5-3.6,1.5h0Z" style="fill:#000; stroke-width:0px;"/><path d="M136.32,73.79c-2.7,0-4.8-2.1-4.8-4.8,0-1.35.6-2.55,1.5-3.45s1.65-1.65,2.55-2.55c1.8-1.95,4.8-2.25,6.75-.45s2.25,4.8.45,6.75c-1.05,1.05-1.95,2.25-3,3.15-.9.75-2.1,1.35-3.45,1.35Z" style="fill:#000; stroke-width:0px;"/><path d="M155.97,94.33c-2.7,0-4.8-2.1-4.8-4.8h0c0-2.7,2.1-4.8,4.8-4.8s4.8,2.1,4.8,4.8-2.1,4.8-4.8,4.8Z" style="fill:#000; stroke-width:0px;"/><path d="M145.77,110.08c-2.7,0-4.8-2.1-4.8-4.8v-20.25c0-2.7,2.1-4.8,4.8-4.8s4.8,2.1,4.8,4.8v20.25c0,2.7-2.1,4.8-4.8,4.8Z" style="fill:#000; stroke-width:0px;"/><path d="M82.78,110.08c-2.7,0-4.8-2.1-4.8-4.8v-20.25c0-2.7,2.1-4.8,4.8-4.8s4.8,2.1,4.8,4.8v20.25c0,2.7-2.1,4.8-4.8,4.8Z" style="fill:#000; stroke-width:0px;"/><path d="M72.59,94.33c-2.7,0-4.8-2.1-4.8-4.8h0c0-2.7,2.1-4.8,4.8-4.8s4.8,2.1,4.8,4.8-2.1,4.8-4.8,4.8Z" style="fill:#000; stroke-width:0px;"/></svg>