<?xml version="1.0" encoding="UTF-8"?><svg id="uuid-ab7df149-2a39-4ae9-9950-38d882edb192" xmlns="http://www.w3.org/2000/svg" viewBox="0 0 249.85 250"><path d="M83.14,70.74s26.06,3.7,44.02-1.41c0,0,27.65,7.4,42.09,1.41,0,0-10.57,16.2-3.35,34.69,7.04,18.49,32.22,52.83.53,68.15-31.7,15.32-34.69,4.75-41.21,14.09,0,0-9.51-7.57-26.24-8.63s-38.04-15.14-27.12-41.03,13.74-39.27,11.27-52.83c-2.64-13.21,0-14.44,0-14.44Z" style="fill:#f5af32; stroke-width:0px;"/><path d="M124.88,210.2c-1.94,0-3.87-.7-5.46-1.94-2.47-2.11-9.51-6.16-29.23-9.51-16.38-2.82-29.23-11.97-36.1-25.71-8.1-16.02-7.22-36.27,2.64-55.47,15.14-29.94,1.76-42.26,1.06-42.79-.88-.88-1.58-2.11-1.58-3.35s.53-2.47,1.41-3.35l22.89-20.43c1.76-1.58,4.4-1.58,5.99.18,13.38,12.85,35.75-.53,36.1-.53,1.41-.88,3.17-.88,4.58,0,.18.18,22.72,13.38,36.1.53,1.76-1.58,4.4-1.58,5.99-.18l22.89,20.43c1.06.88,1.58,2.11,1.41,3.35,0,1.23-.53,2.47-1.58,3.35-.7.53-14.09,12.85,1.06,42.79,8.28,16.2,10.21,33.28,5.63,47.9-5.46,17.79-19.72,29.94-39.27,33.11-19.72,3.35-26.77,7.4-29.23,9.51-1.23,1.41-3.17,2.11-5.28,2.11h0ZM66.94,71.8c4.75,6.87,11.45,22.72-2.29,49.83-8.45,16.55-9.33,33.99-2.64,47.37,5.63,11.09,16.2,18.49,29.76,20.95,16.38,2.82,27.47,6.52,33.28,11.27,5.81-4.58,16.9-8.45,33.28-11.27,16.02-2.64,27.65-12.5,32.22-26.94,3.87-12.5,2.11-27.12-5.11-41.21-13.74-27.12-7.04-42.97-2.29-49.83l-16.73-14.97c-15.14,10.92-34.69,2.64-41.38-.7-6.69,3.35-26.24,11.8-41.38.7l-16.73,14.79h0Z" style="fill:#000; stroke-width:0px;"/><path d="M124.88,192.42c-.7,0-1.41-.18-1.94-.53-7.04-3.52-16.9-6.52-30.11-8.63-11.62-1.94-20.07-7.92-24.83-17.26-5.81-11.62-4.93-26.59,2.64-41.38,11.62-22.89,9.69-39.09,5.99-48.78-.7-1.76-.18-3.7,1.23-4.93l4.4-3.87c1.23-1.06,3.17-1.41,4.58-.88,13.91,5.63,28.7,1.23,36.27-1.94,1.06-.53,2.29-.53,3.52,0,7.57,3.17,22.36,7.75,36.27,1.94,1.58-.7,3.35-.35,4.58.88l4.4,3.87c1.41,1.23,1.94,3.17,1.23,4.93-3.7,9.69-5.63,25.89,5.99,48.78,6.34,12.5,7.92,25.36,4.58,36.27-3.7,12.15-13.38,20.07-26.94,22.36-13.03,2.29-23.07,5.11-30.11,8.63-.35.35-.88.53-1.76.53h0ZM85.96,75.67c3.52,11.45,4.58,29.41-7.4,53-6.16,12.15-7.04,24.3-2.64,33.28,3.35,6.69,9.69,11.09,18.31,12.5,12.85,2.11,22.89,4.93,30.64,8.63,7.75-3.52,17.79-6.34,30.64-8.63,10.21-1.76,17.08-7.4,19.9-16.2,2.64-8.63,1.23-19.02-4.05-29.58-11.97-23.6-10.92-41.38-7.4-53-15.14,4.93-30.29,1.06-38.92-2.47-8.8,3.35-23.77,7.4-38.74,2.29l-.35.18h0Z" style="fill:#000; stroke-width:0px;"/><path d="M145.48,37.11c-.88,0-1.94-.35-2.64-.88l-20.6-15.14c-1.23-.88-1.94-2.29-1.76-3.7s.88-2.82,2.11-3.7L143.19.65c2.11-1.23,4.93-.7,6.16,1.41s.7,4.93-1.41,6.16l-14.97,9.51,15.32,11.09c1.94,1.41,2.47,4.23.88,6.34-1.06,1.41-2.29,2.11-3.7,1.94h0Z" style="fill:#000; stroke-width:0px;"/><path d="M17.46,129.55c-1.58,0-2.99-.88-3.7-2.11L.73,107.01c-1.41-2.11-.7-4.93,1.41-6.16,2.11-1.23,4.93-.7,6.16,1.41l9.51,14.97,11.09-15.32c1.41-1.94,4.23-2.47,6.34-.88,1.94,1.41,2.47,4.23.88,6.34l-15.14,20.6c-.7.88-1.94,1.58-3.52,1.58h0Z" style="fill:#000; stroke-width:0px;"/><path d="M104.45,250c-1.41,0-2.99-.7-3.87-2.11-1.23-2.11-.7-4.93,1.41-6.16l14.97-9.51-15.32-11.09c-1.94-1.41-2.47-4.23-.88-6.34,1.41-1.94,4.23-2.47,6.34-.88l20.6,15.14c1.23.88,1.94,2.29,1.76,3.7s-.88,2.82-2.11,3.7l-20.6,12.85c-.7.53-1.41.7-2.29.7h0Z" style="fill:#000; stroke-width:0px;"/><path d="M245.32,150.16c-1.41,0-2.99-.7-3.87-2.11l-9.51-14.97-11.09,15.32c-1.41,1.94-4.23,2.47-6.34.88s-2.47-4.23-.88-6.34l15.14-20.6c.88-1.23,2.29-1.94,3.7-1.76,1.41,0,2.82.88,3.7,2.11l13.03,20.6c1.23,2.11.7,4.93-1.41,6.16-.7.35-1.58.7-2.47.7h0Z" style="fill:#000; stroke-width:0px;"/><path d="M124.88,236.97c-44.2,0-84.35-26.24-102.31-66.56-1.06-2.29,0-4.93,2.29-5.99s4.93,0,5.99,2.29c16.55,37.33,53.53,61.28,94.21,61.28,2.47,0,4.4,1.94,4.4,4.4s-2.11,4.58-4.58,4.58h0Z" style="fill:#000; stroke-width:0px;"/><path d="M163.97,229.57c-1.76,0-3.52-1.06-4.23-2.82-.88-2.29.18-4.93,2.47-5.81,39.8-15.5,65.51-53.18,65.51-95.97,0-2.47,1.94-4.4,4.4-4.4s4.4,1.94,4.4,4.4c0,46.49-28,87.34-71.14,104.25-.18.35-.88.35-1.41.35h0Z" style="fill:#000; stroke-width:0px;"/><path d="M225.78,92.75c-1.76,0-3.52-1.06-4.23-2.99-14.79-40.5-53.71-67.62-96.67-67.62-2.47,0-4.4-1.94-4.4-4.4s1.94-4.4,4.4-4.4c46.84,0,89.1,29.58,105.13,73.61.88,2.29-.35,4.93-2.64,5.81-.53-.18-1.06,0-1.58,0h0Z" style="fill:#000; stroke-width:0px;"/><path d="M17.46,129.55c-2.47,0-4.4-1.94-4.4-4.4,0-46.14,29.06-88.22,72.2-104.6,2.29-.88,4.93.35,5.81,2.64s-.35,4.93-2.64,5.81C48.63,43.97,22.04,82.54,22.04,125.15c0,2.47-2.11,4.4-4.58,4.4Z" style="fill:#000; stroke-width:0px;"/><path d="M145.48,125.33h-20.6c-2.47,0-4.4-1.94-4.4-4.4v-52.48c0-2.47,1.94-4.4,4.4-4.4s4.4,1.94,4.4,4.4v47.9h16.2c2.47,0,4.4,1.94,4.4,4.4s-1.94,4.58-4.4,4.58h0Z" style="fill:#000; stroke-width:0px;"/><path d="M124.88,191.19c-2.47,0-4.4-1.94-4.4-4.4v-61.46h-25.89c-2.47,0-4.4-1.94-4.4-4.4s1.94-4.4,4.4-4.4h30.46c2.47,0,4.4,1.94,4.4,4.4v65.86c0,2.47-2.11,4.4-4.58,4.4Z" style="fill:#000; stroke-width:0px;"/></svg>