<?xml version="1.0" encoding="UTF-8"?>
<svg id="Layer_1" data-name="Layer 1" xmlns="http://www.w3.org/2000/svg" viewBox="0 0 480 480">
  <path d="m371.66,169.18l9.02-6.04s71.24-5.2,89.58-55.64c0,0,9.17-31.8-7.64-37.61l-48.61,45.86s-45.55,3.97-33.63-31.8l48.61-50.75s-41.24-14.41-70.62,15.9c0,0-28.87,35.1-25.68,61.15l-6.42,17.73s32.56,10.7,45.4,41.2Z" style="fill: #f5af32; stroke-width: 0px;"/>
  <path d="m111.94,340.47l-24.15-38.07-23.39-6.31-15.59,31.98,17.89,21.56v24.04l-26.72,18.55,23.51,39.8,35.11-12.22,17.18,10.09v22.93l45.86,3.19v-29.79l29.35-12.38,16.97,12.84,11.46-14.68-64.66-23.85s-49.12,13.76-46.8-32.1l4-15.59Z" style="fill: #f5af32; stroke-width: 0px;"/>
  <polygon points="118.52 154.48 143.93 171.99 159.79 151.52 139.15 131.8 118.52 154.48" style="fill: #f5af32; stroke-width: 0px;"/>
  <rect x="225.87" y="99.24" width="28.39" height="25.22" style="fill: #f5af32; stroke-width: 0px;"/>
  <circle cx="241.6" cy="260.28" r="14.83" style="fill: #f5af32; stroke-width: 0px;"/>
  <g id="Outline">
    <g>
      <path d="m263.87,122.42v-18.23h15.99c4.42,0,8-3.58,8-8v-31.98c0-4.42-3.58-8-8-8H63.97c-4.42,0-8,3.58-8,8s3.58,8,8,8h207.9v15.99h-71.96c-4.42,0-8,3.58-8,8s3.58,8,8,8h15.99v18.15c-19.26,3.49-37.53,11.1-53.57,22.31l-18.39-18.55c-3.12-3.1-8.16-3.1-11.27,0l-22.63,22.55c-1.53,1.5-2.39,3.54-2.4,5.68,0,2.14.87,4.18,2.4,5.68l18.55,18.55c-9.2,13.22-15.97,27.98-19.99,43.58-1.44,4.17.77,8.73,4.95,10.17,4.17,1.44,8.73-.77,10.17-4.95.14-.4.24-.81.32-1.23,2.08-7.86,4.95-15.5,8.56-22.79l13.43,8c3.84,2.21,8.75.88,10.95-2.96,2.21-3.84.88-8.75-2.96-10.95l-13.51-8c8.67-13.02,19.84-24.2,32.86-32.86l8,13.51c2.21,3.84,7.11,5.17,10.95,2.96,3.84-2.21,5.17-7.11,2.96-10.95l-8-13.51c13.91-7.02,29.08-11.23,44.62-12.39v15.99c0,4.42,3.58,8,8,8s8-3.58,8-8v-15.59c15.59,1.02,30.84,5.09,44.86,11.99l-8,13.51c-2.21,3.84-.88,8.75,2.96,10.95,3.84,2.21,8.75.88,10.95-2.96l8-13.59c12.97,8.73,24.13,19.89,32.86,32.86l-13.59,8c-3.84,2.21-5.17,7.11-2.96,10.95,2.21,3.84,7.11,5.17,10.95,2.96l13.51-8c7.04,13.99,11.25,29.24,12.39,44.86h-15.99c-4.42,0-8,3.58-8,8s3.58,8,8,8h15.99c-1.02,15.59-5.09,30.84-11.99,44.86l-13.51-8c-3.84-2.21-8.75-.88-10.95,2.96-2.21,3.84-.88,8.75,2.96,10.95h0l13.59,8c-8.73,12.97-19.89,24.13-32.86,32.86l-8-13.59c-2.21-3.84-7.11-5.17-10.95-2.96-3.84,2.21-5.17,7.11-2.96,10.95l8,13.51c-14.12,7.09-29.5,11.3-45.26,12.39v-15.99c0-4.42-3.58-8-8-8s-8,3.58-8,8v15.99c-15.6-1.03-30.85-5.13-44.86-12.07l8-13.51c2.21-3.84.88-8.75-2.96-10.95-3.84-2.21-8.75-.88-10.95,2.96h0l-8,13.51c-13.02-8.67-24.2-19.84-32.86-32.86l13.51-8c3.84-2.21,5.17-7.11,2.96-10.95-2.21-3.84-7.11-5.17-10.95-2.96l-13.43,8c-3.61-7.29-6.47-14.93-8.56-22.79-.81-4.34-4.99-7.2-9.33-6.39-.12.02-.23.05-.35.07-4.26,1.13-6.79,5.49-5.68,9.76,18.55,72.75,92.56,116.68,165.31,98.13,72.75-18.55,116.68-92.56,98.13-165.31-13.19-51.72-55.43-90.94-107.99-100.26Zm-31.98-18.23h15.99v16.39c-2.64,0-5.28-.4-8-.4h-8v-15.99Zm-105.07,50.14l11.27-11.27,11.59,11.51c-3.98,3.56-7.74,7.35-11.27,11.35l-11.59-11.59Z" style="stroke-width: 0px;"/>
      <path d="m143.93,256.11c0-4.42-3.58-8-8-8h-55.97c-4.42,0-8,3.58-8,8s3.58,8,8,8h55.97c4.42,0,8-3.58,8-8Z" style="stroke-width: 0px;"/>
      <path d="m297.01,204.42c-3.83-3.86-10.07-3.89-13.93-.06-.02.02-.04.04-.06.06l-29.55,29.55c-7.98-3.77-17.23-3.77-25.22,0l-43.14-43.04c-3.54-4.13-9.76-4.61-13.89-1.07-4.13,3.54-4.61,9.76-1.07,13.89.33.39.69.74,1.07,1.07l43.04,43.04c-1.73,3.87-2.6,8.07-2.56,12.31,0,16.32,13.23,29.55,29.55,29.55s29.55-13.23,29.55-29.55c-.03-4.4-1.04-8.74-2.95-12.71l29.55-29.06c3.75-3.94,3.61-10.17-.33-13.93-.02-.02-.04-.04-.06-.06Zm-48.76,62.74c-3.83,3.86-10.07,3.89-13.93.06-.02-.02-.04-.04-.06-.06-3.86-3.83-3.89-10.07-.06-13.93.02-.02.04-.04.06-.06,3.83-3.86,10.07-3.89,13.93-.06.02.02.04.04.06.06h0c3.86,3.83,3.89,10.07.06,13.93-.02.02-.04.04-.06.06Z" style="stroke-width: 0px;"/>
      <path d="m221.97,407.4c-3.82-2.21-8.71-.91-10.93,2.91,0,.02-.02.03-.03.05l-4.32,7.52-17.43-9.84c-2.94-1.69-6.63-1.33-9.2.88-5.99,4.95-12.81,8.8-20.15,11.35-3.19,1.15-5.31,4.2-5.28,7.6v20.15h-31.98v-20.15c.02-3.42-2.13-6.47-5.36-7.6-6.34-2.21-12.28-5.42-17.59-9.52-2.56-1.99-6.06-2.24-8.88-.64l-23.99,13.75-15.99-27.67,21.75-12.15c3.06-1.78,4.59-5.36,3.76-8.8-1.19-4.98-1.78-10.08-1.76-15.19,0-3.91.35-7.82,1.04-11.67.45-3.2-1.06-6.35-3.84-8l-17.43-10.47,15.99-27.67,12.47,7.2c3.73,2.37,8.67,1.27,11.04-2.46,2.37-3.73,1.27-8.67-2.46-11.04-.19-.12-.38-.23-.58-.34l-19.43-11.19c-3.8-2.18-8.65-.9-10.87,2.88l-23.99,41.58c-2.18,3.8-.9,8.65,2.88,10.87l19.67,11.35c-.32,2.97-.48,5.96-.48,8.96,0,4.23.34,8.46,1.04,12.63l-23.99,13.67c-3.81,2.2-5.13,7.05-2.96,10.87l23.99,41.58c2.22,3.82,7.11,5.11,10.93,2.89,0,0,.01,0,.02-.01l26.31-15.11c3.91,2.58,8.03,4.83,12.31,6.72v22.71c0,4.42,3.58,8,8,8h47.98c4.42,0,8-3.58,8-8v-22.71c5.59-2.47,10.88-5.58,15.75-9.28l19.67,11.35c3.8,2.18,8.65.9,10.87-2.88l8.4-14.47c2.01-3.77.71-8.45-2.96-10.63Z" style="stroke-width: 0px;"/>
      <path d="m111.94,340.47c-4.07-1.7-8.76.22-10.46,4.29,0,0,0,.02-.01.03-1.93,4.86-2.91,10.04-2.88,15.27,0,22.08,17.9,39.98,39.98,39.98,5.52-.03,10.97-1.23,15.99-3.52,4.18-1.43,6.41-5.98,4.97-10.16-1.43-4.18-5.98-6.41-10.16-4.97-.45.15-.88.35-1.3.58-3,1.34-6.23,2.04-9.52,2.08-13.25,0-23.99-10.74-23.99-23.99-.02-3.13.61-6.23,1.84-9.12,1.67-4.09-.28-8.76-4.37-10.43-.04-.02-.07-.03-.11-.04Z" style="stroke-width: 0px;"/>
      <path d="m191.9,32h127.94c4.42,0,8-3.58,8-8s-3.58-8-8-8h-127.94c-4.42,0-8,3.58-8,8s3.58,8,8,8Z" style="stroke-width: 0px;"/>
      <path d="m8,240.12h55.97c4.42,0,8-3.58,8-8s-3.58-8-8-8H8c-4.42,0-8,3.58-8,8s3.58,8,8,8Z" style="stroke-width: 0px;"/>
      <path d="m39.98,184.15h31.98c4.42,0,8-3.58,8-8s-3.58-8-8-8h-31.98c-4.42,0-8,3.58-8,8s3.58,8,8,8Z" style="stroke-width: 0px;"/>
      <path d="m55.97,112.18h63.97c4.42,0,8-3.58,8-8s-3.58-8-8-8h-63.97c-4.42,0-8,3.58-8,8s3.58,8,8,8Z" style="stroke-width: 0px;"/>
      <path d="m63.97,464.01H8c-4.42,0-8,3.58-8,8s3.58,8,8,8h55.97c4.42,0,8-3.58,8-8s-3.58-8-8-8Z" style="stroke-width: 0px;"/>
      <path d="m8,288.1h23.99c4.42,0,8-3.58,8-8s-3.58-8-8-8H8c-4.42,0-8,3.58-8,8s3.58,8,8,8Z" style="stroke-width: 0px;"/>
      <path d="m399.8,216.13c-4.42,0-8,3.58-8,8s3.58,8,8,8h39.98c4.42,0,8-3.58,8-8s-3.58-8-8-8h-39.98Z" style="stroke-width: 0px;"/>
      <path d="m319.84,416.03h-63.97c-4.42,0-8,3.58-8,8s3.58,8,8,8h63.97c4.42,0,8-3.58,8-8s-3.58-8-8-8Z" style="stroke-width: 0px;"/>
      <path d="m287.86,448.02h-47.98c-4.42,0-8,3.58-8,8s3.58,8,8,8h47.98c4.42,0,8-3.58,8-8s-3.58-8-8-8Z" style="stroke-width: 0px;"/>
      <path d="m447.78,328.08h-63.97c-4.42,0-8,3.58-8,8s3.58,8,8,8h63.97c4.42,0,8-3.58,8-8s-3.58-8-8-8Z" style="stroke-width: 0px;"/>
      <path d="m431.79,376.05h-63.97c-4.42,0-8,3.58-8,8s3.58,8,8,8h63.97c4.42,0,8-3.58,8-8s-3.58-8-8-8Z" style="stroke-width: 0px;"/>
      <path d="m471.77,280.1h-55.97c-4.42,0-8,3.58-8,8s3.58,8,8,8h55.97c4.42,0,8-3.58,8-8s-3.58-8-8-8Z" style="stroke-width: 0px;"/>
      <path d="m327.36,112.18l-4.96,4.96c-3.14,3.11-3.16,8.17-.05,11.31.02.02.03.03.05.05,3.12,3.1,8.16,3.1,11.27,0l8-8c2.12-2.07,2.92-5.15,2.08-8-5.17-19.31.34-39.91,14.47-54.05l16.95-16.95c10.31-10.32,26.29-12.36,38.86-4.96l-33.18,33.26c-11.86,13.09-10.86,33.32,2.23,45.18,12.19,11.04,30.76,11.04,42.95,0l33.26-33.18c7.4,12.57,5.36,28.55-4.96,38.86l-16.95,16.95c-14.02,13.99-34.4,19.52-53.57,14.55-2.84-.84-5.92-.04-8,2.08l-8,8c-3.11,3.14-3.1,8.2.04,11.31,3.14,3.11,8.2,3.1,11.31-.04l4.96-4.96c23.53,4.69,47.85-2.66,64.85-19.59l16.95-16.95c18.75-18.73,18.76-49.1.04-67.85-.01-.01-.03-.03-.04-.04-3.12-3.1-8.16-3.1-11.27,0l-39.82,40.06c-6.25,6.25-16.38,6.25-22.63,0s-6.25-16.38,0-22.63h0l39.98-39.58c1.5-1.51,2.33-3.55,2.32-5.68,0-2.1-.84-4.11-2.32-5.6-18.73-18.75-49.1-18.76-67.85-.04-.01.01-.03.03-.04.04l-17.35,16.55c-16.96,17.02-24.31,41.37-19.59,64.93Z" style="stroke-width: 0px;"/>
    </g>
  </g>
</svg>