<?xml version="1.0" encoding="UTF-8"?><svg id="uuid-6f11bd8a-352e-466e-9535-b3a498e656e4" xmlns="http://www.w3.org/2000/svg" viewBox="0 0 233.1 250"><polygon points="86.2 28.12 105.87 22.43 117.24 3.38 127.07 21.67 147.05 26.28 134.91 40.87 136.75 63.15 117.39 54.86 96.8 64.38 99.57 42.26 86.2 28.12" style="fill:#f5af32; stroke-width:0px;"/><path d="M108.79,122.46l-2.15,7.68-19.98,6.91s-14.14-.15-12.45,27.97v53.93l7.07,1.69,8.14-2.92v31.96h53.63v-29.5s16.44,7.53,17.06-9.53v-51.48s2-20.74-13.98-24.43l-17.98-4.46-2.77-9.37c0,.31-7.68,6.15-16.59,1.54Z" style="fill:#f5af32; stroke-width:0px;"/><path d="M80.06,47.48h15.21l-1.84,15.83c-.15,1.38.46,2.61,1.54,3.38,1.08.77,2.46.92,3.69.31l17.98-8.14,17.98,8.14c.46.15,1.08.31,1.54.31.77,0,1.54-.15,2.15-.77,1.08-.77,1.69-2.15,1.54-3.38l-1.84-15.83h38.41c3.38,0,6.15,2.77,6.15,6.15v26.12c0,2,1.69,3.69,3.69,3.69s3.69-1.69,3.69-3.69v-25.97c0-7.38-5.99-13.37-13.37-13.37h-35.8l10.14-11.06c.92-.92,1.23-2.3.77-3.53s-1.54-2.15-2.77-2.46l-19.36-3.84L119.85,1.84c-.61-1.08-1.84-1.84-3.23-1.84s-2.61.77-3.23,1.84l-9.68,17.21-19.36,3.84c-1.23.31-2.3,1.23-2.77,2.46s-.15,2.61.77,3.53l10.14,11.06h-12.45c-2,0-3.69,1.69-3.69,3.69s1.69,3.84,3.69,3.84h0ZM106.79,25.97c1.08-.15,2-.92,2.46-1.84l7.38-13.06,7.38,13.06c.46.92,1.38,1.54,2.46,1.84l14.6,2.92-10.14,11.06c-.77.77-1.08,1.84-.92,2.92l1.69,14.9-13.52-6.15c-.46-.15-1.08-.31-1.54-.31s-1.08.15-1.54.31l-13.52,6.15,1.69-14.9c.15-1.08-.15-2.15-.92-2.92l-10.14-11.06,14.6-2.92Z" style="fill:#000; stroke-width:0px;"/><path d="M47.17,83.28c2,0,3.69-1.69,3.69-3.69v-25.97c0-3.38,2.77-6.15,6.15-6.15h6.15c2,0,3.69-1.69,3.69-3.69s-1.69-3.69-3.69-3.69h-6.15c-7.38,0-13.37,5.99-13.37,13.37v26.12c-.15,2,1.54,3.69,3.53,3.69Z" style="fill:#000; stroke-width:0px;"/><path d="M24.74,183.62c0-2-1.69-3.69-3.69-3.69s-3.69,1.69-3.69,3.69v50.25c0,1.23-.46,2.61-1.38,3.38s-2.15,1.38-3.38,1.38-2.61-.46-3.53-1.38c-.92-.92-1.38-2.15-1.38-3.53v-18.13c0-2-1.69-3.69-3.69-3.69s-3.69,1.69-3.69,3.69v18.13c0,3.23,1.23,6.3,3.69,8.6,2.3,2.3,5.38,3.53,8.6,3.53h.15c1.69,0,3.38-.31,4.76-1.08v1.23c0,2,1.69,3.69,3.69,3.69s3.69-1.69,3.69-3.69l-.15-62.38h0Z" style="fill:#000; stroke-width:0px;"/><path d="M47.17,231.41c-2,0-3.69,1.69-3.69,3.69v11.22c0,2,1.69,3.69,3.69,3.69s3.69-1.69,3.69-3.69v-11.22c0-2.15-1.69-3.69-3.69-3.69Z" style="fill:#000; stroke-width:0px;"/><path d="M229.26,220.5c-2,0-3.69,1.69-3.69,3.69v9.53c0,1.38-.46,2.61-1.38,3.53-.92.92-2.15,1.38-3.53,1.38-1.23,0-2.46-.46-3.38-1.38s-1.38-2.15-1.38-3.38v-50.25c0-2-1.69-3.69-3.69-3.69s-3.69,1.69-3.69,3.69v62.69c0,2,1.69,3.69,3.69,3.69s3.69-1.69,3.69-3.69v-1.23c1.54.61,3.07,1.08,4.76,1.08,3.23,0,6.3-1.23,8.76-3.53,2.3-2.3,3.69-5.38,3.69-8.6v-9.53c-.15-2.3-1.69-4-3.84-4h0Z" style="fill:#000; stroke-width:0px;"/><path d="M213.89,151.81l-13.83-2.46-.92-7.68c5.22-4.61,8.45-10.91,9.22-18.13l.46-5.22c.61-6.45-1.54-12.91-5.84-17.82-4.3-4.76-10.6-7.53-17.06-7.53h0c-6.45,0-12.75,2.77-17.06,7.53s-6.45,11.22-5.84,17.82l.46,5.22c.77,7.07,4,13.52,9.22,18.13l-.92,7.68-8.6,1.54c-1.38-9.83-8.91-17.82-18.9-19.67l-13.83-2.46-.92-7.68c5.22-4.61,8.45-11.06,9.22-18.13l.46-5.22c.61-6.45-1.54-12.91-5.84-17.82-4.3-4.76-10.6-7.53-17.06-7.53h0c-6.45,0-12.75,2.77-17.06,7.53-4.3,4.76-6.45,11.22-5.84,17.82l.46,5.22c.77,7.07,4,13.52,9.22,18.13l-.61,7.68-13.83,2.46c-9.99,1.84-17.52,9.83-18.9,19.67l-8.6-1.54-.92-7.68c5.22-4.61,8.45-11.06,9.22-18.13l.46-5.22c.61-6.45-1.54-12.91-5.84-17.82s-10.6-7.53-17.06-7.53h0c-6.45,0-12.75,2.77-17.06,7.53-4.3,4.92-6.45,11.37-5.84,17.82l.46,5.22c.77,7.07,4,13.52,9.22,18.13l-.92,7.68-13.83,2.46c-11.06,2-19.05,11.52-19.05,22.89v23.97c0,2,1.69,3.69,3.69,3.69s3.69-1.69,3.69-3.69v-23.97c0-7.68,5.53-14.29,13.06-15.67l16.44-2.92c1.54-.31,2.77-1.69,2.92-3.23l.77-6.76c2,.92,4.15,1.38,6.3,1.38s4.3-.46,6.3-1.38l.77,6.76c.15,1.54,1.38,2.92,2.92,3.23l12.29,2.3v87.89c0,2,1.69,3.69,3.69,3.69s3.69-1.69,3.69-3.69v-21.82c1.54.61,3.23,1.08,4.92,1.08s3.38-.31,4.92-1.08v21.82c0,2,1.69,3.69,3.69,3.69s3.69-1.69,3.69-3.69v-83.13c0-2-1.69-3.69-3.69-3.69s-3.69,1.69-3.69,3.69v50.25c0,2.61-2.15,4.92-4.92,4.92-1.23,0-2.61-.46-3.38-1.38-.92-.92-1.38-2.15-1.38-3.53v-59.16c0-7.68,5.53-14.29,13.06-15.67l16.44-2.92c1.54-.31,2.77-1.54,2.92-3.23l.77-6.76c2,.92,4.15,1.38,6.3,1.38s4.3-.46,6.3-1.38l.77,6.61c.15,1.54,1.38,2.92,2.92,3.23l16.44,2.92c7.53,1.38,13.06,7.99,13.06,15.67v15.52c0,2,1.69,3.69,3.69,3.69s3.69-1.69,3.69-3.69v-11.22l12.29-2.3c1.54-.31,2.77-1.54,2.92-3.23l.77-6.76c2,.92,4.15,1.38,6.3,1.38s4.3-.46,6.3-1.38l.77,6.76c.15,1.54,1.38,2.92,2.92,3.23l16.44,2.92c7.53,1.38,13.06,7.99,13.06,15.67v32.42c0,2,1.69,3.69,3.69,3.69s3.69-1.69,3.69-3.69v-32.42c0-11.22-7.99-20.9-19.05-22.89h.77ZM43.48,139.37c-6.45-3.23-10.76-9.37-11.37-16.44l-.46-5.22c-.46-4.46,1.08-8.76,4-12.14,3.07-3.38,7.07-5.22,11.68-5.22h0c4.46,0,8.6,1.84,11.68,5.22,2.92,3.23,4.46,7.68,4,12.14l-.46,5.22c-.77,7.22-4.92,13.37-11.37,16.44-2.61,1.08-5.38,1.08-7.68,0h0ZM112.94,118.78c-6.45-3.23-10.76-9.37-11.37-16.44l-.61-5.22c-.46-4.46,1.08-8.76,4-12.14,3.07-3.38,7.07-5.22,11.68-5.22h0c4.46,0,8.6,1.84,11.68,5.22,2.92,3.23,4.46,7.68,4,12.14l-.61,5.22c-.77,7.22-4.92,13.37-11.37,16.44-2.3,1.23-5.07,1.23-7.38,0h0ZM189.77,139.37c-2.3,1.08-5.07,1.08-7.38,0-6.45-3.23-10.76-9.37-11.37-16.44l-.46-5.22c-.46-4.46,1.08-8.76,4-12.14,3.07-3.38,7.22-5.22,11.68-5.22h0c4.46,0,8.6,1.84,11.68,5.22,2.92,3.23,4.46,7.68,4,12.14l-.46,5.22c-.92,7.07-5.22,13.21-11.68,16.44h0Z" style="fill:#000; stroke-width:0px;"/><path d="M186.08,231.41c-2,0-3.69,1.69-3.69,3.69v11.22c0,2,1.69,3.69,3.69,3.69s3.69-1.69,3.69-3.69v-11.22c-.15-2.15-1.69-3.69-3.69-3.69Z" style="fill:#000; stroke-width:0px;"/><path d="M159.96,183.01c-2,0-3.69,1.69-3.69,3.69v26.28c.15,2.77-2.15,5.22-4.92,5.22-2.61,0-4.92-2.15-4.92-4.92v-50.25c0-2-1.69-3.69-3.69-3.69s-3.69,1.69-3.69,3.69v83.13c0,2,1.69,3.69,3.69,3.69s3.69-1.69,3.69-3.69v-21.82c1.54.61,3.07,1.08,4.92,1.08,1.69,0,3.38-.31,4.92-1.08v21.82c0,2,1.69,3.69,3.69,3.69s3.69-1.69,3.69-3.69v-59.62c-.15-2-1.69-3.53-3.69-3.53h0Z" style="fill:#000; stroke-width:0px;"/><path d="M116.63,210.82c-2,0-3.69,1.69-3.69,3.69v31.81c0,2,1.69,3.69,3.69,3.69s3.69-1.69,3.69-3.69v-31.81c0-2-1.69-3.69-3.69-3.69Z" style="fill:#000; stroke-width:0px;"/></svg>