<?xml version="1.0" encoding="UTF-8"?><svg id="a" xmlns="http://www.w3.org/2000/svg" viewBox="0 0 246.7 253"><circle cx="71.74" cy="71.71" r="33.38" style="fill:#fdba33;"/><polygon points="211.32 63.03 243.58 97.38 226.74 104.96 226.74 247.26 195.39 247.26 196.04 101.05 179.92 95.75 211.32 63.03" style="fill:#fdba33;"/><rect x="83.37" y="159.27" width="29.73" height="88" style="fill:#fdba33;"/><path d="M122.56,89.19l9.71-.91c4.98-.47,8.82-4.26,9.34-9.23.52-5.03.51-10.13-.06-15.16-.56-4.97-4.42-8.74-9.41-9.17l-9.72-.83c-1.34-.12-2.44-.92-2.96-2.15s-.31-2.58.55-3.61l6.23-7.5c3.2-3.85,3.22-9.25.07-13.13-3.19-3.93-6.81-7.52-10.77-10.68-3.91-3.12-9.31-3.05-13.13.18l-7.45,6.29c-1.03.87-2.38,1.08-3.61.58-1.24-.51-2.05-1.61-2.17-2.94l-.9-9.71c-.47-4.98-4.26-8.82-9.23-9.34-5.03-.52-10.13-.51-15.16.06-4.97.56-8.74,4.43-9.17,9.41l-.83,9.72c-.12,1.34-.92,2.44-2.15,2.96s-2.58.31-3.61-.55l-7.5-6.23c-3.85-3.2-9.25-3.23-13.13-.07-3.93,3.19-7.52,6.81-10.68,10.77-3.12,3.91-3.05,9.31.18,13.13l6.29,7.45c.87,1.03,1.08,2.38.58,3.61-.51,1.24-1.61,2.05-2.94,2.17l-9.71.9c-4.98.47-8.82,4.26-9.33,9.23-.52,5.03-.51,10.13.06,15.16.56,4.97,4.42,8.74,9.41,9.17l9.72.83c1.34.12,2.44.92,2.96,2.15s.31,2.58-.55,3.61l-6.23,7.5c-3.2,3.85-3.23,9.25-.07,13.13,3.19,3.93,6.81,7.52,10.77,10.68,3.91,3.12,9.31,3.05,13.13-.18l7.45-6.29c1.03-.87,2.38-1.08,3.61-.58s2.05,1.61,2.17,2.94l.9,9.71c.47,4.98,4.26,8.82,9.23,9.33,2.43.25,4.87.38,7.31.38,2.62,0,5.25-.15,7.85-.44,4.97-.56,8.74-4.42,9.17-9.41l.83-9.72c.12-1.34.92-2.44,2.15-2.96s2.58-.31,3.61.55l7.5,6.23c3.85,3.2,9.25,3.22,13.13.07,3.93-3.19,7.52-6.81,10.68-10.77,3.12-3.91,3.05-9.31-.18-13.13l-6.29-7.45c-.87-1.03-1.08-2.38-.58-3.61.51-1.23,1.61-2.04,2.95-2.16h0ZM115.53,98.9l6.29,7.45c1.33,1.57,1.36,3.79.07,5.39-2.89,3.62-6.17,6.93-9.76,9.84-1.6,1.3-3.81,1.29-5.4-.03l-7.5-6.23c-2.77-2.3-6.55-2.87-9.86-1.48-3.31,1.39-5.56,4.48-5.86,8.07l-.83,9.72c-.18,2.05-1.72,3.64-3.77,3.87-4.6.51-9.26.53-13.85.05-2.05-.21-3.6-1.79-3.8-3.84l-.9-9.71c-.34-3.59-2.61-6.66-5.93-8.02-1.18-.49-2.42-.72-3.65-.72-2.23,0-4.43.78-6.21,2.28l-7.45,6.29c-1.57,1.33-3.79,1.36-5.39.08-3.62-2.89-6.93-6.17-9.84-9.76-1.3-1.6-1.29-3.81.03-5.4l6.23-7.5c2.3-2.77,2.87-6.55,1.48-9.86-1.39-3.31-4.48-5.56-8.07-5.86l-9.72-.83c-2.05-.18-3.64-1.72-3.87-3.77-.51-4.6-.53-9.26-.05-13.85.21-2.05,1.79-3.6,3.84-3.79l9.71-.9c3.59-.34,6.66-2.61,8.02-5.93,1.36-3.33.77-7.1-1.56-9.85l-6.29-7.45c-1.33-1.57-1.36-3.79-.08-5.39,2.89-3.62,6.17-6.93,9.76-9.84,1.6-1.3,3.81-1.29,5.39.03l7.5,6.23c2.77,2.3,6.55,2.87,9.86,1.48,3.31-1.39,5.56-4.48,5.86-8.07l.83-9.72c.18-2.05,1.72-3.64,3.77-3.87,4.6-.51,9.26-.53,13.85-.05,2.05.21,3.6,1.79,3.8,3.84l.9,9.71c.34,3.59,2.61,6.66,5.93,8.02,3.33,1.36,7.1.77,9.85-1.56l7.45-6.29c1.57-1.33,3.79-1.36,5.39-.08,3.62,2.89,6.93,6.17,9.84,9.76,1.3,1.6,1.29,3.81-.03,5.4l-6.23,7.5c-2.3,2.77-2.87,6.55-1.48,9.86,1.39,3.31,4.48,5.56,8.07,5.86l9.72.83c2.05.18,3.64,1.72,3.87,3.77.51,4.6.53,9.26.05,13.85-.21,2.05-1.79,3.6-3.84,3.79l-9.71.91c-3.59.34-6.66,2.61-8.02,5.93-1.36,3.32-.76,7.09,1.57,9.84h0ZM81.37,78.34c0,4.25-2.76,7.86-6.59,9.14v.82c0,1.69-1.37,3.05-3.05,3.05s-3.05-1.37-3.05-3.05v-.82c-2.03-.68-3.8-2.02-5.01-3.87-.93-1.41-.53-3.3.88-4.22s3.3-.53,4.22.88c.66,1.01,1.77,1.6,2.96,1.6,1.95,0,3.54-1.59,3.54-3.54s-1.59-3.54-3.54-3.54c-5.31,0-9.63-4.32-9.63-9.63,0-4.25,2.76-7.86,6.59-9.14v-.82c0-1.69,1.37-3.05,3.05-3.05s3.05,1.37,3.05,3.05v.82c2.03.68,3.8,2.02,5.01,3.87.93,1.41.53,3.3-.88,4.22-1.41.93-3.3.53-4.22-.88-.66-1.01-1.77-1.6-2.96-1.6-1.95,0-3.54,1.59-3.54,3.54s1.59,3.54,3.54,3.54c5.31,0,9.63,4.32,9.63,9.63ZM71.74,38.54c-18.31,0-33.21,14.9-33.21,33.21s14.9,33.21,33.21,33.21,33.21-14.9,33.21-33.21-14.9-33.21-33.21-33.21ZM71.74,98.87c-14.95,0-27.12-12.16-27.12-27.12s12.16-27.12,27.12-27.12,27.12,12.16,27.12,27.12-12.16,27.12-27.12,27.12ZM52.49,181.9h-21.8c-4.48,0-8.13,3.65-8.13,8.13v53.34c0,4.48,3.65,8.13,8.13,8.13h21.8c4.48,0,8.13-3.65,8.13-8.13v-53.34c0-4.48-3.65-8.13-8.13-8.13ZM54.52,243.36c0,1.12-.91,2.03-2.03,2.03h-21.8c-1.12,0-2.03-.91-2.03-2.03v-53.34c0-1.12.91-2.03,2.03-2.03h21.8c1.12,0,2.03.91,2.03,2.03v53.34ZM109.07,156.71h-21.8c-4.48,0-8.13,3.65-8.13,8.13v78.52c0,4.48,3.65,8.13,8.13,8.13h21.8c4.48,0,8.13-3.65,8.13-8.13v-78.53c0-4.48-3.65-8.13-8.13-8.13h0ZM111.1,243.36c0,1.12-.91,2.03-2.03,2.03h-21.8c-1.12,0-2.03-.91-2.03-2.03v-78.52c0-1.12.91-2.03,2.03-2.03h21.8c1.12,0,2.03.91,2.03,2.03v78.52ZM243.1,90.35l-25.73-28.71c-1.59-1.77-3.68-2.71-6.05-2.71s-4.47.94-6.05,2.71l-25.73,28.71c-2.17,2.42-2.7,5.77-1.37,8.74s4.17,4.82,7.42,4.82h6.71v139.46c0,4.48,3.65,8.13,8.13,8.13h21.8c4.48,0,8.13-3.65,8.13-8.13V103.91h6.71c3.25,0,6.1-1.85,7.42-4.82s.8-6.32-1.38-8.74h0ZM238.91,96.61c-.35.78-1.01,1.21-1.86,1.21h-9.75c-1.69,0-3.05,1.37-3.05,3.05v142.51c0,1.12-.91,2.03-2.03,2.03h-21.8c-1.12,0-2.03-.91-2.03-2.03V100.86c0-1.69-1.37-3.05-3.05-3.05h-9.75c-.85,0-1.51-.43-1.86-1.21-.35-.78-.23-1.55.34-2.19l25.73-28.71c.42-.47.89-.68,1.52-.68s1.1.21,1.52.68l25.73,28.71c.56.64.68,1.42.34,2.19h0ZM165.64,131.52h-21.8c-4.48,0-8.13,3.65-8.13,8.13v103.71c0,4.48,3.65,8.13,8.13,8.13h21.8c4.48,0,8.13-3.65,8.13-8.13v-103.71c0-4.48-3.65-8.13-8.13-8.13ZM167.67,243.36c0,1.12-.91,2.03-2.03,2.03h-21.8c-1.12,0-2.03-.91-2.03-2.03v-103.71c0-1.12.91-2.03,2.03-2.03h21.8c1.12,0,2.03.91,2.03,2.03v103.71Z" style="stroke:#000; stroke-linecap:round; stroke-linejoin:round; stroke-width:3px;"/></svg>