<?xml version="1.0" encoding="UTF-8"?><svg id="uuid-a12c0a7e-42b7-43f1-94cc-24bc91966278" xmlns="http://www.w3.org/2000/svg" viewBox="0 0 250 219.12"><polygon points="93.57 117.72 87.01 131.79 78.38 134.83 73.42 134.35 73.42 85.57 60.14 85.57 83.34 61.9 105.09 85.89 93.41 85.89 93.41 105.72 90.21 111.16 93.57 117.72" style="fill:#f5af32; stroke-width:0px;"/><polygon points="114.84 93.57 114.84 59.18 102.21 59.18 125.08 35.03 146.19 58.22 134.68 58.22 134.68 93.57 114.84 93.57" style="fill:#f5af32; stroke-width:0px;"/><polygon points="157.23 108.6 157.23 85.89 144.75 85.89 168.1 61.9 189.06 84.45 177.7 84.45 177.7 132.43 171.78 134.83 162.99 130.99 157.71 119.48 157.23 108.6" style="fill:#f5af32; stroke-width:0px;"/><path d="M16.64,110.84H2.09l23.35-26.71,24.31,24.63-15.83.96s-.96,76.93,79.01,88.61c73.25,10.56,94.85-49.74,94.85-49.74l12.8,8.96s-35.03,63.02-101.4,58.06c-66.38-4.96-88.13-53.1-94.05-76.29l-8.48-28.47Z" style="fill:#f5af32; stroke-width:0px;"/><path d="M29.6,61.42l12.64,6.08s29.11-58.38,101.4-47.18c72.29,11.2,71.81,86.85,71.81,86.85h-14.23l22.39,28.31,22.55-25.11-13.59-.8s-9.44-61.26-40.47-82.37C161.07,6.08,140.75,1.6,110.05,5.28,57.11,11.68,29.6,61.42,29.6,61.42Z" style="fill:#f5af32; stroke-width:0px;"/><path d="M222.48,155.3c-.64-1.76-1.76-3.2-3.52-4l-7.52-3.68c-3.36-1.6-7.2-.32-8.96,2.88-4,7.68-9.28,14.71-15.51,20.95-16.47,16.47-38.55,25.59-61.9,25.59s-45.42-9.12-61.9-25.59c-15.51-15.51-24.63-36.15-25.59-57.9h9.12c2.56,0,4.64-1.44,5.76-3.84.96-2.24.48-4.96-1.28-6.72l-20.31-20.31c-2.4-2.4-6.24-2.4-8.64,0L1.77,103c-1.76,1.76-2.24,4.32-1.28,6.72.96,2.24,3.2,3.84,5.76,3.84h9.28c.96,27.83,12.32,53.9,31.99,73.57,20.79,20.63,48.3,31.99,77.57,31.99s56.78-11.36,77.41-32.15c7.84-7.84,14.39-16.63,19.51-26.39.96-1.6.96-3.52.48-5.28ZM196.89,181.53c-19.19,19.19-44.78,29.75-71.97,29.75s-52.78-10.56-71.97-29.75c-18.71-18.71-29.27-43.5-29.75-69.89-.16-3.36-2.88-6.08-6.24-6.08h-6.88l16.31-16.31,16.31,16.31h-6.88c-1.6,0-3.2.64-4.32,1.92-1.28,1.28-1.76,2.88-1.76,4.48.64,24.47,10.56,47.66,27.83,64.94s41.9,27.83,67.34,27.83,49.42-9.92,67.34-27.83c6.56-6.56,12-13.91,16.31-21.91l5.76,2.72c-4.48,8.96-10.4,16.79-17.43,23.83Z" style="fill:#000; stroke-width:0px;"/><path d="M249.51,109.56c-.96-2.24-3.2-3.84-5.76-3.84h-9.28c-.96-27.83-12.32-53.9-31.99-73.57C181.86,11.52,154.35,0,125.08,0s-56.78,11.36-77.41,32.15c-7.84,7.84-14.39,16.63-19.51,26.39-.8,1.6-.96,3.52-.48,5.28v.16c.64,1.76,1.92,3.2,3.52,4l7.52,3.68c3.36,1.6,7.2.32,8.96-2.88,4.16-7.68,9.28-14.71,15.51-20.95,16.47-16.47,38.55-25.59,61.9-25.59s45.26,9.12,61.9,25.59c15.51,15.51,24.63,36.15,25.59,57.9h-9.12c-2.56,0-4.8,1.44-5.76,3.84-.96,2.24-.48,4.96,1.28,6.72l20.31,20.31c1.12,1.12,2.72,1.76,4.32,1.76s3.2-.64,4.32-1.76l20.31-20.31c1.76-1.92,2.24-4.48,1.28-6.72ZM223.6,129.87l-16.31-16.31h6.88c1.6,0,3.2-.64,4.32-1.76,1.12-1.28,1.76-2.88,1.76-4.48-.64-24.47-10.56-47.66-27.83-64.94-18.07-18.23-41.9-28.15-67.5-28.15s-49.26,9.92-67.34,27.99c-6.56,6.56-12,13.91-16.31,21.91l-5.76-2.72c4.64-8.64,10.72-16.63,17.59-23.67C72.3,18.55,97.89,8,125.08,8s52.78,10.56,71.97,29.75c18.71,18.71,29.27,43.5,29.75,69.89.16,3.36,2.88,6.08,6.24,6.08h7.04l-16.47,16.15Z" style="fill:#000; stroke-width:0px;"/><path d="M190.82,79.81l-19.19-19.19c-2.24-2.24-5.92-2.24-8.16,0l-19.19,19.19c-1.6,1.6-2.24,4.16-1.28,6.4.96,2.24,3.04,3.52,5.44,3.52h5.28v9.76c-1.28-.32-2.72,0-3.84.64l-4.64,2.4c-1.92-1.12-3.84-1.92-5.92-2.72v-36.63h5.28c2.4,0,4.48-1.44,5.44-3.52.96-2.24.48-4.64-1.28-6.4l-19.19-19.19c-1.12-1.12-2.56-1.76-4.16-1.76s-3.04.64-4,1.76l-19.19,19.19c-1.6,1.6-2.24,4.16-1.28,6.4.96,2.24,3.04,3.52,5.44,3.52h5.28v36.31c-2.08.8-4,1.6-5.92,2.72l-4.64-2.4c-1.28-.64-2.56-.8-3.84-.64v-9.6l4.64.16c2.4,0,4.48-1.44,5.44-3.52.96-2.24.48-4.64-1.28-6.4l-19.19-19.19c-1.12-1.12-2.56-1.76-4.16-1.76s-3.04.64-4,1.76l-19.19,19.19c-1.6,1.76-2.08,4.16-1.28,6.4.96,2.24,3.04,3.52,5.44,3.52h5.12v42.86c0,3.52,2.88,6.4,6.4,6.4h1.28v3.2c0,2.72,1.76,5.12,4.32,5.92l4.96,1.6c.8,2.88,2.08,5.76,3.52,8.48l-2.4,4.64c-1.28,2.4-.8,5.28,1.12,7.2l5.44,5.44c1.92,1.92,4.8,2.4,7.2,1.12l4.64-2.4c2.72,1.44,5.6,2.72,8.48,3.52l1.6,4.96c.8,2.56,3.2,4.32,5.92,4.32h7.68c2.72,0,5.12-1.76,5.92-4.32l1.6-4.96c3.04-.8,5.92-2.08,8.48-3.52l4.64,2.4c2.4,1.28,5.28.8,7.2-1.12l5.44-5.44c1.92-1.92,2.4-4.8,1.12-7.2l-2.4-4.64c1.44-2.72,2.72-5.6,3.52-8.48l4.96-1.6c2.56-.8,4.32-3.2,4.32-5.92v-3.2h1.28c3.52,0,6.4-2.88,6.4-6.4v-42.86h5.28c2.4,0,4.48-1.44,5.44-3.52.96-2.24.48-4.64-1.28-6.4ZM110.69,55.5l14.39-14.39,14.39,14.39h-4.32c-2.08,0-3.84,1.76-3.84,3.84v30.71c-.96-.32-1.76-.48-2.56-.48h-7.68c-.8,0-1.6.16-2.24.48v-30.71c0-2.08-1.76-3.84-3.84-3.84h-4.32ZM77.42,130.99h-.8v-45.26c0-2.08-1.76-3.84-4-3.84h-4.32l14.39-14.39,14.39,14.39h-4.32c-2.08,0-3.84,1.76-3.84,3.84v19.83l-.96.96c-1.92,1.92-2.4,4.8-1.12,7.2l2.4,4.64c-1.44,2.72-2.72,5.6-3.52,8.48l-4.96,1.6c-1.44.48-2.56,1.44-3.36,2.56ZM165.39,140.75l-4.48,1.44c-2.08.64-3.52,2.24-4.16,4.32-.8,2.88-1.92,5.76-3.36,8.32-1.12,1.92-1.12,4-.16,5.92l2.24,4.32-3.68,3.68-4.32-2.24c-1.92-.96-4-.96-5.92.16-2.56,1.44-5.28,2.72-8.32,3.36-2.08.48-3.52,2.08-4.32,4l-1.44,4.64h-5.28l-1.44-4.48c-.64-2.08-2.24-3.52-4.32-4.16-2.88-.8-5.76-1.92-8.32-3.36-1.76-1.12-4-1.12-5.92-.16l-4.32,2.24-3.84-3.68,2.24-4.32c.96-1.92.96-4-.16-5.92-1.44-2.56-2.72-5.44-3.36-8.32-.48-2.08-2.08-3.68-4-4.32l-4.64-1.44v-5.28l4.64-1.44c2.08-.64,3.52-2.24,4-4.32.8-2.88,1.92-5.6,3.36-8.32,1.12-1.92,1.12-4,.16-5.92l-2.24-4.32,4-3.68,4.32,2.24c1.92.96,4.16.96,5.92-.16,2.56-1.44,5.28-2.72,8.16-3.36,2.08-.48,3.68-2.08,4.32-4l1.44-4.64h5.28l1.44,4.64c.64,1.92,2.24,3.52,4.32,4,2.88.8,5.6,1.92,8.32,3.36,1.92,1.12,4,1.12,5.92.16l4.32-2.24,3.68,3.68-2.24,4.32c-.96,1.92-.96,4.16.16,5.92,1.44,2.56,2.72,5.28,3.36,8.32.48,2.08,2.08,3.52,4,4.32l4.64,1.44v5.28ZM177.38,81.89c-2.08,0-3.84,1.76-3.84,3.84v45.26h-.8c-.8-1.28-1.92-2.08-3.36-2.56l-4.96-1.6c-.8-3.04-2.08-5.92-3.52-8.48l2.4-4.64c1.28-2.4.8-5.28-1.12-7.2l-.96-.96v-19.83c0-2.08-1.76-3.84-3.84-3.84h-4.48l14.39-14.39,14.39,14.39h-4.32Z" style="fill:#000; stroke-width:0px;"/><path d="M124.92,115.48c-12.64,0-22.71,10.24-22.71,22.71s10.24,22.71,22.71,22.71,22.71-10.24,22.71-22.71-10.08-22.71-22.71-22.71ZM124.92,153.22c-8.32,0-15.03-6.72-15.03-15.03s6.88-15.03,15.03-15.03,15.03,6.72,15.03,15.03-6.72,15.03-15.03,15.03Z" style="fill:#000; stroke-width:0px;"/></svg>