<?xml version="1.0" encoding="UTF-8"?><svg id="a" xmlns="http://www.w3.org/2000/svg" viewBox="0 0 250 249.96"><polygon points="5.2 41.67 29.09 54.63 58.96 61.35 87.5 63.27 118.48 60.87 139.6 56.07 162.5 45.99 170.8 36.87 170.8 76.71 143.44 81.76 125 87.76 107.92 98.17 96.4 111.75 88 111.75 69.04 111.75 48.22 108.33 29.09 105.51 21.04 100 8.33 94.47 5.2 89.67 5.2 41.67" style="fill:#fdba33;"/><polygon points="4.7 142.36 28.59 155.32 58.46 162.04 77.68 164.58 95.9 212.44 87.5 212.44 68.54 212.44 47.72 209.03 28.59 206.2 20.54 200.69 7.83 195.16 4.7 190.36 4.7 142.36" style="fill:#fdba33;"/><circle cx="162.5" cy="107.33" r="10.13" style="fill:#fdba33;"/><circle cx="123.4" cy="123.19" r="10.13" style="fill:#fdba33;"/><circle cx="108.13" cy="161.5" r="10.13" style="fill:#fdba33;"/><circle cx="123.4" cy="201.31" r="10.13" style="fill:#fdba33;"/><circle cx="162.5" cy="218.47" r="10.13" style="fill:#fdba33;"/><circle cx="201.95" cy="201.89" r="10.13" style="fill:#fdba33;"/><circle cx="217.12" cy="162.5" r="10.13" style="fill:#fdba33;"/><circle cx="201.95" cy="123.11" r="10.13" style="fill:#fdba33;"/><circle cx="154.73" cy="154.21" r="10.13" style="fill:#fdba33;"/><path d="M175,76v-42.67C175,11.67,129.92,0,87.5,0S0,11.67,0,33.33v150c0,21.67,45.08,33.33,87.5,33.33,2.15,0,4.25-.05,6.34-.1,29.84,37.96,84.8,44.54,122.76,14.7,37.96-29.84,44.54-84.8,14.7-122.76-13.89-17.67-34.05-29.31-56.3-32.51ZM87.5,8.33c46.67,0,79.17,13.17,79.17,25s-32.5,25-79.17,25S8.33,45.16,8.33,33.33,40.83,8.33,87.5,8.33ZM8.33,48.17c14.96,12.1,47.78,18.5,79.17,18.5s64.2-6.4,79.17-18.5v27.04c-1.39-.07-2.76-.21-4.17-.21-26.71.01-51.94,12.25-68.49,33.2-2.14.07-4.3.13-6.51.13-46.67,0-79.17-13.17-79.17-25v-35.16ZM8.33,98.17c14.96,12.1,47.78,18.5,79.17,18.5h.61c-7.71,12.46-12.14,26.66-12.88,41.3-40.17-2.13-66.9-14.17-66.9-24.63v-35.16ZM87.5,208.33c-46.67,0-79.17-13.17-79.17-25v-35.44c10.88,9.12,32.75,16.73,66.86,18.4.62,14.89,5.07,29.37,12.91,42.04h-.6ZM162.5,241.67c-43.72,0-79.17-35.44-79.17-79.17s35.44-79.17,79.17-79.17,79.17,35.44,79.17,79.17c-.05,43.7-35.46,79.12-79.17,79.17Z"/><path d="M205.64,150h-3.42c-.73-2.33-1.67-4.58-2.8-6.75l2.42-2.42c9.19-.57,16.17-8.49,15.59-17.67s-8.49-16.17-17.67-15.59c-8.38.52-15.07,7.21-15.59,15.59l-2.42,2.42c-2.16-1.13-4.42-2.07-6.75-2.8v-3.42c6.09-6.9,5.43-17.44-1.48-23.52-6.9-6.09-17.44-5.43-23.52,1.48-5.56,6.3-5.56,15.75,0,22.05v3.42c-2.33.73-4.59,1.67-6.75,2.8l-2.42-2.42c-.57-9.19-8.49-16.17-17.67-15.59s-16.17,8.49-15.59,17.67c.52,8.38,7.21,15.07,15.59,15.59l2.42,2.42c-1.13,2.16-2.07,4.42-2.8,6.75h-3.42c-6.9-6.09-17.44-5.43-23.52,1.48-6.09,6.9-5.43,17.44,1.48,23.52,6.3,5.56,15.75,5.56,22.05,0h3.42c.73,2.33,1.67,4.58,2.8,6.75l-2.42,2.42c-9.19.57-16.17,8.49-15.59,17.67.57,9.19,8.49,16.17,17.67,15.59,8.38-.52,15.07-7.21,15.59-15.59l2.42-2.42c2.16,1.13,4.42,2.07,6.75,2.8v3.42c-6.09,6.9-5.43,17.44,1.48,23.52,6.9,6.09,17.44,5.43,23.52-1.48,5.56-6.3,5.56-15.75,0-22.05v-3.42c2.33-.73,4.59-1.67,6.75-2.8l2.42,2.42c.57,9.19,8.49,16.17,17.67,15.59,9.19-.57,16.17-8.49,15.59-17.67-.52-8.38-7.21-15.07-15.59-15.59l-2.42-2.42c1.13-2.16,2.07-4.42,2.8-6.75h3.42c6.9,6.09,17.44,5.43,23.52-1.48,6.09-6.9,5.43-17.44-1.48-23.52-6.3-5.56-15.75-5.56-22.05,0ZM225,162.5c0,4.6-3.73,8.33-8.33,8.33-2.35.02-4.59-.98-6.15-2.74-.79-.91-1.93-1.43-3.14-1.43h-8.33c-1.94,0-3.63,1.35-4.06,3.24-.84,3.65-2.28,7.14-4.28,10.31-1.03,1.65-.79,3.79.58,5.16l5.9,5.9c.85.85,2.03,1.3,3.24,1.21,2.34-.15,4.64.73,6.28,2.41,3.34,3.17,3.47,8.45.3,11.78-3.17,3.34-8.45,3.47-11.78.3-.1-.1-.2-.2-.3-.3-1.67-1.64-2.55-3.93-2.41-6.27.08-1.2-.36-2.38-1.21-3.24l-5.9-5.9c-1.38-1.37-3.52-1.61-5.17-.57-3.17,2-6.66,3.46-10.31,4.3-1.89.43-3.23,2.1-3.24,4.04v8.33c0,1.2.52,2.35,1.43,3.14,1.76,1.56,2.76,3.8,2.74,6.15,0,4.6-3.73,8.33-8.33,8.33s-8.33-3.73-8.33-8.33c-.02-2.35.98-4.59,2.74-6.15.91-.79,1.43-1.93,1.43-3.14v-8.33c0-1.94-1.35-3.63-3.24-4.06-3.65-.83-7.14-2.28-10.31-4.28-1.65-1.04-3.79-.8-5.17.57l-5.9,5.9c-.85.85-1.3,2.03-1.21,3.24.14,2.34-.74,4.63-2.41,6.28-3.09,3.41-8.36,3.66-11.77.57-3.41-3.09-3.66-8.36-.57-11.77.18-.2.38-.4.58-.58,1.64-1.67,3.92-2.55,6.25-2.41,1.2.08,2.38-.36,3.24-1.21l5.9-5.9c1.37-1.38,1.61-3.52.58-5.16-2-3.17-3.45-6.66-4.28-10.31-.43-1.9-2.11-3.24-4.06-3.25h-8.33c-1.2,0-2.35.52-3.14,1.43-1.56,1.76-3.8,2.76-6.15,2.74-4.6,0-8.33-3.73-8.33-8.33s3.73-8.33,8.33-8.33c2.35-.02,4.59.98,6.15,2.74.79.91,1.93,1.43,3.14,1.43h8.33c1.94,0,3.63-1.35,4.06-3.24.84-3.65,2.28-7.14,4.28-10.31,1.03-1.65.79-3.79-.58-5.16l-5.9-5.9c-.85-.86-2.04-1.3-3.24-1.22-2.34.14-4.63-.74-6.28-2.41-3.41-3.1-3.66-8.37-.56-11.77,3.1-3.41,8.37-3.66,11.77-.56.2.18.4.38.58.58,1.67,1.64,2.55,3.92,2.41,6.25-.08,1.2.36,2.38,1.21,3.24l5.9,5.9c1.38,1.37,3.52,1.61,5.17.57,3.17-2,6.66-3.45,10.31-4.28,1.9-.43,3.24-2.11,3.25-4.06v-8.33c0-1.2-.52-2.35-1.43-3.14-1.76-1.56-2.76-3.8-2.74-6.15,0-4.6,3.73-8.33,8.33-8.33s8.33,3.73,8.33,8.33c.02,2.35-.98,4.59-2.74,6.15-.91.79-1.43,1.93-1.43,3.14v8.33c0,1.94,1.35,3.63,3.24,4.06,3.65.83,7.14,2.28,10.31,4.28,1.65,1.04,3.79.8,5.17-.57l5.9-5.9c.86-.85,1.3-2.04,1.22-3.24-.14-2.34.74-4.63,2.41-6.28,3.17-3.34,8.45-3.47,11.78-.3,3.34,3.17,3.47,8.45.3,11.78-.1.1-.2.2-.3.3-1.64,1.68-3.93,2.56-6.27,2.41-1.2-.09-2.39.35-3.24,1.21l-5.9,5.9c-1.37,1.38-1.61,3.52-.58,5.16,2,3.17,3.46,6.66,4.3,10.32.43,1.89,2.1,3.23,4.04,3.24h8.33c1.2,0,2.35-.52,3.14-1.43,1.56-1.76,3.8-2.76,6.15-2.74,4.6,0,8.33,3.73,8.33,8.33Z"/><path d="M154.17,141.67c-6.9,0-12.5,5.6-12.5,12.5s5.6,12.5,12.5,12.5,12.5-5.6,12.5-12.5-5.6-12.5-12.5-12.5ZM154.17,158.33c-2.3,0-4.17-1.87-4.17-4.17s1.87-4.17,4.17-4.17,4.17,1.87,4.17,4.17-1.87,4.17-4.17,4.17Z"/><path d="M19.07,79.61c1.4.65,2.87,1.28,4.4,1.89,2.16.8,4.56-.3,5.36-2.46.78-2.1-.24-4.43-2.3-5.29-1.37-.54-2.68-1.11-3.93-1.69-2.08-.98-4.57-.08-5.54,2.01-.98,2.08-.08,4.57,2.01,5.54Z"/><path d="M40.72,86.75c1.4.33,2.83.64,4.29.93.27.06.55.08.83.08,2.3,0,4.17-1.86,4.17-4.16,0-1.98-1.39-3.69-3.34-4.09-1.37-.27-2.72-.57-4.04-.87-2.23-.58-4.5.75-5.09,2.97-.58,2.23.75,4.5,2.97,5.09.07.02.15.04.22.05h-.02Z"/><path d="M162.5,175h-4.17c-2.3,0-4.17,1.87-4.17,4.17s1.87,4.17,4.17,4.17h4.17c2.3,0,4.17-1.87,4.17-4.17s-1.87-4.17-4.17-4.17Z"/><path d="M179.17,158.33c-2.3,0-4.17,1.87-4.17,4.17v4.17c0,2.3,1.87,4.17,4.17,4.17s4.17-1.87,4.17-4.17v-4.17c0-2.3-1.87-4.17-4.17-4.17Z"/></svg>