<?xml version="1.0" encoding="UTF-8"?>
<svg id="Layer_1" data-name="Layer 1" xmlns="http://www.w3.org/2000/svg" viewBox="0 0 156.31 167.07">
  <path d="m72.78,0c46.14,0,83.54,37.4,83.54,83.54s-37.4,83.54-83.54,83.54V0Z" style="fill: #c79026; stroke-width: 0px;"/>
  <circle cx="78.16" cy="83.54" r="72.78" style="fill: #f5af32; stroke-width: 0px;"/>
  <g>
    <path d="m75.19,104.07c-.95,0-1.72-.77-1.72-1.72h0c0-.95.77-1.72,1.72-1.72s1.72.77,1.72,1.72-.77,1.72-1.72,1.72Z" style="stroke-width: 0px;"/>
    <path d="m45.28,104.07c-.95,0-1.72-.77-1.72-1.72h0c0-.95.77-1.72,1.72-1.72s1.72.77,1.72,1.72-.77,1.72-1.72,1.72Z" style="stroke-width: 0px;"/>
    <path d="m114.48,104.07c-.95,0-1.72-.77-1.72-1.72h0c0-.95.77-1.72,1.72-1.72s1.72.77,1.72,1.72-.77,1.72-1.72,1.72Z" style="stroke-width: 0px;"/>
    <path d="m84.56,104.07c-.95,0-1.72-.77-1.72-1.72h0c0-.95.77-1.72,1.72-1.72s1.72.77,1.72,1.72-.77,1.72-1.72,1.72Z" style="stroke-width: 0px;"/>
    <path d="m71.65,95.65h-22.83c-2.09,0-3.78-1.69-3.78-3.78v-6.86c-.87-.1-1.54-.83-1.54-1.71v-3.68c0-.95.77-1.72,1.72-1.72h30.01c.95,0,1.72.77,1.72,1.72v3.68c0,.88-.66,1.62-1.54,1.71v6.86c0,2.09-1.69,3.78-3.78,3.78Zm-24.7-14.06c.87.1,1.54.83,1.54,1.71v8.57c0,.18.15.33.33.33h22.83c.18,0,.33-.15.33-.33h0v-8.57c0-.88.67-1.62,1.54-1.71v-.24h-26.57v.24Z" style="stroke-width: 0px;"/>
    <path d="m74.14,81.35c-.85,0-1.57-.62-1.7-1.46-.54-3.52-3.64-6.18-7.21-6.18h-9.99c-3.57,0-6.67,2.66-7.2,6.18-.14.94-1.02,1.59-1.96,1.44s-1.59-1.02-1.44-1.96c.81-5.24,5.31-9.1,10.61-9.1h9.99c5.3,0,9.8,3.87,10.61,9.1.14.94-.5,1.82-1.44,1.96-.09.01-.17.02-.26.02Z" style="stroke-width: 0px;"/>
    <path d="m79.88,124.49h-39.28c-.95,0-1.72-.77-1.72-1.72v-12.21c0-6.56,5.91-11.9,13.17-11.9h.84c.95,0,1.72.77,1.72,1.72s-.77,1.72-1.72,1.72h-.84c-5.36,0-9.72,3.79-9.72,8.45v10.49h35.84v-10.49c0-4.66-4.36-8.45-9.72-8.45h-.84c-.95,0-1.72-.77-1.72-1.72s.77-1.72,1.72-1.72h.84c7.26,0,13.17,5.34,13.17,11.9v12.21c0,.95-.77,1.72-1.72,1.72Z" style="stroke-width: 0px;"/>
    <path d="m60.24,107.54h-.02c-2.04-.02-4.93-2.03-8.6-5.98-.42-.45-.77-.83-1-6.52-.04-.95.7-1.75,1.66-1.79.95-.04,1.75.7,1.79,1.66.07,1.72.22,3.81.34,4.59,3.12,3.3,5.21,4.57,5.83,4.6.62-.03,2.71-1.29,5.83-4.6.13-.78.27-2.87.34-4.59.04-.95.84-1.69,1.79-1.66s1.69.84,1.66,1.79c-.22,5.69-.58,6.07-1,6.52-3.67,3.95-6.57,5.96-8.6,5.98h-.02Z" style="stroke-width: 0px;"/>
    <path d="m52.34,96.69c-.45,0-.88-.18-1.2-.49-.37-.36-.73-.74-1.08-1.14-.63-.72-.56-1.8.16-2.43.72-.63,1.8-.56,2.43.16.29.33.59.65.89.94.68.66.7,1.75.03,2.44-.32.33-.77.52-1.23.52Z" style="stroke-width: 0px;"/>
    <path d="m68.13,96.69c-.95,0-1.72-.77-1.72-1.72,0-.46.19-.91.52-1.23.3-.3.6-.61.89-.94.63-.72,1.72-.79,2.43-.16s.79,1.72.16,2.43c-.35.4-.71.78-1.08,1.14-.32.31-.75.49-1.2.49Z" style="stroke-width: 0px;"/>
    <path d="m71.53,124.49c-.95,0-1.72-.77-1.72-1.72v-22.01c0-.95.77-1.72,1.72-1.72s1.72.77,1.72,1.72v22.01c0,.95-.77,1.72-1.72,1.72Z" style="stroke-width: 0px;"/>
    <path d="m48.94,124.49c-.95,0-1.72-.77-1.72-1.72v-22.01c0-.95.77-1.72,1.72-1.72s1.72.77,1.72,1.72v22.01c0,.95-.77,1.72-1.72,1.72Z" style="stroke-width: 0px;"/>
    <path d="m110.94,95.65h-22.83c-2.09,0-3.78-1.69-3.78-3.78v-6.86c-.88-.09-1.54-.83-1.54-1.71v-3.68c0-.95.77-1.72,1.72-1.72h30.02c.95,0,1.72.77,1.72,1.72v3.68c0,.88-.66,1.62-1.54,1.71v6.86c0,2.09-1.69,3.78-3.78,3.78Zm-24.7-14.06c.87.1,1.54.83,1.54,1.71v8.57c0,.18.15.33.33.33h22.83c.18,0,.33-.15.33-.33v-8.57c0-.88.66-1.62,1.54-1.71v-.24h-26.56v.24Z" style="stroke-width: 0px;"/>
    <path d="m113.42,81.35c-.85,0-1.57-.62-1.7-1.46-.54-3.52-3.63-6.18-7.2-6.18h-9.99c-3.57,0-6.67,2.66-7.21,6.18-.1.95-.95,1.63-1.89,1.54-.95-.1-1.63-.95-1.54-1.89,0-.05.01-.11.02-.16.8-5.24,5.31-9.1,10.61-9.11h9.99c5.3,0,9.81,3.87,10.61,9.11.14.94-.5,1.82-1.44,1.96h0c-.09.01-.17.02-.26.02Z" style="stroke-width: 0px;"/>
    <path d="m119.16,124.49h-39.28c-.95,0-1.72-.77-1.72-1.72v-12.21c0-6.56,5.91-11.9,13.17-11.9h.84c.95,0,1.72.77,1.72,1.72s-.77,1.72-1.72,1.72h-.84c-5.36,0-9.72,3.79-9.72,8.45v10.49h35.84v-10.49c0-4.66-4.36-8.45-9.72-8.45h-.84c-.95,0-1.72-.77-1.72-1.72s.77-1.72,1.72-1.72h.84c7.26,0,13.17,5.34,13.17,11.9v12.21c0,.95-.77,1.72-1.72,1.72Z" style="stroke-width: 0px;"/>
    <path d="m99.52,107.54h-.02c-2.03-.02-4.93-2.03-8.6-5.98-.42-.45-.77-.83-1-6.52-.04-.95.7-1.75,1.66-1.79s1.75.7,1.79,1.66c.07,1.72.22,3.81.34,4.59,3.12,3.3,5.21,4.57,5.83,4.6.62-.03,2.71-1.29,5.83-4.6.13-.78.27-2.87.34-4.59.04-.95.84-1.69,1.79-1.66s1.69.84,1.66,1.79c-.22,5.69-.58,6.07-1,6.52-3.67,3.95-6.57,5.96-8.6,5.98h-.02Z" style="stroke-width: 0px;"/>
    <path d="m91.63,96.69c-.45,0-.88-.18-1.2-.49-.37-.36-.73-.74-1.08-1.14-.61-.73-.52-1.81.2-2.43.71-.6,1.76-.53,2.39.16.29.33.59.65.89.94.68.66.7,1.75.03,2.44-.32.33-.77.52-1.23.52h0Z" style="stroke-width: 0px;"/>
    <path d="m107.41,96.69c-.95,0-1.72-.77-1.72-1.72,0-.46.19-.91.52-1.23.3-.3.6-.61.89-.94.63-.72,1.72-.79,2.43-.16s.79,1.72.16,2.43c-.35.4-.71.78-1.08,1.14-.32.31-.75.49-1.2.49Z" style="stroke-width: 0px;"/>
    <path d="m110.81,124.49c-.95,0-1.72-.77-1.72-1.72v-22.01c0-.95.77-1.72,1.72-1.72s1.72.77,1.72,1.72v22.01c0,.95-.77,1.72-1.72,1.72Z" style="stroke-width: 0px;"/>
    <path d="m88.23,124.49c-.95,0-1.72-.77-1.72-1.72v-22.01c0-.95.77-1.72,1.72-1.72s1.72.77,1.72,1.72v22.01c0,.95-.77,1.72-1.72,1.72Z" style="stroke-width: 0px;"/>
    <path d="m91.29,60.28h-22.83c-2.09,0-3.78-1.69-3.78-3.78v-6.86c-.87-.1-1.54-.83-1.54-1.71v-3.67c0-.95.77-1.72,1.72-1.72h30.01c.95,0,1.72.77,1.72,1.72v3.68c0,.88-.66,1.61-1.54,1.71v6.86c0,2.09-1.69,3.78-3.78,3.78Zm-24.7-14.06c.87.1,1.54.83,1.54,1.71v8.57c0,.18.15.33.33.33h22.83c.18,0,.33-.15.33-.33v-8.57c0-.88.66-1.62,1.54-1.71v-.24h-26.57v.24Z" style="stroke-width: 0px;"/>
    <path d="m93.78,45.99c-.85,0-1.57-.62-1.7-1.46-.54-3.52-3.63-6.18-7.2-6.18h-9.99c-3.57,0-6.67,2.66-7.2,6.18-.14.94-1.02,1.59-1.96,1.44-.94-.14-1.59-1.02-1.44-1.96.8-5.24,5.31-9.11,10.61-9.11h9.99c5.3,0,9.8,3.87,10.61,9.1.14.94-.5,1.82-1.44,1.96,0,0,0,0,0,0-.09.01-.17.02-.26.02Z" style="stroke-width: 0px;"/>
    <path d="m87.77,55.8h-15.78c-.95,0-1.72-.77-1.72-1.72v-5.61c0-.95.77-1.72,1.72-1.72h15.78c.95,0,1.72.77,1.72,1.72v5.62c0,.95-.77,1.72-1.72,1.72Zm-14.06-3.45h12.34v-2.17h-12.34v2.17Z" style="stroke-width: 0px;"/>
    <path d="m68.13,91.34h-15.78c-.95,0-1.72-.77-1.72-1.72v-5.62c0-.95.77-1.72,1.72-1.72h15.78c.95,0,1.72.77,1.72,1.72v5.62c0,.95-.77,1.72-1.72,1.72Zm-14.06-3.45h12.34v-2.18h-12.34v2.18Z" style="stroke-width: 0px;"/>
    <path d="m107.41,91.34h-15.78c-.95,0-1.72-.77-1.72-1.72v-5.62c0-.95.77-1.72,1.72-1.72h15.78c.95,0,1.72.77,1.72,1.72v5.62c0,.95-.77,1.72-1.72,1.72Zm-14.06-3.45h12.34v-2.18h-12.34v2.18Z" style="stroke-width: 0px;"/>
    <path d="m98.94,73.71c-.72,0-1.36-.45-1.62-1.12-.62-1.67-1.81-3.11-3.43-4.17-.96-.62-2.02-1.08-3.13-1.35-.88-.22-1.78-.32-2.68-.32h-.84c-.95,0-1.72-.77-1.72-1.72s.77-1.72,1.72-1.72h.84c1.18,0,2.36.14,3.51.43,1.49.37,2.9.98,4.19,1.81,2.25,1.46,3.9,3.49,4.78,5.85.33.89-.12,1.88-1.01,2.22-.19.07-.4.11-.6.11h0Z" style="stroke-width: 0px;"/>
    <path d="m60.82,73.71c-.95,0-1.72-.77-1.72-1.72,0-.21.04-.41.11-.6.88-2.37,2.53-4.39,4.78-5.85,1.28-.83,2.7-1.45,4.18-1.81,1.15-.29,2.33-.43,3.51-.43h.84c.95,0,1.72.77,1.72,1.72s-.77,1.72-1.72,1.72h-.84c-.9,0-1.8.11-2.68.32-1.11.27-2.17.73-3.14,1.36-1.62,1.06-2.81,2.5-3.44,4.17-.25.68-.89,1.13-1.61,1.13Z" style="stroke-width: 0px;"/>
    <path d="m79.88,72.17h-.02c-2.03-.02-4.93-2.03-8.6-5.98-.42-.45-.77-.83-1-6.52-.04-.95.7-1.75,1.66-1.79s1.75.7,1.79,1.66c.07,1.72.22,3.81.34,4.59,3.12,3.3,5.21,4.57,5.83,4.6.62-.03,2.71-1.29,5.83-4.6.13-.78.27-2.87.34-4.59.04-.95.84-1.69,1.79-1.66s1.69.84,1.66,1.79c-.22,5.69-.58,6.07-1,6.52-3.67,3.95-6.57,5.96-8.6,5.98h-.02Z" style="stroke-width: 0px;"/>
    <path d="m71.99,61.32c-.45,0-.88-.18-1.2-.49-.37-.36-.73-.74-1.08-1.14-.63-.72-.56-1.8.16-2.43.72-.63,1.8-.56,2.43.16.29.33.59.65.89.94.68.66.69,1.76.03,2.44-.32.33-.77.52-1.23.52h0Z" style="stroke-width: 0px;"/>
    <path d="m87.77,61.32c-.95,0-1.72-.77-1.72-1.73,0-.46.19-.9.52-1.23.3-.3.6-.61.89-.94.63-.72,1.72-.79,2.43-.16.72.63.79,1.72.16,2.43-.35.4-.71.78-1.08,1.14-.32.31-.75.49-1.2.49Z" style="stroke-width: 0px;"/>
    <path d="m94.83,68.7c-.95,0-1.72-.77-1.72-1.72h0c0-.95.77-1.72,1.72-1.72s1.72.77,1.72,1.72-.77,1.72-1.72,1.72Z" style="stroke-width: 0px;"/>
    <path d="m91.17,74.35c-.95,0-1.72-.77-1.72-1.72v-7.24c0-.95.77-1.72,1.72-1.72s1.72.77,1.72,1.72v7.24c0,.95-.77,1.72-1.72,1.72Z" style="stroke-width: 0px;"/>
    <path d="m68.58,74.35c-.95,0-1.72-.77-1.72-1.72v-7.24c0-.95.77-1.72,1.72-1.72s1.72.77,1.72,1.72v7.24c0,.95-.77,1.72-1.72,1.72Z" style="stroke-width: 0px;"/>
    <path d="m64.92,68.7c-.95,0-1.72-.77-1.72-1.72h0c0-.95.77-1.72,1.72-1.72s1.72.77,1.72,1.72-.77,1.72-1.72,1.72Z" style="stroke-width: 0px;"/>
  </g>
</svg>