<?xml version="1.0" encoding="UTF-8"?><svg id="uuid-63d61567-52c8-4b85-b6c6-6d3800cb1fe3" xmlns="http://www.w3.org/2000/svg" viewBox="0 0 250 250"><ellipse cx="220.84" cy="82.77" rx="6.92" ry="6.67" style="fill:#f5af32; stroke-width:0px;"/><ellipse cx="237.39" cy="128.96" rx="5.93" ry="6.42" style="fill:#f5af32; stroke-width:0px;"/><ellipse cx="220.84" cy="174.66" rx="5.93" ry="6.42" style="fill:#f5af32; stroke-width:0px;"/><path d="M50.64,128.96h27.17s-1.24-19.76,12.1-15.32,7.41,16.8,7.41,16.8h22.97v-25.94s17.54,4.69,16.3-10.87-16.06-6.42-16.06-6.42v-28.65s-37.55-1.48-56.57,28.65-13.34,41.75-13.34,41.75Z" style="fill:#f5af32; stroke-width:0px;"/><path d="M122.03,199.61v-29.15h-9.39s-9.39.99-7.9-11.36c0,0,.49-7.66,14.82-5.43v-25.69h26.68s-1.98,17.54,10.13,17.54,5.68-17.54,5.68-17.54h29.64s.25,65.95-69.66,71.64Z" style="fill:#f5af32; stroke-width:0px;"/><path d="M120.79,220.6v24.95s-53.6,4.69-93.13-45.2C-11.86,150.45.25,75.6,49.16,37.07c0,0,28.16-25.69,71.64-25.69h94.61V3.97l29.64,20.75-28.41,21.24v-8.89h-111.41s-66.2,7.9-75.34,83.49c-9.14,75.59,61.26,97.08,90.9,100.04Z" style="fill:#f5af32; stroke-width:0px;"/><path d="M237.39,116.36c-5.19,0-9.88,3.46-11.86,8.4h-29.64c-.25-5.68-1.24-11.12-2.72-16.55h27.67c2.22,0,4.2-1.98,4.2-4.2v-9.14c6.42-2.22,9.88-9.39,7.66-15.81s-9.39-9.88-15.81-7.66-9.88,9.39-7.66,15.81c1.24,3.46,3.95,6.42,7.66,7.66v4.94h-26.93c-16.06-38.04-60.03-56.07-98.07-40.02s-56.07,60.03-40.02,98.31c7.9,18.77,23.47,33.59,42.49,41.01,8.4,3.21,17.29,4.94,26.43,4.69,30.14,0,57.31-18.03,68.92-45.7h26.93v4.94c-6.42,2.22-9.88,9.39-7.66,15.81s9.39,9.88,15.81,7.66,9.88-9.39,7.66-15.81c-1.24-3.46-3.95-6.42-7.66-7.66v-9.14c0-2.22-1.98-4.2-4.2-4.2h-27.91c1.73-5.43,2.72-10.87,2.96-16.55h30.14c2.22,6.42,9.39,9.88,15.81,7.66s9.88-9.39,7.66-15.81c-1.48-5.19-6.42-8.65-11.86-8.65ZM220.84,79.06c2.22,0,4.2,1.98,4.2,4.2s-1.98,4.2-4.2,4.2-4.2-1.98-4.2-4.2,1.73-4.2,4.2-4.2ZM220.84,178.86c-2.22,0-4.2-1.98-4.2-4.2s1.98-4.2,4.2-4.2,4.2,1.98,4.2,4.2-1.98,4.2-4.2,4.2ZM187.49,124.76h-24.95c-2.22,0-4.2,1.98-4.2,4.2v8.4c0,2.22-1.98,4.2-4.2,4.2s-4.2-1.98-4.2-4.2v-8.4c0-2.22-1.73-4.2-4.2-4.2h-20.75v-16.55h4.2c3.21,0,6.42-1.24,8.89-3.71,4.94-4.94,4.94-12.85,0-17.79-2.22-2.47-5.43-3.71-8.89-3.71h-4.2v-20.5c33.59,1.98,60.27,28.65,62.5,62.25h0ZM116.84,62.51v24.7c0,2.22,1.98,4.2,4.2,4.2h8.4c2.22,0,4.2,1.98,4.2,4.2,0,.99-.49,2.22-1.24,2.96s-1.73,1.24-2.96,1.24h-8.4c-2.22,0-4.2,1.98-4.2,4.2v20.75h-16.55v-4.2c0-6.92-5.68-12.6-12.6-12.6s-12.6,5.68-12.6,12.6v4.2h-20.5c1.98-33.35,28.65-60.03,62.25-62.25h0ZM54.34,133.16h24.95c2.22,0,4.2-1.98,4.2-4.2v-8.4c0-2.22,1.98-4.2,4.2-4.2,1.24,0,2.22.49,2.96,1.24s1.24,1.73,1.24,2.96v8.4c0,2.22,1.98,4.2,4.2,4.2h20.75v16.55h-4.2c-6.92,0-12.6,5.68-12.6,12.6s5.68,12.6,12.6,12.6h4.2v20.75c-6.67-.49-13.09-1.73-19.27-4.2-24.7-9.39-41.5-32.11-43.23-58.3h0ZM144.51,191.46c-6.18,2.22-12.85,3.71-19.27,4.2v-25.2c0-2.22-1.98-4.2-4.2-4.2h-8.4c-2.22,0-4.2-1.98-4.2-4.2s1.98-4.2,4.2-4.2h8.4c2.22,0,4.2-1.98,4.2-4.2v-20.75h16.55v4.2c0,6.92,5.68,12.6,12.6,12.6s12.6-5.68,12.6-12.6v-4.2h20.75c-1.98,26.43-18.77,49.16-43.23,58.54h0ZM237.39,133.16c-2.22,0-4.2-1.98-4.2-4.2s1.98-4.2,4.2-4.2,4.2,1.98,4.2,4.2-1.73,4.2-4.2,4.2Z" style="fill:#000; stroke-width:0px;"/><path d="M129.19,241.35h54.1v8.4h-54.1v-8.4Z" style="fill:#000; stroke-width:0px;"/><path d="M129.19,216.41h37.55v8.4h-37.55v-8.4Z" style="fill:#000; stroke-width:0px;"/><path d="M225.04,241.35h8.4v8.4h-8.4v-8.4Z" style="fill:#000; stroke-width:0px;"/><path d="M241.59,241.35h8.4v8.4h-8.4v-8.4Z" style="fill:#000; stroke-width:0px;"/><path d="M225.04,216.41h8.4v8.4h-8.4v-8.4Z" style="fill:#000; stroke-width:0px;"/><path d="M241.59,216.41h8.4v8.4h-8.4v-8.4Z" style="fill:#000; stroke-width:0px;"/><path d="M208.24,216.41h8.4v8.4h-8.4v-8.4Z" style="fill:#000; stroke-width:0px;"/><path d="M191.69,216.41h8.4v8.4h-8.4v-8.4Z" style="fill:#000; stroke-width:0px;"/><path d="M208.24,241.35h8.4v8.4h-8.4v-8.4Z" style="fill:#000; stroke-width:0px;"/><path d="M175.14,216.41h8.4v8.4h-8.4v-8.4Z" style="fill:#000; stroke-width:0px;"/><path d="M191.69,241.35h8.4v8.4h-8.4v-8.4Z" style="fill:#000; stroke-width:0px;"/><path d="M248.26,21.5L219.11.75c-1.98-1.24-4.45-.99-5.68.99-.49.74-.74,1.48-.74,2.47v4.2h-91.89C54.1,8.41,0,62.51,0,129.21s54.1,120.79,120.79,120.79v-8.4c-62,0-112.39-50.39-112.39-112.39S58.79,16.56,120.79,16.56h95.84c2.22,0,4.2-1.98,4.2-4.2v-.25l17.79,12.85-17.79,12.85v-.25c0-2.22-1.98-4.2-4.2-4.2h-95.84c-52.86,0-95.84,42.98-95.84,95.84s42.98,95.84,95.84,95.84v-8.65c-48.17,0-87.45-39.03-87.45-87.45S72.38,41.51,120.79,41.51h91.65v4.2c0,2.22,1.98,4.2,4.2,4.2.74,0,1.73-.25,2.47-.74l29.15-20.75c1.98-1.24,2.22-3.95.99-5.68-.25-.74-.74-.99-.99-1.24h0Z" style="fill:#000; stroke-width:0px;"/></svg>